<svg xmlns="http://www.w3.org/2000/svg" xmlns:xlink="http://www.w3.org/1999/xlink" width="120.23" height="124.4" viewBox="0 0 120.23 124.4"><defs><style>.cls-1{fill:#2e3192;}.cls-2{fill:aqua;}.cls-3{fill:url(#New_Gradient_Swatch_2);}.cls-4,.cls-6{fill:none;stroke-linecap:round;stroke-miterlimit:10;stroke-width:7px;}.cls-4{stroke:#0071bc;}.cls-5{fill:#0071bc;}.cls-6{stroke:#fff;}.cls-7{fill:#fff;}</style><linearGradient id="New_Gradient_Swatch_2" x1="66.99" y1="1.39" x2="66.18" y2="110.6" gradientUnits="userSpaceOnUse"><stop offset="0" stop-color="#ff4e1f"/><stop offset="1" stop-color="#db3721"/></linearGradient></defs><g id="Layer_2" data-name="Layer 2"><g id="Layer_9" data-name="Layer 9"><rect class="cls-1" y="12.92" width="109.07" height="111.48" rx="21.45"/><rect class="cls-2" x="9.26" y="3.38" width="107.97" height="111.48" rx="20.13"/><rect class="cls-3" x="12.95" width="107.28" height="111.48" rx="17.64"/><path class="cls-4" d="M34.61,53.36A30.37,30.37,0,1,1,65,83.72"/><path class="cls-5" d="M44.51,86.7l20,13.59a3,3,0,0,0,4.73-2.5V70.61a3,3,0,0,0-4.73-2.5l-20,13.59A3,3,0,0,0,44.51,86.7Z"/><path class="cls-6" d="M38.26,52.14A30.36,30.36,0,1,1,68.62,82.5"/><path class="cls-7" d="M48.16,85.49l20,13.59a3,3,0,0,0,4.73-2.5V69.39a3,3,0,0,0-4.73-2.5l-20,13.59A3,3,0,0,0,48.16,85.49Z"/></g></g></svg>