<svg xmlns="http://www.w3.org/2000/svg" width="1920" height="1080" viewBox="0 0 1920 1080"><defs><style>.cls-1{isolation:isolate;}.cls-2{fill:#3b4989;}.cls-3{fill:#6e5e8b;}.cls-4{fill:#513b8a;}.cls-5{fill:#c6b5a3;}.cls-6{fill:#48598a;}.cls-7{fill:#344578;}.cls-8{fill:#263c61;}.cls-9{opacity:0.6;mix-blend-mode:overlay;}.cls-10{fill:#fff;}.cls-11{fill:#2d425f;}</style></defs><g class="cls-1"><g id="Layer_3" data-name="Layer 3"><rect class="cls-2" width="1920" height="1080"/><path class="cls-3" d="M1907,485.06C1907,309.4,1764.18,167,1588,167s-319,142.4-319,318.06c0,.33,0,.66,0,1h0c0-.34,0-.67,0-1C1269,309.4,1126.18,167,950,167S631,309.4,631,485.06c0,.33,0,.66,0,1h-2C629,317,491.55,180,322,180S15,317,15,486.06V843H1907V486.06h0C1907,485.72,1907,485.39,1907,485.06Z"/><rect class="cls-4" x="193" y="475.42" width="256.36" height="367.58"/><circle class="cls-4" cx="321.18" cy="476.18" r="128.18"/><rect class="cls-5" x="237" y="484" width="169" height="359"/><circle class="cls-5" cx="321.5" cy="484.5" r="84.5"/><rect class="cls-4" x="821" y="474.42" width="256.36" height="367.58"/><circle class="cls-4" cx="949.18" cy="475.18" r="128.18"/><rect class="cls-5" x="865" y="483" width="169" height="359"/><circle class="cls-5" cx="949.5" cy="483.5" r="84.5"/><circle class="cls-4" cx="1572.18" cy="475.18" r="128.18"/><circle class="cls-5" cx="1572.5" cy="474.5" r="84.5"/><path class="cls-2" d="M652,499.82A22.19,22.19,0,0,0,659,484h-7V368.16c8.54-4.77,14-12,14-20.16h-3.2c10-4.75,16.2-11.5,16.2-19H577c0,7.5,6.24,14.25,16.2,19H590c0,8.13,5.46,15.39,14,20.16V484h-7a22.19,22.19,0,0,0,7,15.82V828H577v15H679V828H652Z"/><rect class="cls-6" x="-10" y="853.07" width="498.55" height="32.24" rx="14.76"/><rect class="cls-6" x="501.19" y="853.07" width="589.56" height="32.24" rx="14.76"/><rect class="cls-6" x="1108.43" y="853.07" width="589.56" height="32.24" rx="14.76"/><rect class="cls-6" x="1718.79" y="853.07" width="209.21" height="32.24" rx="14.76"/><rect class="cls-6" x="-10" y="901.78" width="174.24" height="34.45" rx="13.81"/><rect class="cls-6" x="179.54" y="901.78" width="713.5" height="34.45" rx="13.81"/><rect class="cls-6" x="914.43" y="901.78" width="713.5" height="34.45" rx="13.81"/><rect class="cls-6" x="1653.1" y="901.78" width="274.9" height="34.45" rx="13.81"/><rect class="cls-6" x="-10" y="952.74" width="413.11" height="41.26" rx="20.63"/><rect class="cls-6" x="421.44" y="952.74" width="854.6" height="41.26" rx="20.63"/><rect class="cls-6" x="1301.66" y="952.74" width="626.34" height="41.26" rx="20.63"/><rect class="cls-6" x="-10" y="1010.98" width="985.5" height="48.04" rx="24.02"/><rect class="cls-6" x="1005.34" y="1010.98" width="922.66" height="48.04" rx="24.02"/><rect class="cls-2" x="1884" y="329" width="36" height="514"/><rect class="cls-2" y="329" width="37" height="514"/><rect class="cls-7" x="713" y="749" width="73" height="149" rx="12.41"/><ellipse class="cls-7" cx="750" cy="712" rx="36" ry="21"/><circle class="cls-7" cx="749.5" cy="676.5" r="14.5"/><rect class="cls-7" x="731" y="709" width="40" height="40"/><ellipse class="cls-2" cx="745.5" cy="663" rx="25.5" ry="9" transform="translate(-173.09 273.73) rotate(-18.68)"/><rect class="cls-7" x="1108" y="749" width="73" height="149" rx="12.41"/><ellipse class="cls-7" cx="1145" cy="712" rx="36" ry="21"/><circle class="cls-7" cx="1145" cy="675" r="16"/><rect class="cls-7" x="1126" y="709" width="40" height="40"/><path class="cls-2" d="M1162,687V698a12,12,0,0,1-12,12h-10a12,12,0,0,1-12-12V687a12,12,0,0,1,4.31-9.2,13,13,0,0,0,25.38,0A12,12,0,0,1,1162,687Z"/><rect class="cls-7" x="-10" y="635.4" width="136" height="285.6" rx="12.26"/><rect class="cls-8" x="106.96" y="659.88" width="11.79" height="57.12" rx="3.99"/><rect class="cls-8" x="92.45" y="663.51" width="11.79" height="53.49" rx="3.99"/><rect class="cls-8" x="77.95" y="656.25" width="11.79" height="60.75" rx="3.99"/><rect class="cls-8" x="63.44" y="659.88" width="11.79" height="57.12" rx="3.99"/><rect class="cls-8" x="39.87" y="667.13" width="11.79" height="51.68" rx="3.99" transform="translate(-340.36 115.72) rotate(-30)"/><rect class="cls-8" x="15.39" y="659.88" width="11.79" height="57.12" rx="3.99"/><rect class="cls-8" x="0.88" y="656.25" width="11.79" height="60.75" rx="3.99"/><rect class="cls-8" x="106.96" y="846.65" width="11.79" height="57.12" rx="3.99"/><rect class="cls-8" x="92.45" y="850.28" width="11.79" height="53.49" rx="3.99"/><rect class="cls-8" x="77.95" y="843.03" width="11.79" height="60.75" rx="3.99"/><rect class="cls-8" x="63.44" y="846.65" width="11.79" height="57.12" rx="3.99"/><rect class="cls-8" x="24.45" y="870.23" width="11.79" height="55.31" rx="3.99" transform="translate(-867.53 928.23) rotate(-90)"/><rect class="cls-8" x="20.83" y="857.53" width="11.79" height="51.68" rx="3.99" transform="translate(-856.65 910.09) rotate(-90)"/><rect class="cls-8" x="26.27" y="842.12" width="11.79" height="53.49" rx="3.99" transform="translate(-836.71 901.03) rotate(-90)"/><rect class="cls-8" x="18.11" y="827.61" width="11.79" height="53.49" rx="3.99" transform="translate(-830.36 878.36) rotate(-90)"/><rect class="cls-8" x="63.44" y="761.43" width="11.79" height="57.12" rx="3.99"/><rect class="cls-8" x="48.93" y="765.05" width="11.79" height="53.49" rx="3.99"/><rect class="cls-8" x="34.43" y="757.8" width="11.79" height="60.75" rx="3.99"/><rect class="cls-8" x="19.92" y="761.43" width="11.79" height="57.12" rx="3.99"/><rect class="cls-8" x="5.41" y="766.87" width="11.79" height="51.68" rx="3.99"/><rect class="cls-8" x="-9.09" y="761.43" width="11.79" height="57.12" rx="3.99"/><rect class="cls-8" x="106.96" y="757.8" width="11.79" height="60.75" rx="3.99"/><rect class="cls-8" x="92.45" y="757.8" width="11.79" height="60.75" rx="3.99"/><rect class="cls-8" x="77.95" y="761.43" width="11.79" height="57.12" rx="3.99"/><g class="cls-9"><polygon class="cls-10" points="1163.43 1015.22 971.21 1015.22 865 843 1034 843 1163.43 1015.22"/><path class="cls-10" d="M1163.23,1015c-18.8-25-75.23-44.65-126.64-44.65s-81,19.64-65.55,44.65c16,25.91,73.83,47.62,128.68,47.62S1182.71,1040.86,1163.23,1015Z"/></g><g class="cls-9"><path class="cls-10" d="M1859.23,1015c-18.8-25-75.23-44.65-126.64-44.65s-81,19.64-65.55,44.65c16,25.91,73.83,47.62,128.68,47.62S1878.71,1040.86,1859.23,1015Z"/></g><g class="cls-9"><polygon class="cls-10" points="489.9 1016 297.68 1016 237 843 406 843 489.9 1016"/><path class="cls-10" d="M489.77,1015.73c-12.19-25.12-63.43-44.85-114.84-44.85s-86.16,19.73-77.35,44.85c9.13,26,61.24,47.84,116.08,47.84S502.39,1041.76,489.77,1015.73Z"/></g><path class="cls-2" d="M1292,499.82a22.19,22.19,0,0,0,7-15.82h-7V368.16c8.54-4.77,14-12,14-20.16h-3.2c10-4.75,16.2-11.5,16.2-19H1217c0,7.5,6.24,14.25,16.2,19H1230c0,8.13,5.46,15.39,14,20.16V484h-7a22.19,22.19,0,0,0,7,15.82V828h-27v15h102V828h-27Z"/><rect class="cls-7" x="1591" y="608.36" width="281" height="248.64" rx="12.26"/><rect class="cls-8" x="1809.42" y="628.67" width="10.26" height="49.73" rx="3.99"/><rect class="cls-8" x="1796.79" y="631.83" width="10.26" height="46.57" rx="3.99"/><rect class="cls-8" x="1784.17" y="625.52" width="10.26" height="52.88" rx="3.99"/><rect class="cls-8" x="1771.54" y="628.67" width="10.26" height="49.73" rx="3.99"/><rect class="cls-8" x="1751.01" y="634.99" width="10.26" height="44.99" rx="3.99" transform="translate(-93.46 966.16) rotate(-30)"/><rect class="cls-8" x="1729.7" y="628.67" width="10.26" height="49.73" rx="3.99"/><rect class="cls-8" x="1717.07" y="625.52" width="10.26" height="52.88" rx="3.99"/><rect class="cls-8" x="1733.97" y="717.08" width="10.26" height="49.73" rx="3.99"/><rect class="cls-8" x="1721.34" y="720.24" width="10.26" height="46.57" rx="3.99"/><rect class="cls-8" x="1708.71" y="713.92" width="10.26" height="52.88" rx="3.99"/><rect class="cls-8" x="1696.08" y="717.08" width="10.26" height="49.73" rx="3.99"/><rect class="cls-8" x="1657.25" y="717.08" width="10.26" height="49.73" rx="3.99"/><rect class="cls-8" x="1670.25" y="716" width="10.26" height="50.81" rx="3.99"/><rect class="cls-8" x="1683.25" y="717.08" width="10.26" height="49.73" rx="3.99"/><rect class="cls-8" x="1644.62" y="713.92" width="10.26" height="52.88" rx="3.99"/><rect class="cls-8" x="1810.54" y="717.08" width="10.26" height="49.73" rx="3.99"/><rect class="cls-8" x="1797.91" y="720.24" width="10.26" height="46.57" rx="3.99"/><rect class="cls-8" x="1785.28" y="713.92" width="10.26" height="52.88" rx="3.99"/><rect class="cls-8" x="1772.65" y="717.08" width="10.26" height="49.73" rx="3.99"/><rect class="cls-8" x="1760.02" y="721.81" width="10.26" height="44.99" rx="3.99"/><rect class="cls-8" x="1747.39" y="717.08" width="10.26" height="49.73" rx="3.99"/><rect class="cls-8" x="1848.42" y="713.92" width="10.26" height="52.88" rx="3.99"/><rect class="cls-8" x="1835.79" y="713.92" width="10.26" height="52.88" rx="3.99"/><rect class="cls-8" x="1823.17" y="717.08" width="10.26" height="49.73" rx="3.99"/><rect class="cls-8" x="1631.99" y="713.5" width="10.26" height="52.88" rx="3.99"/><rect class="cls-8" x="1619.36" y="713.5" width="10.26" height="52.88" rx="3.99"/><rect class="cls-8" x="1606.73" y="716.66" width="10.26" height="49.73" rx="3.99"/><rect class="cls-8" x="1603.73" y="625.52" width="10.26" height="52.88" rx="3.99" transform="translate(3217.73 1303.92) rotate(-180)"/><rect class="cls-8" x="1616.36" y="625.52" width="10.26" height="52.88" rx="3.99" transform="translate(3242.99 1303.92) rotate(-180)"/><rect class="cls-8" x="1628.99" y="628.67" width="10.26" height="49.73" rx="3.99" transform="translate(3268.24 1307.08) rotate(-180)"/><rect class="cls-8" x="1641.62" y="791.28" width="10.26" height="49.73" rx="3.99" transform="translate(3293.5 1632.28) rotate(-180)"/><rect class="cls-8" x="1654.25" y="794.43" width="10.26" height="46.57" rx="3.99" transform="translate(3318.76 1635.44) rotate(-180)"/><rect class="cls-8" x="1666.88" y="788.12" width="10.26" height="52.88" rx="3.99" transform="translate(3344.02 1629.12) rotate(-180)"/><rect class="cls-8" x="1707.77" y="811.28" width="10.26" height="49.73" rx="3.99" transform="translate(2549.04 -876.76) rotate(90)"/><rect class="cls-8" x="1709.77" y="799.28" width="10.26" height="49.73" rx="3.99" transform="translate(2539.04 -890.76) rotate(90)"/><rect class="cls-8" x="1699.77" y="787.28" width="10.26" height="49.73" rx="3.99" transform="translate(2517.04 -892.76) rotate(90)"/><rect class="cls-8" x="1603.73" y="788.12" width="10.26" height="52.88" rx="3.99" transform="translate(3217.73 1629.12) rotate(-180)"/><rect class="cls-8" x="1616.36" y="788.12" width="10.26" height="52.88" rx="3.99" transform="translate(3242.99 1629.12) rotate(-180)"/><rect class="cls-8" x="1628.99" y="791.28" width="10.26" height="49.73" rx="3.99" transform="translate(3268.24 1632.28) rotate(-180)"/><rect class="cls-8" x="1810.12" y="791.28" width="10.26" height="49.73" rx="3.99"/><rect class="cls-8" x="1797.49" y="794.43" width="10.26" height="46.57" rx="3.99"/><rect class="cls-8" x="1784.86" y="788.12" width="10.26" height="52.88" rx="3.99"/><rect class="cls-8" x="1772.23" y="791.28" width="10.26" height="49.73" rx="3.99"/><rect class="cls-8" x="1759.6" y="796.01" width="10.26" height="44.99" rx="3.99"/><rect class="cls-8" x="1746.97" y="791.28" width="10.26" height="49.73" rx="3.99"/><rect class="cls-8" x="1848.01" y="788.12" width="10.26" height="52.88" rx="3.99"/><rect class="cls-8" x="1835.38" y="788.12" width="10.26" height="52.88" rx="3.99"/><rect class="cls-8" x="1822.75" y="791.28" width="10.26" height="49.73" rx="3.99"/><rect class="cls-8" x="1704.77" y="628.67" width="10.26" height="49.73" rx="3.99"/><rect class="cls-8" x="1692.14" y="631.83" width="10.26" height="46.57" rx="3.99"/><rect class="cls-8" x="1679.51" y="625.52" width="10.26" height="52.88" rx="3.99"/><rect class="cls-8" x="1666.88" y="628.67" width="10.26" height="49.73" rx="3.99"/><rect class="cls-8" x="1654.25" y="633.41" width="10.26" height="44.99" rx="3.99"/><rect class="cls-8" x="1641.62" y="628.67" width="10.26" height="49.73" rx="3.99"/><rect class="cls-8" x="1849.65" y="625.52" width="10.26" height="52.88" rx="3.99"/><rect class="cls-8" x="1837.03" y="625.52" width="10.26" height="52.88" rx="3.99"/><rect class="cls-8" x="1824.4" y="628.67" width="10.26" height="49.73" rx="3.99"/><rect class="cls-7" x="1291" y="608.36" width="281" height="248.64" rx="12.26"/><rect class="cls-8" x="1550.42" y="628.67" width="10.26" height="49.73" rx="3.99"/><rect class="cls-8" x="1537.79" y="631.83" width="10.26" height="46.57" rx="3.99"/><rect class="cls-8" x="1525.17" y="625.52" width="10.26" height="52.88" rx="3.99"/><rect class="cls-8" x="1512.54" y="628.67" width="10.26" height="49.73" rx="3.99"/><rect class="cls-8" x="1492.01" y="634.99" width="10.26" height="44.99" rx="3.99" transform="translate(-128.16 836.66) rotate(-30)"/><rect class="cls-8" x="1470.7" y="628.67" width="10.26" height="49.73" rx="3.99"/><rect class="cls-8" x="1458.07" y="625.52" width="10.26" height="52.88" rx="3.99"/><rect class="cls-8" x="1435.97" y="717.08" width="10.26" height="49.73" rx="3.99"/><rect class="cls-8" x="1423.34" y="720.24" width="10.26" height="46.57" rx="3.99"/><rect class="cls-8" x="1410.71" y="713.92" width="10.26" height="52.88" rx="3.99"/><rect class="cls-8" x="1398.08" y="717.08" width="10.26" height="49.73" rx="3.99"/><rect class="cls-8" x="1377.56" y="723.39" width="10.26" height="44.99" rx="3.99" transform="translate(-187.7 791.28) rotate(-30)"/><rect class="cls-8" x="1356.25" y="717.08" width="10.26" height="49.73" rx="3.99"/><rect class="cls-8" x="1343.62" y="713.92" width="10.26" height="52.88" rx="3.99"/><rect class="cls-8" x="1550.42" y="791.28" width="10.26" height="49.73" rx="3.99"/><rect class="cls-8" x="1537.79" y="794.43" width="10.26" height="46.57" rx="3.99"/><rect class="cls-8" x="1525.17" y="788.12" width="10.26" height="52.88" rx="3.99"/><rect class="cls-8" x="1512.54" y="791.28" width="10.26" height="49.73" rx="3.99"/><rect class="cls-8" x="1478.6" y="811.8" width="10.26" height="48.15" rx="3.99" transform="translate(647.85 2319.6) rotate(-90)"/><rect class="cls-8" x="1475.44" y="800.75" width="10.26" height="44.99" rx="3.99" transform="translate(657.33 2303.81) rotate(-90)"/><rect class="cls-8" x="1480.17" y="787.33" width="10.26" height="46.57" rx="3.99" transform="translate(674.69 2295.92) rotate(-90)"/><rect class="cls-8" x="1473.07" y="774.7" width="10.26" height="46.57" rx="3.99" transform="translate(680.22 2276.19) rotate(-90)"/><rect class="cls-8" x="1512.54" y="717.08" width="10.26" height="49.73" rx="3.99"/><rect class="cls-8" x="1499.91" y="720.24" width="10.26" height="46.57" rx="3.99"/><rect class="cls-8" x="1487.28" y="713.92" width="10.26" height="52.88" rx="3.99"/><rect class="cls-8" x="1474.65" y="717.08" width="10.26" height="49.73" rx="3.99"/><rect class="cls-8" x="1462.02" y="721.81" width="10.26" height="44.99" rx="3.99"/><rect class="cls-8" x="1449.39" y="717.08" width="10.26" height="49.73" rx="3.99"/><rect class="cls-8" x="1550.42" y="713.92" width="10.26" height="52.88" rx="3.99"/><rect class="cls-8" x="1537.79" y="713.92" width="10.26" height="52.88" rx="3.99"/><rect class="cls-8" x="1525.17" y="717.08" width="10.26" height="49.73" rx="3.99"/><rect class="cls-8" x="1330.99" y="715.5" width="10.26" height="52.88" rx="3.99"/><rect class="cls-8" x="1318.36" y="715.5" width="10.26" height="52.88" rx="3.99"/><rect class="cls-8" x="1305.73" y="718.66" width="10.26" height="49.73" rx="3.99"/><rect class="cls-8" x="1305.73" y="625.52" width="10.26" height="52.88" rx="3.99" transform="translate(2621.73 1303.92) rotate(-180)"/><rect class="cls-8" x="1318.36" y="625.52" width="10.26" height="52.88" rx="3.99" transform="translate(2646.99 1303.92) rotate(-180)"/><rect class="cls-8" x="1330.99" y="628.67" width="10.26" height="49.73" rx="3.99" transform="translate(2672.24 1307.08) rotate(-180)"/><rect class="cls-8" x="1343.62" y="791.28" width="10.26" height="49.73" rx="3.99" transform="translate(2697.5 1632.28) rotate(-180)"/><rect class="cls-8" x="1356.25" y="794.43" width="10.26" height="46.57" rx="3.99" transform="translate(2722.76 1635.44) rotate(-180)"/><rect class="cls-8" x="1368.88" y="788.12" width="10.26" height="52.88" rx="3.99" transform="translate(2748.02 1629.12) rotate(-180)"/><rect class="cls-8" x="1381.51" y="791.28" width="10.26" height="49.73" rx="3.99" transform="translate(2773.28 1632.28) rotate(-180)"/><rect class="cls-8" x="1394.14" y="796.01" width="10.26" height="44.99" rx="3.99" transform="translate(2798.54 1637.01) rotate(-180)"/><rect class="cls-8" x="1406.77" y="791.28" width="10.26" height="49.73" rx="3.99" transform="translate(2823.79 1632.28) rotate(-180)"/><rect class="cls-8" x="1305.73" y="788.12" width="10.26" height="52.88" rx="3.99" transform="translate(2621.73 1629.12) rotate(-180)"/><rect class="cls-8" x="1318.36" y="788.12" width="10.26" height="52.88" rx="3.99" transform="translate(2646.99 1629.12) rotate(-180)"/><rect class="cls-8" x="1330.99" y="791.28" width="10.26" height="49.73" rx="3.99" transform="translate(2672.24 1632.28) rotate(-180)"/><rect class="cls-8" x="1406.77" y="628.67" width="10.26" height="49.73" rx="3.99"/><rect class="cls-8" x="1394.14" y="631.83" width="10.26" height="46.57" rx="3.99"/><rect class="cls-8" x="1381.51" y="625.52" width="10.26" height="52.88" rx="3.99"/><rect class="cls-8" x="1368.88" y="628.67" width="10.26" height="49.73" rx="3.99"/><rect class="cls-8" x="1356.25" y="633.41" width="10.26" height="44.99" rx="3.99"/><rect class="cls-8" x="1343.62" y="628.67" width="10.26" height="49.73" rx="3.99"/><rect class="cls-8" x="1444.65" y="625.52" width="10.26" height="52.88" rx="3.99"/><rect class="cls-8" x="1432.03" y="625.52" width="10.26" height="52.88" rx="3.99"/><rect class="cls-8" x="1419.4" y="628.67" width="10.26" height="49.73" rx="3.99"/><rect class="cls-11" x="1267" y="633" width="49" height="303" rx="11.65"/><rect class="cls-11" x="1882" y="633" width="49" height="303" rx="11.65"/><rect class="cls-11" x="501" y="633" width="49" height="303" rx="11.65"/></g></g></svg>