<svg xmlns="http://www.w3.org/2000/svg" width="118" height="167.4" viewBox="0 0 118 167.4"><defs><style>.cls-1{fill:red;}.cls-2{fill:none;stroke:#000;stroke-linecap:round;stroke-miterlimit:10;stroke-width:11px;}</style></defs><g id="Layer_2" data-name="Layer 2"><g id="Layer_6" data-name="Layer 6"><path class="cls-1" d="M118,69.4v83a15,15,0,0,1-30,0v-23a15,15,0,0,1-28,7.43v8.57a15,15,0,0,1-30,0v7a15,15,0,0,1-30,0v-83c0-.33,0-.66.05-1a59,59,0,0,1,27.65-48A58.75,58.75,0,0,1,50.41,12,59,59,0,0,1,118,68.41C118,68.74,118,69.07,118,69.4Z"/><line class="cls-2" x1="22" y1="59.4" x2="45.5" y2="69.9"/><line class="cls-2" x1="94" y1="58.4" x2="73.5" y2="68.9"/><path class="cls-1" d="M51,17.4A25,25,0,1,1,8.06,0C8,.46,8,.93,8,1.4a19,19,0,0,0,19,19h.7A58.75,58.75,0,0,1,50.41,12,24.44,24.44,0,0,1,51,17.4Z"/><path class="cls-1" d="M67,17.4A25,25,0,1,0,109.94,0c0,.46.06.93.06,1.4a19,19,0,0,1-19,19h-.7A58.75,58.75,0,0,0,67.59,12,24.44,24.44,0,0,0,67,17.4Z"/><path class="cls-1" d="M27.7,20.39A58.14,58.14,0,0,1,41,14.19,18.9,18.9,0,0,1,27.7,20.39Z"/></g></g></svg>