<svg xmlns="http://www.w3.org/2000/svg" width="182.2" height="193.96" viewBox="0 0 182.2 193.96"><defs><style>.cls-1{fill:red;}.cls-2{fill:none;stroke:#000;stroke-linecap:round;stroke-miterlimit:10;stroke-width:11px;}</style></defs><g id="Layer_2" data-name="Layer 2"><g id="Layer_6" data-name="Layer 6"><path class="cls-1" d="M52.32,51,2.93,117.68A15,15,0,1,0,27,135.53l13.69-18.48a15,15,0,0,0,18.08,22.63l-5.1,6.89a15,15,0,1,0,24.11,17.85l-4.17,5.63A15,15,0,1,0,97.76,187.9l49.39-66.7c.2-.27.37-.55.55-.83a59,59,0,0,0,6.36-55,58.71,58.71,0,0,0-13.27-20.24A59,59,0,0,0,53,50.21C52.74,50.46,52.52,50.71,52.32,51Z"/><line class="cls-2" x1="135.42" y1="100.07" x2="110.29" y2="94.52"/><line class="cls-2" x1="78.16" y1="56.42" x2="88.38" y2="77.06"/><path class="cls-1" d="M137.11,49.06A25,25,0,1,0,182,60.63c-.24.39-.51.78-.79,1.16a19,19,0,0,1-26.57,4c-.19-.13-.38-.28-.56-.42a58.71,58.71,0,0,0-13.27-20.24A24.47,24.47,0,0,0,137.11,49.06Z"/><path class="cls-1" d="M124.26,39.54A25,25,0,1,1,100.1,0c-.3.35-.6.71-.88,1.09a19,19,0,0,0,4,26.58c.19.13.38.28.57.4A58.86,58.86,0,0,1,127,34.86,24,24,0,0,1,124.26,39.54Z"/><path class="cls-1" d="M154.06,65.33a57.93,57.93,0,0,0-7-12.92A18.92,18.92,0,0,0,154.06,65.33Z"/></g></g></svg>