<svg xmlns="http://www.w3.org/2000/svg" width="182.2" height="193.96" viewBox="0 0 182.2 193.96"><defs><style>.cls-1{fill:red;}.cls-2{fill:none;stroke:#000;stroke-linecap:round;stroke-miterlimit:10;stroke-width:11px;}</style></defs><g id="Layer_2" data-name="Layer 2"><g id="Layer_6" data-name="Layer 6"><path class="cls-1" d="M129.88,51l49.39,66.7a15,15,0,0,1-24.11,17.85l-13.69-18.48a15,15,0,0,1-18.08,22.63l5.1,6.89a15,15,0,1,1-24.11,17.85l4.17,5.63A15,15,0,0,1,84.44,187.9L35.05,121.2c-.2-.27-.37-.55-.55-.83a59,59,0,0,1-6.36-55A58.71,58.71,0,0,1,41.41,45.09a59,59,0,0,1,87.84,5.12C129.46,50.46,129.68,50.71,129.88,51Z"/><line class="cls-2" x1="46.78" y1="100.07" x2="71.91" y2="94.52"/><line class="cls-2" x1="104.04" y1="56.42" x2="93.82" y2="77.06"/><path class="cls-1" d="M45.09,49.06A25,25,0,1,1,.22,60.63c.24.39.51.78.79,1.16a19,19,0,0,0,26.57,4c.19-.13.38-.28.56-.42A58.71,58.71,0,0,1,41.41,45.09,24.47,24.47,0,0,1,45.09,49.06Z"/><path class="cls-1" d="M57.94,39.54A25,25,0,1,0,82.1,0c.3.35.6.71.88,1.09a19,19,0,0,1-4,26.58c-.19.13-.38.28-.57.4a58.86,58.86,0,0,0-23.23,6.79A24,24,0,0,0,57.94,39.54Z"/><path class="cls-1" d="M28.14,65.33a57.93,57.93,0,0,1,7-12.92A18.92,18.92,0,0,1,28.14,65.33Z"/></g></g></svg>