<svg xmlns="http://www.w3.org/2000/svg" width="118" height="156" viewBox="0 0 118 156"><defs><style>.cls-1{fill:#8cc63f;}</style></defs><g id="Layer_2" data-name="Layer 2"><g id="Layer_6" data-name="Layer 6"><path class="cls-1" d="M.05,57A59,59,0,0,1,118,57c0,.33,0,.66,0,1v83a15,15,0,0,1-30,0v-7a15,15,0,0,1-30,0v-8.57A15,15,0,0,1,30,118v23a15,15,0,0,1-30,0V58C0,57.67,0,57.34.05,57Z"/><path d="M104.48,55.1a19,19,0,1,0-38.08-.36"/><path d="M51.56,54.6a19,19,0,1,0-38.08-.36"/><circle class="cls-1" cx="85.41" cy="56.01" r="9"/><circle class="cls-1" cx="32.04" cy="55.82" r="9"/></g></g></svg>