<svg xmlns="http://www.w3.org/2000/svg" width="159.92" height="165.32" viewBox="0 0 159.92 165.32"><defs><style>.cls-1{fill:#8cc63f;}</style></defs><g id="Layer_2" data-name="Layer 2"><g id="Layer_6" data-name="Layer 6"><path class="cls-1" d="M12.08,94.75a59,59,0,0,1,91.31-74.58c.23.24.45.47.66.73l52.51,64.28a15,15,0,1,1-23.24,19l-4.42-5.42a15,15,0,0,1-23.24,19l-5.42-6.64a15,15,0,0,1-26.39,12L88.4,140.85a15,15,0,1,1-23.23,19L12.66,95.54C12.45,95.29,12.27,95,12.08,94.75Z"/><path d="M103.37,45.48a19,19,0,1,0-37.15,8.34"/><path d="M51.73,57.07a19,19,0,1,0-37.15,8.34"/><circle class="cls-1" cx="85.01" cy="50.71" r="9"/><circle class="cls-1" cx="33.01" cy="62.71" r="9"/></g></g></svg>