<svg xmlns="http://www.w3.org/2000/svg" xmlns:xlink="http://www.w3.org/1999/xlink" width="119.33" height="123.47" viewBox="0 0 119.33 123.47"><defs><style>.cls-1{fill:#2e3192;}.cls-2{fill:aqua;}.cls-3{fill:url(#New_Gradient_Swatch_2);}.cls-4{fill:#0071bc;}.cls-5{fill:#fff;}</style><linearGradient id="New_Gradient_Swatch_2" x1="66.49" y1="1.38" x2="65.69" y2="109.77" gradientUnits="userSpaceOnUse"><stop offset="0" stop-color="#ff4e1f"/><stop offset="1" stop-color="#db3721"/></linearGradient></defs><g id="Layer_2" data-name="Layer 2"><g id="Layer_9" data-name="Layer 9"><rect class="cls-1" y="12.82" width="108.25" height="110.65" rx="21.45"/><rect class="cls-2" x="9.19" y="3.35" width="107.16" height="110.65" rx="20.13"/><rect class="cls-3" x="12.85" width="106.48" height="110.65" rx="17.64"/><path class="cls-4" d="M103.08,44.87,70.22,14.13a5.11,5.11,0,0,0-7,0L30.31,44.87a5.69,5.69,0,0,0,2.1,9.53l1-.89,9.63-9L62.64,26.12a5.89,5.89,0,0,1,8.11,0L90.39,44.5l8.67,8.1L101,54.42A5.7,5.7,0,0,0,103.08,44.87Z"/><path class="cls-4" d="M88,46.48,69.69,29.36a4.4,4.4,0,0,0-3-1.2,4.34,4.34,0,0,0-3,1.2h0L45.4,46.48,34.62,56.58l-1.25,1.16v34c0,3.18,2.9,5.79,6.46,5.79H53a2.11,2.11,0,0,0,2-2.15V74a2.07,2.07,0,0,1,2-2.13H75.34a2.11,2.11,0,0,1,2,2.15V95.34a2.11,2.11,0,0,0,2.05,2.15H92.6c3.56,0,6.46-2.61,6.46-5.79V56.58h-.29Z"/><path class="cls-5" d="M106.7,42.46,73.84,11.72a5.11,5.11,0,0,0-7,0L33.92,42.46A5.69,5.69,0,0,0,36,52l1-.89,9.63-9L66.26,23.71a5.89,5.89,0,0,1,8.11,0L94,42.09l8.67,8.1L104.6,52A5.7,5.7,0,0,0,106.7,42.46Z"/><path class="cls-5" d="M91.61,44.07,73.31,27a4.33,4.33,0,0,0-6,0h0L49,44.07,38.23,54.17,37,55.33v34c0,3.19,2.9,5.8,6.46,5.8H56.62a2.11,2.11,0,0,0,2-2.15V71.55a2.08,2.08,0,0,1,2-2.13H79a2.1,2.1,0,0,1,2,2.15V92.93a2.11,2.11,0,0,0,2,2.15H96.22c3.56,0,6.46-2.61,6.46-5.8V54.17h-.29Z"/></g></g></svg>