<svg xmlns="http://www.w3.org/2000/svg" width="500" height="800" viewBox="0 0 500 800"><defs><style>.cls-1{fill:#e8c8a6;}.cls-2{fill:#32446b;}.cls-3{fill:#af1b1b;}.cls-11,.cls-16,.cls-4{fill:none;}.cls-5{opacity:0.18;}.cls-6{fill:#353549;}.cls-7{fill:#383856;}.cls-8{fill:#e55838;}.cls-9{fill:#d3291c;}.cls-10{fill:#e0522b;}.cls-11{stroke:#353549;stroke-width:11px;}.cls-11,.cls-16{stroke-linecap:round;stroke-miterlimit:10;}.cls-12{fill:#4242a5;}.cls-13{fill:#222235;}.cls-14{fill:#27276b;}.cls-15{fill:#404047;}.cls-16{stroke:#6f6fb5;stroke-width:7px;}.cls-17{opacity:0.25;}.cls-18{fill:#fff;opacity:0.33;}</style></defs><g id="Layer_5" data-name="Layer 5"><path class="cls-1" d="M317.63,233.06V496.73a28.63,28.63,0,0,1-57.25,0V233.06a28.63,28.63,0,0,1,57.25,0Z"/><path class="cls-2" d="M317.63,233.06v77.28H260.38V233.06a28.63,28.63,0,0,1,57.25,0Z"/><rect class="cls-3" x="254.87" y="301.34" width="68" height="28"/><rect class="cls-4" x="259.87" y="329.34" width="58" height="15"/><rect class="cls-5" x="260.38" y="329.34" width="57.25" height="7"/><rect x="325.87" y="291.78" width="108" height="164.9" rx="35.38"/><rect x="335.87" y="402.34" width="38" height="328"/><rect x="387.87" y="402.34" width="38" height="328"/><circle class="cls-6" cx="387.58" cy="294.23" r="108.29"/><rect class="cls-1" x="279.09" y="89.68" width="121.86" height="191.85" rx="60.93"/><circle class="cls-1" cx="339.78" cy="204.32" r="60.5"/><circle class="cls-7" cx="302.35" cy="157.53" r="7.02"/><circle class="cls-7" cx="351.82" cy="157.53" r="7.02"/><rect class="cls-8" x="314.13" y="147.17" width="23.98" height="49.47" rx="11.99"/><path class="cls-9" d="M279.09,59.74H255.87V80.1h0v31c0,10.91,9.9,19.88,22.21,20.34v0H302.3V80.1C302.3,68.9,291.85,59.74,279.09,59.74Z"/><path class="cls-8" d="M361.51,107.62v24.83H303.59c-12.3,0-22.41-10.59-22.94-23.75h0V82.79h57.92C351.17,82.79,361.51,94,361.51,107.62Z"/><path class="cls-9" d="M392.93,111v24.83H335c-12.3,0-22.42-10.59-22.94-23.75h0V86.13H370C382.59,86.13,392.93,97.31,392.93,111Z"/><path class="cls-10" d="M414.32,204.57v103.8c0,20.53-17.06,37.33-37.9,37.33H305.15c-20.84,0-37.9-16.8-37.9-37.33V204.57A37.08,37.08,0,0,1,280.8,176,61.66,61.66,0,0,0,383.89,168C401.19,171.41,414.32,186.55,414.32,204.57Z"/><path class="cls-9" d="M388.71,105.86H365.5v20.37h0v31c0,10.9,9.9,19.87,22.21,20.34v0h24.22V126.23C411.93,115,401.48,105.86,388.71,105.86Z"/><path class="cls-2" d="M423.25,123.33c20.36-48.46,7.4-100.12-28.95-115.39S312,19.57,291.63,68"/><rect class="cls-6" x="274.47" y="84" width="157.59" height="45.25" rx="17.61" transform="translate(68.88 -128.51) rotate(22.79)"/><path class="cls-11" d="M333.26,250.06a36.42,36.42,0,0,0,40.12-32.32"/><path class="cls-1" d="M495.63,233.06V496.73a28.63,28.63,0,0,1-57.25,0V233.06a28.63,28.63,0,0,1,57.25,0Z"/><path class="cls-2" d="M495.63,231.52v78.82H437.24V231.52a29.2,29.2,0,0,1,58.39,0Z"/><rect class="cls-3" x="432.87" y="301.34" width="68" height="28"/><rect class="cls-5" x="438.38" y="329.34" width="57.25" height="7"/><rect class="cls-1" x="346.87" y="730.34" width="16" height="34"/><rect class="cls-1" x="398.87" y="730.34" width="16" height="34"/><rect x="346.87" y="764.34" width="16" height="16"/><rect x="398.87" y="764.34" width="16" height="16"/><path class="cls-12" d="M328.13,800.34a25.87,25.87,0,1,1,51.74,0"/><rect class="cls-13" x="336.04" y="751.34" width="21.13" height="40.78" rx="10.56"/><path class="cls-14" d="M294.65,800.34a33.18,33.18,0,0,1,66.35,0"/><path class="cls-12" d="M380.13,800.34a25.87,25.87,0,1,1,51.74,0"/><rect class="cls-13" x="388.04" y="751.34" width="21.13" height="40.78" rx="10.56"/><path class="cls-14" d="M346.65,800.34a33.18,33.18,0,0,1,66.35,0"/><rect class="cls-15" x="330.87" y="707.34" width="46" height="23"/><rect class="cls-15" x="383.87" y="707.34" width="46" height="23"/><path class="cls-16" d="M306.87,789.34c0-7.18,6.27-13,14-13"/><path class="cls-16" d="M358.87,789.34c0-7.18,6.27-13,14-13"/><rect class="cls-17" x="398.87" y="730.34" width="16" height="7"/><rect class="cls-17" x="346.87" y="730.34" width="16" height="7"/><rect class="cls-8" x="260.87" y="68.34" width="6" height="48" rx="3"/><rect class="cls-18" x="272.87" y="222.34" width="6" height="48" rx="3"/></g></svg>