<svg xmlns="http://www.w3.org/2000/svg" width="500" height="800" viewBox="0 0 500 800"><defs><style>.cls-1{fill:#e8c8a6;}.cls-2{fill:#32446b;}.cls-3{fill:#af1b1b;}.cls-11,.cls-16,.cls-4{fill:none;}.cls-5{opacity:0.18;}.cls-6{fill:#353549;}.cls-7{fill:#383856;}.cls-8{fill:#e55838;}.cls-9{fill:#d3291c;}.cls-10{fill:#e0522b;}.cls-11{stroke:#353549;stroke-width:9px;}.cls-11,.cls-16{stroke-linecap:round;stroke-miterlimit:10;}.cls-12{fill:#4242a5;}.cls-13{fill:#222235;}.cls-14{fill:#27276b;}.cls-15{fill:#404047;}.cls-16{stroke:#6f6fb5;stroke-width:7px;}.cls-17{opacity:0.25;}.cls-18,.cls-21{fill:#fff;}.cls-18{opacity:0.33;}.cls-19{fill:#f4f2ed;}.cls-20{fill:#8e8a80;}</style></defs><g id="Layer_5" data-name="Layer 5"><path class="cls-1" d="M316.63,223.88v179c0,10.68-12.87,19.43-28.62,19.43s-28.63-8.75-28.63-19.43v-179c0-10.69,12.88-19.43,28.63-19.43a36.49,36.49,0,0,1,20.22,5.7C313.41,213.68,316.63,218.53,316.63,223.88Z"/><path class="cls-2" d="M316.63,233.06v77.28H259.38V233.06a28.63,28.63,0,0,1,57.25,0Z"/><rect class="cls-3" x="253.87" y="301.34" width="68" height="28"/><rect class="cls-4" x="258.87" y="329.34" width="58" height="15"/><rect class="cls-5" x="259.38" y="329.34" width="57.25" height="7"/><rect class="cls-1" x="224.01" y="275.41" width="49" height="170.44" rx="24.5" transform="translate(-177.2 257.78) rotate(-41.85)"/><rect x="324.87" y="291.78" width="108" height="164.9" rx="35.38"/><rect x="334.87" y="402.34" width="38" height="328"/><rect x="386.87" y="402.34" width="38" height="328"/><circle class="cls-6" cx="386.58" cy="294.23" r="108.29"/><rect class="cls-1" x="278.09" y="89.68" width="121.86" height="191.85" rx="60.93"/><circle class="cls-1" cx="338.78" cy="204.32" r="60.5"/><circle class="cls-7" cx="298.35" cy="164.53" r="7.02"/><circle class="cls-7" cx="347.82" cy="164.53" r="7.02"/><rect class="cls-8" x="313.13" y="147.17" width="23.98" height="49.47" rx="11.99"/><path class="cls-9" d="M278.09,59.74H254.87V80.1h0v31c0,10.91,9.9,19.88,22.21,20.34v0H301.3V80.1C301.3,68.9,290.85,59.74,278.09,59.74Z"/><path class="cls-8" d="M360.51,107.62v24.83H302.59c-12.3,0-22.41-10.59-22.94-23.75h0V82.79h57.92C350.17,82.79,360.51,94,360.51,107.62Z"/><path class="cls-9" d="M391.93,111v24.83H334c-12.3,0-22.42-10.59-22.94-23.75h0V86.13H369C381.59,86.13,391.93,97.31,391.93,111Z"/><path class="cls-10" d="M413.32,204.57v103.8c0,20.53-17.06,37.33-37.9,37.33H304.15c-20.84,0-37.9-16.8-37.9-37.33V204.57A37.08,37.08,0,0,1,279.8,176,61.66,61.66,0,0,0,382.89,168C400.19,171.41,413.32,186.55,413.32,204.57Z"/><path class="cls-9" d="M387.71,105.86H364.5v20.37h0v31c0,10.9,9.9,19.87,22.21,20.34v0h24.22V126.23C410.93,115,400.48,105.86,387.71,105.86Z"/><path class="cls-2" d="M422.25,123.33c20.36-48.46,7.4-100.12-28.95-115.39S311,19.57,290.63,68"/><rect class="cls-6" x="273.47" y="84" width="157.59" height="45.25" rx="17.61" transform="translate(68.8 -128.12) rotate(22.79)"/><rect class="cls-11" x="322.37" y="217.84" width="30" height="30" rx="15"/><path class="cls-1" d="M494.63,233.06V496.73a28.63,28.63,0,0,1-57.25,0V233.06a28.63,28.63,0,0,1,57.25,0Z"/><path class="cls-2" d="M494.63,231.52v78.82H436.24V231.52a29.2,29.2,0,0,1,58.39,0Z"/><rect class="cls-3" x="431.87" y="301.34" width="68" height="28"/><rect class="cls-5" x="437.38" y="329.34" width="57.25" height="7"/><rect class="cls-1" x="345.87" y="730.34" width="16" height="34"/><rect class="cls-1" x="397.87" y="730.34" width="16" height="34"/><rect x="345.87" y="764.34" width="16" height="16"/><rect x="397.87" y="764.34" width="16" height="16"/><path class="cls-12" d="M327.13,800.34a25.87,25.87,0,1,1,51.74,0"/><rect class="cls-13" x="335.04" y="751.34" width="21.13" height="40.78" rx="10.56"/><path class="cls-14" d="M293.65,800.34a33.18,33.18,0,0,1,66.35,0"/><path class="cls-12" d="M379.13,800.34a25.87,25.87,0,1,1,51.74,0"/><rect class="cls-13" x="387.04" y="751.34" width="21.13" height="40.78" rx="10.56"/><path class="cls-14" d="M345.65,800.34a33.18,33.18,0,0,1,66.35,0"/><rect class="cls-15" x="329.87" y="707.34" width="46" height="23"/><rect class="cls-15" x="382.87" y="707.34" width="46" height="23"/><path class="cls-16" d="M305.87,789.34c0-7.18,6.27-13,14-13"/><path class="cls-16" d="M357.87,789.34c0-7.18,6.27-13,14-13"/><rect class="cls-17" x="397.87" y="730.34" width="16" height="7"/><rect class="cls-17" x="345.87" y="730.34" width="16" height="7"/><rect class="cls-8" x="259.87" y="68.34" width="6" height="48" rx="3"/><rect class="cls-18" x="271.87" y="222.34" width="6" height="48" rx="3"/><rect class="cls-19" x="161.7" y="142.18" width="43.26" height="186.79" transform="translate(-108.96 174.99) rotate(-40.4)"/><rect class="cls-20" x="84.54" y="178.64" width="62.92" height="4.19" rx="1" transform="translate(-89.47 118.28) rotate(-40.4)"/><rect class="cls-20" x="90.92" y="186.13" width="62.92" height="4.19" rx="1" transform="translate(-92.81 124.19) rotate(-40.4)"/><rect class="cls-20" x="97.29" y="193.61" width="62.92" height="4.19" rx="1" transform="translate(-96.14 130.11) rotate(-40.4)"/><rect class="cls-20" x="103.66" y="201.1" width="62.92" height="4.19" rx="1" transform="translate(-99.47 136.02) rotate(-40.4)"/><rect class="cls-20" x="110.03" y="208.59" width="62.92" height="4.19" rx="1" transform="translate(-102.81 141.93) rotate(-40.4)"/><rect class="cls-20" x="116.4" y="216.07" width="62.92" height="4.19" rx="1" transform="matrix(0.76, -0.65, 0.65, 0.76, -106.14, 147.85)"/><rect class="cls-20" x="122.77" y="223.56" width="62.92" height="4.19" rx="1" transform="translate(-109.47 153.76) rotate(-40.4)"/><rect class="cls-20" x="129.14" y="231.05" width="62.92" height="4.19" rx="1" transform="translate(-112.81 159.68) rotate(-40.4)"/><rect class="cls-20" x="135.52" y="238.53" width="62.92" height="4.19" rx="1" transform="translate(-116.14 165.59) rotate(-40.4)"/><rect class="cls-20" x="141.89" y="246.02" width="62.92" height="4.19" rx="1" transform="translate(-119.47 171.51) rotate(-40.4)"/><rect class="cls-20" x="148.26" y="253.51" width="62.92" height="4.19" rx="1" transform="translate(-122.8 177.42) rotate(-40.4)"/><rect class="cls-20" x="154.63" y="260.99" width="62.92" height="4.19" rx="1" transform="translate(-126.14 183.34) rotate(-40.4)"/><rect class="cls-20" x="161" y="268.48" width="62.92" height="4.19" rx="1" transform="translate(-129.47 189.25) rotate(-40.4)"/><rect class="cls-20" x="167.37" y="275.97" width="62.92" height="4.19" rx="1" transform="translate(-132.8 195.16) rotate(-40.4)"/><rect class="cls-20" x="173.74" y="283.45" width="62.92" height="4.19" rx="1" transform="translate(-136.14 201.08) rotate(-40.4)"/><rect class="cls-20" x="180.12" y="290.94" width="62.92" height="4.19" rx="1" transform="translate(-139.47 206.99) rotate(-40.4)"/><rect class="cls-20" x="186.49" y="298.43" width="62.92" height="4.19" rx="1" transform="translate(-142.8 212.91) rotate(-40.4)"/><rect class="cls-20" x="192.86" y="305.91" width="62.92" height="4.19" rx="1" transform="translate(-146.13 218.82) rotate(-40.4)"/><rect class="cls-7" x="139.15" y="166.39" width="31.46" height="186.79" transform="translate(-131.44 162.32) rotate(-40.4)"/><rect class="cls-21" x="165.22" y="151.74" width="13.76" height="186.79" transform="translate(-117.84 169.99) rotate(-40.4)"/></g></svg>