<svg xmlns="http://www.w3.org/2000/svg" width="500" height="800" viewBox="0 0 500 800"><defs><style>.cls-1{fill:#e8c8a6;}.cls-2{fill:#32446b;}.cls-3{fill:#af1b1b;}.cls-11,.cls-20,.cls-4{fill:none;}.cls-5{opacity:0.18;}.cls-6{fill:#353549;}.cls-7{fill:#4242a5;}.cls-8{fill:#222235;}.cls-9{fill:#27276b;}.cls-10{fill:#404047;}.cls-11{stroke:#6f6fb5;stroke-width:7px;}.cls-11,.cls-20{stroke-linecap:round;stroke-miterlimit:10;}.cls-12{opacity:0.25;}.cls-13{fill:#e55838;}.cls-14{fill:#f4f2ed;}.cls-15{fill:#8e8a80;}.cls-16{fill:#383856;}.cls-17,.cls-21,.cls-22{fill:#fff;}.cls-18{fill:#d3291c;}.cls-19{fill:#e0522b;}.cls-20{stroke:#353549;stroke-width:11px;}.cls-21{opacity:0.48;}.cls-22{opacity:0.33;}</style></defs><g id="Layer_5" data-name="Layer 5"><path class="cls-1" d="M316.63,223.88v179c0,10.68-12.87,19.43-28.62,19.43s-28.63-8.75-28.63-19.43v-179c0-10.69,12.88-19.43,28.63-19.43a36.49,36.49,0,0,1,20.22,5.7C313.41,213.68,316.63,218.53,316.63,223.88Z"/><path class="cls-2" d="M316.63,233.06v77.28H259.38v-87c.49-11,12.88-18.89,28.63-18.89,7.87,0,18.67,3.71,23.86,8.89S316.63,225.19,316.63,233.06Z"/><rect class="cls-3" x="253.87" y="301.34" width="68" height="28"/><rect class="cls-4" x="258.87" y="329.34" width="58" height="15"/><rect class="cls-5" x="259.38" y="329.34" width="57.25" height="7"/><rect class="cls-1" x="215.01" y="359.41" width="49" height="170.44" rx="24.5" transform="translate(-47.19 860.39) rotate(-117.1)"/><rect x="324.87" y="291.78" width="108" height="164.9" rx="35.38"/><rect x="334.87" y="402.34" width="38" height="328"/><rect x="386.87" y="402.34" width="38" height="328"/><circle class="cls-6" cx="386.58" cy="294.23" r="108.29"/><path class="cls-1" d="M494.63,233.06V496.73a28.63,28.63,0,0,1-57.25,0V233.06a28.63,28.63,0,0,1,57.25,0Z"/><path class="cls-2" d="M494.63,231.52v78.82H436.24V231.52a29.2,29.2,0,0,1,58.39,0Z"/><rect class="cls-3" x="431.87" y="301.34" width="68" height="28"/><rect class="cls-5" x="437.38" y="329.34" width="57.25" height="7"/><rect class="cls-1" x="345.87" y="730.34" width="16" height="34"/><rect class="cls-1" x="397.87" y="730.34" width="16" height="34"/><rect x="345.87" y="764.34" width="16" height="16"/><rect x="397.87" y="764.34" width="16" height="16"/><path class="cls-7" d="M327.13,800.34a25.87,25.87,0,1,1,51.74,0"/><rect class="cls-8" x="335.04" y="751.34" width="21.13" height="40.78" rx="10.56"/><path class="cls-9" d="M293.65,800.34a33.18,33.18,0,0,1,66.35,0"/><path class="cls-7" d="M379.13,800.34a25.87,25.87,0,1,1,51.74,0"/><rect class="cls-8" x="387.04" y="751.34" width="21.13" height="40.78" rx="10.56"/><path class="cls-9" d="M345.65,800.34a33.18,33.18,0,0,1,66.35,0"/><rect class="cls-10" x="329.87" y="707.34" width="46" height="23"/><rect class="cls-10" x="382.87" y="707.34" width="46" height="23"/><path class="cls-11" d="M305.87,789.34c0-7.18,6.27-13,14-13"/><path class="cls-11" d="M357.87,789.34c0-7.18,6.27-13,14-13"/><rect class="cls-12" x="397.87" y="730.34" width="16" height="7"/><rect class="cls-12" x="345.87" y="730.34" width="16" height="7"/><rect class="cls-13" x="259.87" y="68.34" width="6" height="48" rx="3"/><rect class="cls-14" x="122.15" y="346.66" width="43.26" height="186.79" transform="translate(-290.78 599.67) rotate(-92.08)"/><rect class="cls-15" x="27.55" y="456.77" width="62.92" height="4.19" rx="1" transform="matrix(-0.04, -1, 1, -0.04, -397.42, 534.45)"/><rect class="cls-15" x="37.37" y="456.41" width="62.92" height="4.19" rx="1" transform="matrix(-0.04, -1, 1, -0.04, -386.88, 543.9)"/><rect class="cls-15" x="47.2" y="456.05" width="62.92" height="4.19" rx="1" transform="translate(-376.35 553.35) rotate(-92.08)"/><rect class="cls-15" x="57.02" y="455.7" width="62.92" height="4.19" rx="1" transform="matrix(-0.04, -1, 1, -0.04, -365.81, 562.8)"/><rect class="cls-15" x="66.85" y="455.34" width="62.92" height="4.19" rx="1" transform="translate(-355.27 572.25) rotate(-92.08)"/><rect class="cls-15" x="76.67" y="454.99" width="62.92" height="4.19" rx="1" transform="translate(-344.74 581.7) rotate(-92.08)"/><rect class="cls-15" x="86.5" y="454.63" width="62.92" height="4.19" rx="1" transform="translate(-334.2 591.15) rotate(-92.08)"/><rect class="cls-15" x="96.32" y="454.27" width="62.92" height="4.19" rx="1" transform="translate(-323.67 600.59) rotate(-92.08)"/><rect class="cls-15" x="106.14" y="453.92" width="62.92" height="4.19" rx="1" transform="translate(-313.13 610.04) rotate(-92.08)"/><rect class="cls-15" x="115.97" y="453.56" width="62.92" height="4.19" rx="1" transform="translate(-302.59 619.49) rotate(-92.08)"/><rect class="cls-15" x="125.79" y="453.21" width="62.92" height="4.19" rx="1" transform="matrix(-0.04, -1, 1, -0.04, -292.06, 628.94)"/><rect class="cls-15" x="135.62" y="452.85" width="62.92" height="4.19" rx="1" transform="translate(-281.52 638.39) rotate(-92.08)"/><rect class="cls-15" x="145.44" y="452.49" width="62.92" height="4.19" rx="1" transform="translate(-270.99 647.84) rotate(-92.08)"/><rect class="cls-15" x="155.27" y="452.14" width="62.92" height="4.19" rx="1" transform="translate(-260.45 657.29) rotate(-92.08)"/><rect class="cls-15" x="165.09" y="451.78" width="62.92" height="4.19" rx="1" transform="translate(-249.91 666.74) rotate(-92.08)"/><rect class="cls-15" x="174.92" y="451.43" width="62.92" height="4.19" rx="1" transform="translate(-239.38 676.19) rotate(-92.08)"/><rect class="cls-15" x="184.74" y="451.07" width="62.92" height="4.19" rx="1" transform="translate(-228.84 685.64) rotate(-92.08)"/><rect class="cls-15" x="194.57" y="450.71" width="62.92" height="4.19" rx="1" transform="translate(-218.31 695.09) rotate(-92.08)"/><rect class="cls-16" x="129.4" y="383.99" width="31.46" height="186.79" transform="translate(-326.68 639.71) rotate(-92.08)"/><rect class="cls-17" x="137.43" y="361.39" width="13.76" height="186.79" transform="translate(-304.95 615.48) rotate(-92.08)"/><rect class="cls-1" x="277.09" y="89.68" width="121.86" height="191.85" rx="60.93"/><circle class="cls-1" cx="337.78" cy="204.32" r="60.5"/><circle class="cls-16" cx="300.35" cy="157.53" r="7.02"/><circle class="cls-16" cx="349.82" cy="157.53" r="7.02"/><rect class="cls-13" x="312.13" y="147.17" width="23.98" height="49.47" rx="11.99"/><path class="cls-18" d="M277.09,59.74H253.87V80.1h0v31c0,10.91,9.9,19.88,22.21,20.34v0H300.3V80.1C300.3,68.9,289.85,59.74,277.09,59.74Z"/><path class="cls-13" d="M359.51,107.62v24.83H301.59c-12.3,0-22.41-10.59-22.94-23.75h0V82.79h57.92C349.17,82.79,359.51,94,359.51,107.62Z"/><path class="cls-18" d="M390.93,111v24.83H333c-12.3,0-22.42-10.59-22.94-23.75h0V86.13H368C380.59,86.13,390.93,97.31,390.93,111Z"/><path class="cls-19" d="M412.32,204.57v103.8c0,20.53-17.06,37.33-37.9,37.33H303.15c-20.84,0-37.9-16.8-37.9-37.33V204.57A37.08,37.08,0,0,1,278.8,176,61.66,61.66,0,0,0,381.89,168C399.19,171.41,412.32,186.55,412.32,204.57Z"/><path class="cls-18" d="M386.71,105.86H363.5v20.37h0v31c0,10.9,9.9,19.87,22.21,20.34v0h24.22V126.23C409.93,115,399.48,105.86,386.71,105.86Z"/><path class="cls-2" d="M421.25,123.33c20.36-48.46,7.4-100.12-28.95-115.39S310,19.57,289.63,68"/><rect class="cls-6" x="272.47" y="84" width="157.59" height="45.25" rx="17.61" transform="translate(68.72 -127.73) rotate(22.79)"/><path class="cls-20" d="M331.26,250.06a36.42,36.42,0,0,0,40.12-32.32"/><rect class="cls-21" x="270.87" y="223.34" width="6" height="48" rx="3"/><rect class="cls-22" x="258.87" y="65.34" width="6" height="48" rx="3"/></g></svg>