<svg xmlns="http://www.w3.org/2000/svg" width="110" height="65" viewBox="0 0 110 65"><defs><style>.cls-1{fill:#d8cd00;}.cls-2{fill:none;stroke-width:4px;}.cls-2,.cls-3{stroke:#000;stroke-miterlimit:10;}.cls-3{fill:red;}</style></defs><g id="Layer_9" data-name="Layer 9"><circle class="cls-1" cx="72.36" cy="32.84" r="23.89"/><path class="cls-2" d="M86.81,32.84a14.45,14.45,0,0,1-28.89,0"/><circle cx="64.31" cy="26.45" r="3.61"/><circle cx="80.42" cy="26.45" r="3.61"/><path class="cls-3" d="M21.74,29.83c.72,0,1.48,0,2.28.07,3.48.21,6.13.31,8,.31s3.21,0,4-.12S37.66,30,38,30c.89,0,1.34.37,1.34,1.1a6.17,6.17,0,0,1-.82,2.61,14.76,14.76,0,0,1-2.11,3,8.34,8.34,0,0,1-1.74,1.52,3.32,3.32,0,0,1-1.66.41c-.55,0-1.25,0-2.11-.12Q27,38.18,22,38.18q-2.1,0-3.87.09c-1,0-1.67.08-2.15.08-1.18,0-1.77-.38-1.77-1.15a6.56,6.56,0,0,1,1-2.56,13.69,13.69,0,0,1,2-2.79,8.08,8.08,0,0,1,2.09-1.57A6.27,6.27,0,0,1,21.74,29.83Z"/></g></svg>