<svg xmlns="http://www.w3.org/2000/svg" xmlns:xlink="http://www.w3.org/1999/xlink" width="212.42" height="233.97" viewBox="0 0 212.42 233.97"><defs><style>.cls-1{fill:#29abe2;}.cls-2{fill:aqua;}.cls-3{fill:url(#New_Gradient_Swatch_2);}.cls-4{fill:#fff;stroke:#7bfffb;stroke-linecap:round;stroke-miterlimit:10;stroke-width:8px;}</style><linearGradient id="New_Gradient_Swatch_2" x1="67.73" y1="13.3" x2="117.52" y2="161.13" gradientUnits="userSpaceOnUse"><stop offset="0" stop-color="#ff4e1f"/><stop offset="1" stop-color="#db3721"/></linearGradient></defs><g id="Layer_2" data-name="Layer 2"><g id="Layer_8" data-name="Layer 8"><path class="cls-1" d="M196.6,126.49a26.25,26.25,0,0,1-13.2,21L39.87,230.37A26.58,26.58,0,0,1,0,207.35V41.62A26.28,26.28,0,0,1,4.75,26.4a26.76,26.76,0,0,1,10.66-8.89A26.25,26.25,0,0,1,39.87,18.6L183.4,101.47A26.35,26.35,0,0,1,196.6,126.49Z"/><path class="cls-2" d="M207.6,114.49a26.25,26.25,0,0,1-13.2,21L50.87,218.37a26.58,26.58,0,0,1-39.87-23V29.62A26.28,26.28,0,0,1,15.75,14.4,26.76,26.76,0,0,1,26.41,5.51,26.25,26.25,0,0,1,50.87,6.6L194.4,89.47A26.35,26.35,0,0,1,207.6,114.49Z"/><path class="cls-3" d="M200.4,131.73c-.41.26-.83.52-1.26.77l-2.28,1.32L55.61,215.37a26.58,26.58,0,0,1-39.87-23V26.62a26.46,26.46,0,0,1,2-10.22,24.92,24.92,0,0,1,3.4-5.89A26.58,26.58,0,0,1,55.61,3.6L199.14,86.47A26.58,26.58,0,0,1,200.4,131.73Z"/><line class="cls-4" x1="55" y1="20.03" x2="176" y2="89.03"/></g></g></svg>