<svg xmlns="http://www.w3.org/2000/svg" width="110" height="65" viewBox="0 0 110 65"><defs><style>.cls-1{fill:aqua;stroke:#000;stroke-miterlimit:10;}</style></defs><g id="Layer_6" data-name="Layer 6"><path class="cls-1" d="M16.24,36.26H14.86c-2.27,0-4.15.06-5.64.17l-.62,0a1.35,1.35,0,0,1-.92-.33,1,1,0,0,1-.39-.78,9.9,9.9,0,0,1,.61-2.22,17.3,17.3,0,0,1,1-2.51,2.16,2.16,0,0,1,1.87-1.3,7.61,7.61,0,0,1,.85.06c2,.19,3.29.27,3.88.25h.76a1.32,1.32,0,0,0,1.5-1.53V26.26a30.89,30.89,0,0,0-.34-3.91,2.74,2.74,0,0,1-.06-.59c0-.68.59-1.28,1.76-1.81a25.29,25.29,0,0,1,2.49-.87,8.78,8.78,0,0,1,2-.41c.78,0,1.16.37,1.16,1.11a5.67,5.67,0,0,1-.08.71c0,.28-.06,1.18-.06,2.69V28.1a1.4,1.4,0,0,0,1.56,1.53h4.39c1.49,0,2.38,0,2.66-.05a7.19,7.19,0,0,1,.74-.09,1,1,0,0,1,1.1,1.13,9,9,0,0,1-.48,2.2,13.92,13.92,0,0,1-1,2.51c-.45.88-1,1.33-1.61,1.33l-4.51-.4h-1.3q-1.66-.12-1.56,1.56v.45A46.56,46.56,0,0,0,25,42.92c0,.33.05.62.05.84,0,.84-.57,1.52-1.72,2.07a22.8,22.8,0,0,1-2.54.94,9.76,9.76,0,0,1-2,.51,1,1,0,0,1-.83-.39A1.38,1.38,0,0,1,17.6,46q0-.26,0-.6c.11-1.49.17-3.37.17-5.64V37.82Q17.89,36.17,16.24,36.26Z"/><path class="cls-1" d="M43.35,44c.26,0,.88.07,1.87.2a7.55,7.55,0,0,0,1.07.11c1.61,0,2.53-1.26,2.78-3.79q.2-2.16.2-12.24a2.84,2.84,0,0,0-.63-2.12,3.26,3.26,0,0,0-2.26-.6,10,10,0,0,0-1.14.09,9.09,9.09,0,0,1-1,0,2.28,2.28,0,0,1-1.56-.52,1.76,1.76,0,0,1-.59-1.37A2.53,2.53,0,0,1,43,22a7.73,7.73,0,0,1,2.52-1.57,43.11,43.11,0,0,1,17-3.4,8.18,8.18,0,0,1,3.58.58,2,2,0,0,1,1.12,1.85,1.67,1.67,0,0,1-.37,1.15,4.47,4.47,0,0,1-1.47.89c-1.17.51-1.84,1.14-2,1.87A77.06,77.06,0,0,0,63,32q.22,7.59.25,8.13a11.35,11.35,0,0,0,.23,1.5,3.09,3.09,0,0,0,1.27,2.07,7.58,7.58,0,0,0,3.29.68c1.77.07,2.66.8,2.66,2.18S69.48,49,67,49.4a61.55,61.55,0,0,1-10.77.93,53.17,53.17,0,0,1-6.85-.42,31.89,31.89,0,0,1-6.29-1.39c-1.45-.53-2.18-1.32-2.18-2.38a1.92,1.92,0,0,1,.71-1.47A2.71,2.71,0,0,1,43.35,44Z"/><path class="cls-1" d="M88.18,16.86a15.74,15.74,0,0,1,7.47,1.9,16.2,16.2,0,0,1,7.28,7.59,17.74,17.74,0,0,1,1.79,7.84,16,16,0,0,1-16,16.12,15.13,15.13,0,0,1-10.7-4.11q-5.25-4.85-5.24-12.94,0-7.91,4.78-12.41A14.8,14.8,0,0,1,88.18,16.86Zm-.65,8.44q-2.64,0-2.64,4.47a24.15,24.15,0,0,0,2.24,10.54,2.64,2.64,0,0,0,2.35,1.81q2.58,0,2.58-4.56a29.15,29.15,0,0,0-.56-5.45,19.55,19.55,0,0,0-1.4-4.71A3.05,3.05,0,0,0,87.53,25.3Z"/></g></svg>