<svg xmlns="http://www.w3.org/2000/svg" width="110" height="65" viewBox="0 0 110 65"><defs><style>.cls-1{fill:#ff0;}.cls-2{fill:none;stroke-width:4px;}.cls-2,.cls-3{stroke:#000;stroke-miterlimit:10;}.cls-3{fill:aqua;}</style></defs><g id="Layer_9" data-name="Layer 9"><circle class="cls-1" cx="75.69" cy="30.11" r="23.89"/><path class="cls-2" d="M90.14,30.11a14.45,14.45,0,0,1-28.89,0"/><circle cx="67.64" cy="23.72" r="3.61"/><circle cx="83.75" cy="23.72" r="3.61"/><path class="cls-3" d="M23.35,36.26H22c-2.26,0-4.14.06-5.63.17l-.62,0a1.35,1.35,0,0,1-.92-.33,1,1,0,0,1-.39-.78A9.9,9.9,0,0,1,15,33.13a17.3,17.3,0,0,1,1-2.51,2.16,2.16,0,0,1,1.87-1.3,7.61,7.61,0,0,1,.85.06c2,.19,3.29.27,3.87.25h.77a1.32,1.32,0,0,0,1.5-1.53V26.26a30.89,30.89,0,0,0-.34-3.91,2.74,2.74,0,0,1-.06-.59c0-.68.59-1.28,1.76-1.81a25.29,25.29,0,0,1,2.49-.87,8.78,8.78,0,0,1,2-.41c.78,0,1.16.37,1.16,1.11a5.41,5.41,0,0,1-.08.7c0,.29-.06,1.18-.06,2.7V28.1a1.4,1.4,0,0,0,1.56,1.53h4.39c1.49,0,2.38,0,2.66-.05a7.19,7.19,0,0,1,.74-.09,1,1,0,0,1,1.1,1.13,9,9,0,0,1-.48,2.2,13.49,13.49,0,0,1-1,2.5c-.45.89-1,1.34-1.61,1.34l-4.51-.4h-1.3q-1.66-.12-1.56,1.56v.45a46.38,46.38,0,0,0,.29,4.64c0,.34.05.63.05.85,0,.84-.57,1.52-1.73,2.07a23.82,23.82,0,0,1-2.53.94,9.76,9.76,0,0,1-2,.51,1,1,0,0,1-.83-.39,1.39,1.39,0,0,1-.33-1c0-.17,0-.36,0-.59.11-1.49.17-3.37.17-5.64V37.82Q25,36.17,23.35,36.26Z"/></g></svg>