<svg xmlns="http://www.w3.org/2000/svg" width="110" height="65" viewBox="0 0 110 65"><defs><style>.cls-1{fill:aqua;stroke:#000;stroke-miterlimit:10;}</style></defs><g id="Layer_6" data-name="Layer 6"><path class="cls-1" d="M15.28,36.25H13.89c-2.26,0-4.14.06-5.63.17l-.62,0a1.39,1.39,0,0,1-.92-.32,1,1,0,0,1-.38-.78A9.35,9.35,0,0,1,7,33.13a17.29,17.29,0,0,1,1-2.5,2.15,2.15,0,0,1,1.87-1.31,7.46,7.46,0,0,1,.84.06c2,.19,3.29.27,3.88.26h.76a1.32,1.32,0,0,0,1.5-1.53V26.27a30.59,30.59,0,0,0-.34-3.9,2.92,2.92,0,0,1,0-.6c0-.68.58-1.28,1.75-1.81a22.3,22.3,0,0,1,2.49-.86,8.58,8.58,0,0,1,2-.41c.77,0,1.16.37,1.16,1.1a6.4,6.4,0,0,1-.09.71c0,.28-.06,1.18-.06,2.69v4.92a1.4,1.4,0,0,0,1.56,1.53h4.38c1.49,0,2.38,0,2.66-.06a7.19,7.19,0,0,1,.74-.09,1,1,0,0,1,1.1,1.14,9.07,9.07,0,0,1-.48,2.19,13.79,13.79,0,0,1-1,2.5c-.45.89-1,1.33-1.61,1.33l-4.5-.4h-1.3q-1.67-.11-1.56,1.56v.45A46.21,46.21,0,0,0,24,42.9c0,.34.05.62.05.85,0,.83-.57,1.52-1.72,2.06a22.52,22.52,0,0,1-2.53.94,9.76,9.76,0,0,1-2,.51,1,1,0,0,1-.83-.39,1.38,1.38,0,0,1-.33-.94q0-.26,0-.6c.11-1.49.17-3.36.17-5.63V37.81C16.89,36.72,16.37,36.2,15.28,36.25Z"/><path class="cls-1" d="M59.94,49.52H40.67c-1.69,0-2.54-.48-2.54-1.44a2.11,2.11,0,0,1,.54-1.38q.53-.63,3.48-3.4a46.25,46.25,0,0,0,8.08-9.59,7.9,7.9,0,0,0,1.36-3.9,3,3,0,0,0-.82-2.25,2.94,2.94,0,0,0-2.2-.84,4.32,4.32,0,0,0-2,.36,22.62,22.62,0,0,0-3,2.3,2.51,2.51,0,0,1-1.64.51,3.54,3.54,0,0,1-2.45-1,3.06,3.06,0,0,1-1.12-2.25,4.4,4.4,0,0,1,1-2.5,12.55,12.55,0,0,1,2.69-2.65,22.72,22.72,0,0,1,13.55-4.38A18.16,18.16,0,0,1,65,19.26a7.71,7.71,0,0,1,3.7,6.5q0,4.95-6.84,10.75c-1.62,1.36-2.43,2.37-2.43,3.05a1.64,1.64,0,0,0,.73,1.35,2.94,2.94,0,0,0,1.78.55,6.13,6.13,0,0,0,4.44-1.93,9.85,9.85,0,0,1,1.32-1.15,1.63,1.63,0,0,1,.89-.2q2.49,0,2.49,4.24a12.29,12.29,0,0,1-.81,4.3,11.82,11.82,0,0,1-2.19,3.76,4.25,4.25,0,0,1-3.22,1.7,2,2,0,0,1-1.14-.3,4.26,4.26,0,0,1-1-1.12,2.65,2.65,0,0,0-1-1A4.75,4.75,0,0,0,59.94,49.52Z"/><path class="cls-1" d="M89.15,16.88a15.87,15.87,0,0,1,7.47,1.89,16.25,16.25,0,0,1,7.27,7.58,17.76,17.76,0,0,1,1.78,7.84A16,16,0,0,1,89.75,50.28a15.14,15.14,0,0,1-10.7-4.1q-5.22-4.83-5.23-12.92,0-7.89,4.78-12.39A14.75,14.75,0,0,1,89.15,16.88Zm-.65,8.43q-2.62,0-2.63,4.47A24.06,24.06,0,0,0,88.11,40.3a2.63,2.63,0,0,0,2.34,1.81q2.58,0,2.58-4.55a29.06,29.06,0,0,0-.56-5.45,20.2,20.2,0,0,0-1.39-4.71A3.06,3.06,0,0,0,88.5,25.31Z"/></g></svg>