<svg xmlns="http://www.w3.org/2000/svg" width="130.17" height="109.17" viewBox="0 0 130.17 109.17"><defs><style>.cls-1{fill:#b27044;}.cls-2{fill:#e8b17e;}.cls-3{fill:#39b54a;}.cls-4{fill:#f7931e;}.cls-5{fill:#e57693;stroke:#f15a24;}.cls-5,.cls-6{stroke-linecap:round;stroke-miterlimit:10;stroke-width:4px;}.cls-6{fill:none;stroke:#603813;}</style></defs><g id="Layer_2" data-name="Layer 2"><g id="Layer_6" data-name="Layer 6"><polygon class="cls-1" points="41.16 93.18 0 19.7 69.55 33.74 115.56 97.96 41.16 93.18"/><rect class="cls-1" x="-0.24" y="16.76" width="22.97" height="10.6" rx="3.32" transform="translate(14.46 -2.49) rotate(34.47)"/><rect class="cls-1" x="99.06" y="82.79" width="22.97" height="10.6" rx="3.32" transform="translate(69.27 -47.1) rotate(34.47)"/><polygon class="cls-2" points="46.91 84.24 6.23 12.19 75.3 25.78 120.83 88.72 46.91 84.24"/><path class="cls-3" d="M117.12,84.68c6.42-23.49-1-48-29.45-67.53S6.75,1.62,14.07,13.93-7,55.27,13.44,59,26.51,77.9,43.52,81.45c30.84,6.45,56.37,27.79,61,15.18S114.8,93.16,117.12,84.68Z"/><path class="cls-4" d="M118.69,50.58,42.23,2.94S-9.81,59.16,3.69,54.6s81,45.45,86.2,53.84S118.69,50.58,118.69,50.58Z"/><ellipse class="cls-5" cx="55.22" cy="47.64" rx="29.5" ry="46" transform="translate(-15.31 66.19) rotate(-55.53)"/><ellipse class="cls-5" cx="72.32" cy="54.53" rx="29.5" ry="46" transform="translate(-13.57 83.28) rotate(-55.53)"/><polygon class="cls-1" points="49.73 80.87 8.63 7.5 78.08 21.53 124.02 85.65 49.73 80.87"/><rect class="cls-1" x="8.39" y="4.56" width="22.93" height="10.58" rx="3.32" transform="translate(9.06 -9.51) rotate(34.47)"/><rect class="cls-1" x="107.55" y="70.5" width="22.93" height="10.58" rx="3.32" transform="translate(63.8 -54.05) rotate(34.47)"/><polygon class="cls-2" points="55.48 71.94 14.85 0 83.82 13.58 129.28 76.42 55.48 71.94"/><line class="cls-6" x1="33.79" y1="11.7" x2="63.34" y2="62.31"/><line class="cls-6" x1="47.34" y1="14.94" x2="75.28" y2="60.81"/><line class="cls-6" x1="60.89" y1="18.17" x2="88.01" y2="63.48"/><line class="cls-6" x1="73.35" y1="19.45" x2="101.86" y2="64.5"/></g></g></svg>