<svg xmlns="http://www.w3.org/2000/svg" width="1920" height="1080" viewBox="0 0 1920 1080"><defs><style>.cls-1{opacity:0.25;}.cls-2{fill:#0071bc;stroke:#fff;}.cls-2,.cls-4{stroke-miterlimit:10;stroke-width:6px;}.cls-3{fill:#fff;}.cls-4{fill:#252951;stroke:aqua;}.cls-5{fill:aqua;}</style></defs><g id="Layer_9" data-name="Layer 9"><rect class="cls-1" width="1920" height="1080"/><rect class="cls-2" x="412.24" y="118" width="1136.9" height="844" rx="24.65"/><path class="cls-3" d="M704.14,258.29a2,2,0,0,1-1.08.31,9.65,9.65,0,0,1-1.5-.06l-1.52-.19a4.59,4.59,0,0,0-1.15,0,14.18,14.18,0,0,0-1.89.08c-.84.07-1.79.18-2.85.32s-2.15.32-3.28.52-2.2.41-3.18.64-1.82.46-2.52.7a3.55,3.55,0,0,0-1.34.67,5.89,5.89,0,0,0-.38,1c-.18.58-.37,1.32-.58,2.22s-.42,1.93-.62,3.09-.4,2.35-.56,3.6-.29,2.51-.38,3.78a29.53,29.53,0,0,0-.06,3.62q2-.63,4-1.08l4.41-1a19.75,19.75,0,0,0,2.38-.66l2.54-.86c.84-.28,1.64-.52,2.39-.73a7.57,7.57,0,0,1,2-.31,4.56,4.56,0,0,1,1.27.15,2.13,2.13,0,0,1,.86.49,2.37,2.37,0,0,1,.53.84,7.93,7.93,0,0,1,.37,1.23.87.87,0,0,1-.14.52,4.23,4.23,0,0,1-.44.62c-.18.22-.36.42-.54.61a6.14,6.14,0,0,0-.41.47,2.89,2.89,0,0,1-1.12.64,14.23,14.23,0,0,1-1.71.51c-.61.15-1.2.27-1.78.38s-1,.18-1.29.25l-3,.64c-1,.21-2.08.44-3.09.68l-2.89.7c-.92.23-1.73.46-2.45.69a15.08,15.08,0,0,0-1.75.66,1.49,1.49,0,0,0-.78.59,6.64,6.64,0,0,0-.36,1.45c-.1.59-.18,1.25-.25,2s-.1,1.48-.12,2.27,0,1.57,0,2.34,0,1.5,0,2.21,0,1.32.05,1.84c0,.71,0,1.4,0,2.06a8.11,8.11,0,0,1-.16,2,2,2,0,0,1-.69,1.06,2.32,2.32,0,0,1-1.58.28,5.62,5.62,0,0,1-.65-.24,4,4,0,0,1-1.06-.65,4.9,4.9,0,0,1-1-1.12,2.89,2.89,0,0,1-.44-1.64,64.62,64.62,0,0,1,.32-7.13q.36-3.36.72-6.66.28-2.65.66-5.52c.24-1.92.49-3.84.75-5.78s.51-3.85.78-5.75.51-3.74.74-5.51a4.29,4.29,0,0,0,0-1c-.06-.34-.14-.69-.23-1s-.19-.69-.3-1a9.82,9.82,0,0,1-.24-1,1.77,1.77,0,0,1,.2-1,4.57,4.57,0,0,1,.65-1,4.14,4.14,0,0,1,.85-.74A1.37,1.37,0,0,1,680,255a9.15,9.15,0,0,1,1,.16l.89.15.85.11a8.76,8.76,0,0,0,.91,0,12.44,12.44,0,0,0,1.89-.16c.7-.1,1.44-.23,2.21-.39s1.54-.32,2.32-.5l2.2-.48c2.1-.42,4-.76,5.78-1a31.08,31.08,0,0,1,4.85-.42,2.59,2.59,0,0,1,.84.19,6.75,6.75,0,0,1,1,.47,3.89,3.89,0,0,1,.83.64,1.18,1.18,0,0,1,.39.73,4.73,4.73,0,0,1-.3,1.86A4.29,4.29,0,0,1,704.14,258.29Z"/><path class="cls-3" d="M746.9,271.8a2.53,2.53,0,0,1-.34,1.15,7.4,7.4,0,0,1-.88,1.26,11.93,11.93,0,0,1-1.22,1.25c-.46.41-.91.78-1.36,1.12s-.89.65-1.29.91-.75.45-1,.58a9.16,9.16,0,0,1-1.94.6c-.81.18-1.64.33-2.51.46s-1.72.22-2.55.29-1.53.11-2.1.11a5.08,5.08,0,0,1-.94-.12c-.39-.08-.8-.19-1.22-.31a11.41,11.41,0,0,1-1.17-.43,2.46,2.46,0,0,1-.81-.48c.17.79.32,1.59.45,2.39a15.47,15.47,0,0,1,.2,2.48,8.52,8.52,0,0,1-.13,1.37,16.49,16.49,0,0,1-.34,1.64c-.14.55-.3,1.08-.47,1.59a7.84,7.84,0,0,1-.53,1.26,27.06,27.06,0,0,1-1.52,2.5,14,14,0,0,1-1.76,2.07,15.91,15.91,0,0,1-2.2,1.8,22.52,22.52,0,0,1-2.8,1.62,14.32,14.32,0,0,1-3.42,1.14,18.78,18.78,0,0,1-3.56.33,3.18,3.18,0,0,1-2.07-.75,6,6,0,0,1-1.53-2,11.78,11.78,0,0,1-1-2.92,17.66,17.66,0,0,1-.33-3.46c0-.32,0-.7.07-1.16s.12-.92.2-1.4.18-.94.27-1.38.19-.81.29-1.12a26.74,26.74,0,0,1,1.13-3,37.05,37.05,0,0,1,1.73-3.45,36.67,36.67,0,0,1,2.21-3.46,24.49,24.49,0,0,1,2.55-3,12.92,12.92,0,0,1,2.78-2.15,5.89,5.89,0,0,1,2.89-.81,1.56,1.56,0,0,1,.78.16,1.68,1.68,0,0,1,.51.4,4.8,4.8,0,0,1,.39.53,4,4,0,0,0,.39.56.28.28,0,0,0,.26.16,1.81,1.81,0,0,0,.57-.12,2,2,0,0,1,.76-.13,2.2,2.2,0,0,1,1.33.76c.53.51,1.09,1.08,1.66,1.69s1.16,1.18,1.73,1.68a2.53,2.53,0,0,0,1.55.77l1.64,0c.59,0,1.18-.06,1.79-.11s1.2-.12,1.79-.2,1.12-.18,1.61-.29l.94-.28,1.71-.51,2.07-.64,2-.64,1.55-.48a5.7,5.7,0,0,1,.66-.19.54.54,0,0,1,.31.09A.39.39,0,0,1,746.9,271.8Zm-22.12,5a3.22,3.22,0,0,0-.67-1.22,6.69,6.69,0,0,0-1.13-1.06,6.46,6.46,0,0,0-1.35-.76,3.43,3.43,0,0,0-1.33-.3,2.6,2.6,0,0,0-1,.19,4.71,4.71,0,0,0-.95.48,8.31,8.31,0,0,0-.9.66l-.79.67a11,11,0,0,0-2.11,2.88,27.46,27.46,0,0,0-1.76,4,36.19,36.19,0,0,0-1.21,4.25,18.21,18.21,0,0,0-.45,3.68,4.21,4.21,0,0,0,.21,1.33,3.46,3.46,0,0,0,.61,1.12,3,3,0,0,0,.94.78,2.39,2.39,0,0,0,1.19.3,7.39,7.39,0,0,0,3.15-.67,9.36,9.36,0,0,0,2.62-1.84,12.52,12.52,0,0,0,2.08-2.79,19.19,19.19,0,0,0,1.53-3.51,23.84,23.84,0,0,0,.95-4A29.65,29.65,0,0,0,724.78,276.79Z"/><path class="cls-3" d="M769.19,273.17a2.46,2.46,0,0,1-.46,1.51,1.33,1.33,0,0,1-1.1.61,2.8,2.8,0,0,1-1.58-.37,6.08,6.08,0,0,1-1-.82c-.28-.29-.57-.56-.86-.81a1.84,1.84,0,0,0-1.23-.37,3,3,0,0,0-1.54.5,10.6,10.6,0,0,0-1.67,1.29,19.71,19.71,0,0,0-1.69,1.8c-.55.66-1.09,1.34-1.6,2-.36.47-.75,1-1.18,1.7s-.84,1.34-1.26,2.05-.8,1.44-1.16,2.16a18.43,18.43,0,0,0-.88,2c-.17.48-.36,1-.57,1.54s-.41,1.13-.61,1.72-.37,1.2-.53,1.82-.29,1.24-.39,1.84c-.11.88-.22,1.69-.32,2.44s-.23,1.4-.37,2a3.84,3.84,0,0,1-.55,1.31,1,1,0,0,1-.88.47,3.37,3.37,0,0,1-1.63-.34,2.65,2.65,0,0,1-1-.92,4,4,0,0,1-.53-1.33,12.75,12.75,0,0,1-.21-1.56c0-.87-.12-1.7-.18-2.49s-.14-1.59-.2-2.41-.12-1.67-.16-2.59-.05-1.95-.05-3.11,0-2.32.11-3.65.16-2.61.27-3.84.22-2.32.34-3.26a12.76,12.76,0,0,1,.33-1.89,8.71,8.71,0,0,1,.65-1.51,8,8,0,0,1,.86-1.31,4.41,4.41,0,0,1,1-.92,1.72,1.72,0,0,1,.94-.35,2.9,2.9,0,0,1,.75.11,1.86,1.86,0,0,1,.68.39,2,2,0,0,1,.48.75,3.23,3.23,0,0,1,.19,1.16,8.12,8.12,0,0,1-.27,1.23c-.18.65-.39,1.41-.61,2.26s-.45,1.75-.67,2.68a21.42,21.42,0,0,0-.44,2.47q0,.21,0,.84c0,.42,0,.9-.06,1.45s0,1.14,0,1.76,0,1.22,0,1.78c0,.4,0,.75,0,1.06s0,.57,0,.78c.17-.35.37-.84.61-1.45s.51-1.29.82-2,.64-1.48,1-2.24a22.61,22.61,0,0,1,1.12-2.14c.42-.71.88-1.48,1.4-2.31s1.09-1.66,1.69-2.49,1.25-1.65,1.94-2.44a17.63,17.63,0,0,1,2.16-2.09,11.16,11.16,0,0,1,2.34-1.45,6.07,6.07,0,0,1,2.49-.54,5.45,5.45,0,0,1,2.37.48,5,5,0,0,1,1.68,1.28,5.11,5.11,0,0,1,1,1.79A6.63,6.63,0,0,1,769.19,273.17Z"/><path class="cls-3" d="M826.1,263.4c.2,0,.38.14.53.41a1.47,1.47,0,0,1,.23.75,3.2,3.2,0,0,1-.41,1.39,8.05,8.05,0,0,1-1.12,1.6,12.72,12.72,0,0,1-1.67,1.58,11.64,11.64,0,0,1-2,1.29c-1,.5-2.2,1-3.46,1.44s-2.61.86-4,1.22-2.87.66-4.39.92-3,.45-4.58.57q-.15,0-.3.6c-.1.39-.21.89-.33,1.49s-.22,1.28-.32,2-.2,1.46-.3,2.16-.18,1.32-.25,1.88-.14,1-.17,1.22c-.17,1.12-.32,2.12-.44,3s-.23,1.68-.32,2.43-.15,1.5-.21,2.2-.09,1.46-.11,2.25c0,.44,0,.83,0,1.17s0,.68,0,1,0,.68,0,1,0,.73-.07,1.17a1.22,1.22,0,0,1-.35.53,7.11,7.11,0,0,1-.75.67c-.29.22-.57.41-.84.58a1.51,1.51,0,0,1-.58.25,1.49,1.49,0,0,1-1.16-.52,3.67,3.67,0,0,1-.71-1.17,5.29,5.29,0,0,1-.34-1.28,7,7,0,0,1-.09-.84,38.33,38.33,0,0,1,.31-4.87c.21-1.56.46-3.14.76-4.76s.59-3.28.9-5,.58-3.63.81-5.69a1.15,1.15,0,0,0-.69-.72,3.14,3.14,0,0,0-1-.15h-.33l-.3,0-.73,0-1.42.1-1.75.12c-.61.05-1.19.1-1.73.13l-1.4.09-.74.05a1.57,1.57,0,0,1-.89-.31,4.2,4.2,0,0,1-.78-.74,4.08,4.08,0,0,1-.55-.87,1.94,1.94,0,0,1-.22-.77A2.52,2.52,0,0,1,788,272a2.18,2.18,0,0,1,.54-.74,2.4,2.4,0,0,1,.73-.42,2.65,2.65,0,0,1,.81-.14l1.25,0,1.81-.08c.67,0,1.36-.06,2.07-.11s1.39-.09,2-.15,1.17-.13,1.64-.19a5,5,0,0,0,1-.19,2.82,2.82,0,0,0,1.25-1.37A12.91,12.91,0,0,0,802.3,265c.08-.36.18-.86.29-1.5s.23-1.36.37-2.15.26-1.61.39-2.45.26-1.65.37-2.41.21-1.43.27-2,.11-1,.13-1.33a1.77,1.77,0,0,1,.3-.9,5.26,5.26,0,0,1,.69-.92,5.67,5.67,0,0,1,.8-.71,1.29,1.29,0,0,1,.59-.28,1.33,1.33,0,0,1,.82.31,3.51,3.51,0,0,1,.7.74,4.28,4.28,0,0,1,.47.86,2.13,2.13,0,0,1,.17.65c0,.11,0,.34-.07.7s-.11.81-.19,1.33-.16,1.08-.27,1.68-.2,1.18-.28,1.72l-.24,1.45c-.08.43-.13.72-.17.89-.27,1.27-.49,2.32-.67,3.15s-.32,1.53-.42,2.09-.18,1-.23,1.36a6.36,6.36,0,0,0-.07.92,1.83,1.83,0,0,0,.17,1,.72.72,0,0,0,.57.28l.9-.1c.53-.06,1.21-.15,2-.28s1.73-.28,2.74-.47,2-.4,3-.64,2-.5,3-.79a15.33,15.33,0,0,0,2.47-1c.68-.35,1.31-.7,1.88-1s1.09-.63,1.53-.9.82-.49,1.11-.64A1.55,1.55,0,0,1,826.1,263.4Z"/><path class="cls-3" d="M871.07,275.13a5,5,0,0,1-.85,2.06c-.23.38-.5.8-.82,1.27s-.66.93-1,1.38-.68.9-1,1.32-.64.76-.91,1.06c-1.11,1.22-2.27,2.48-3.48,3.76a42.62,42.62,0,0,1-3.77,3.51,22,22,0,0,1-4.05,2.62,10.28,10.28,0,0,1-4.29,1.09,5,5,0,0,1-4.79-3,19.21,19.21,0,0,1-1.24-3.57,32.1,32.1,0,0,1-.78-5.1c-.07-.92-.16-1.76-.25-2.53a15,15,0,0,0-.37-2,3.25,3.25,0,0,0-.61-1.28,1.26,1.26,0,0,0-1-.45,2.58,2.58,0,0,0-1.3.53,12.08,12.08,0,0,0-1.76,1.47,24.41,24.41,0,0,0-2,2.23q-1.05,1.29-2.07,2.82c-.42.62-.92,1.4-1.52,2.34l-1.89,3-2,3.23c-.68,1.1-1.29,2.11-1.86,3.05a10.48,10.48,0,0,1-.71.9c-.36.42-.75.84-1.18,1.26a12.08,12.08,0,0,1-1.23,1.11,1.79,1.79,0,0,1-.94.47,5.78,5.78,0,0,1-1.1-.11,2.76,2.76,0,0,1-.95-.36,2.05,2.05,0,0,1-.67-.64,1.76,1.76,0,0,1-.25-1,9,9,0,0,1,.11-1.23c.07-.55.16-1.14.25-1.75s.2-1.21.32-1.78.2-1,.28-1.36c.26-1.68.54-3.41.82-5.19s.57-3.56.85-5.35.56-3.57.83-5.34.5-3.48.7-5.14c.06-.5.14-1.13.23-1.89s.19-1.58.28-2.47.2-1.8.3-2.76.21-1.88.31-2.79.2-1.73.27-2.49.15-1.4.2-1.92a11.15,11.15,0,0,1,.34-1.66,10,10,0,0,1,.64-1.67,6.14,6.14,0,0,1,.85-1.29,1.31,1.31,0,0,1,.95-.53,2.5,2.5,0,0,1,1,.22,2.69,2.69,0,0,1,1,.68,3.88,3.88,0,0,1,.74,1.21,4.59,4.59,0,0,1,.3,1.76,34.59,34.59,0,0,1-.37,5c-.25,1.69-.54,3.36-.89,5s-.73,3.23-1.12,4.76-.74,3-1,4.32c-.08.36-.2.91-.36,1.66s-.33,1.61-.52,2.6-.39,2.05-.6,3.18-.4,2.25-.58,3.34-.33,2.13-.45,3.1-.21,1.8-.24,2.47a.82.82,0,0,0,.18.44c.12.16.23.25.33.25h.11q1.22-2.25,2.54-4.43t2.62-4.17q1.31-2,2.57-3.7c.84-1.14,1.64-2.14,2.39-3a17.26,17.26,0,0,1,4-3.4,7.36,7.36,0,0,1,3.73-1.25,1.33,1.33,0,0,1,.61.22,5.82,5.82,0,0,1,.79.56,5.39,5.39,0,0,1,.75.76,2.66,2.66,0,0,1,.48.86,21,21,0,0,1,.84,3.37c.18,1.13.33,2.31.44,3.56s.25,2.41.41,3.54a24.12,24.12,0,0,0,.61,3A7.46,7.46,0,0,0,850,287a1.55,1.55,0,0,0,1.3.79,8.18,8.18,0,0,0,3.11-.65,18.55,18.55,0,0,0,3.09-1.66,26.54,26.54,0,0,0,2.86-2.17c.9-.77,1.71-1.51,2.43-2.19l2.11-2c.76-.73,1.6-1.57,2.51-2.51,1.85-1.85,2.92-2.77,3.2-2.77S871.07,274.28,871.07,275.13Z"/><path class="cls-3" d="M897.41,279a4.07,4.07,0,0,1-.52,1.78,21.46,21.46,0,0,1-1.51,2.54c-.63.95-1.37,2-2.21,3.05s-1.72,2.16-2.65,3.24q-1.59,1.88-3.36,3.6t-3.78,3.36q-4,3.24-7.09,3.24a6.26,6.26,0,0,1-5.33-2.53,14.78,14.78,0,0,1-2.59-6.17,39.94,39.94,0,0,1-.68-7.4c0-1.06.12-2.71.34-5,.12-1.12.23-2.09.34-2.9a19.45,19.45,0,0,1,.37-2,5.14,5.14,0,0,1,1.68-2.56,4.07,4.07,0,0,1,2.72-1.16c.51,0,.76.53.76,1.59a18.4,18.4,0,0,1-.18,2.41c-.12.89-.25,1.78-.38,2.65q-.37,2.46-.54,4.41c-.12,1.3-.17,2.43-.17,3.39a26.37,26.37,0,0,0,.79,6.36q.8,3.28,2.87,3.28a9.71,9.71,0,0,0,4.87-1.69c.93-.58,1.86-1.22,2.78-1.93s1.85-1.5,2.78-2.37,1.85-1.75,2.72-2.64,1.72-1.79,2.56-2.73,1.57-1.81,2.24-2.62,1.23-1.56,1.72-2.24c0-.05.06-.11.1-.21l.16-.28a1.53,1.53,0,0,1,.17-.23c.06-.06.11-.08.17-.06.26,0,.46.22.6.68A3.09,3.09,0,0,1,897.41,279Zm-18.57-25.36a6,6,0,0,1-1,3.46,3.07,3.07,0,0,1-2.75,1.44,9.83,9.83,0,0,1-2.52-.38c-.91-.25-1.36-.65-1.36-1.21a5.48,5.48,0,0,1,.86-2.92,7.71,7.71,0,0,1,2.09-2.26,3.4,3.4,0,0,1,1.27-.63,5.18,5.18,0,0,1,2.5.49A2.1,2.1,0,0,1,878.84,253.64Z"/><path class="cls-3" d="M909.83,292.54a9.7,9.7,0,0,1-.51,3.11A12.9,12.9,0,0,1,908,298.5a15.35,15.35,0,0,1-2,2.48,16.07,16.07,0,0,1-2.32,2,11.87,11.87,0,0,1-2.43,1.28,6.51,6.51,0,0,1-2.24.45,2.1,2.1,0,0,1-1.87-.69,3.51,3.51,0,0,1-.45-1.93,3.32,3.32,0,0,1,.39-1.77,3.49,3.49,0,0,1,1.14-1l.31-.08a3.65,3.65,0,0,1,.49-.06l.54,0,.44,0a2.58,2.58,0,0,0,.57-.09,4.94,4.94,0,0,0,.79-.27,6.46,6.46,0,0,0,.88-.43,5.24,5.24,0,0,0,.85-.61,5.75,5.75,0,0,0,1.61-2.23,6.33,6.33,0,0,0,.46-2.2,4.05,4.05,0,0,0-.7-2.28,12.43,12.43,0,0,0-1.79-2.07c-.72-.68-1.49-1.35-2.33-2A25,25,0,0,1,898,284.7a11.91,11.91,0,0,1-1.79-2.42,5.78,5.78,0,0,1-.71-2.84,7.53,7.53,0,0,1,.19-1.65,12.5,12.5,0,0,1,.48-1.72,15.71,15.71,0,0,1,.68-1.64,11.67,11.67,0,0,1,.81-1.45c.45-.71,1-1.4,1.49-2.09a18.51,18.51,0,0,1,1.63-1.82,9.28,9.28,0,0,1,1.61-1.28,2.82,2.82,0,0,1,1.48-.49c1.28,0,1.93.84,1.93,2.5a4.41,4.41,0,0,1-.64,2,11.38,11.38,0,0,1-1.52,2.12c-.91,1-1.7,1.77-2.38,2.45s-1.31,1.37-1.9,2.07a14.25,14.25,0,0,0,1.42,1.94c.51.58,1,1.14,1.6,1.68s1.12,1.07,1.7,1.59,1.15,1.06,1.72,1.62,1,1.09,1.51,1.64a12.86,12.86,0,0,1,1.29,1.72,9.07,9.07,0,0,1,.91,1.85A6.05,6.05,0,0,1,909.83,292.54Z"/><path class="cls-3" d="M981.43,278.07a6.47,6.47,0,0,1-.08.89,8.25,8.25,0,0,1-.25,1,10,10,0,0,1-.34,1,3.44,3.44,0,0,1-.38.77c-.11.17-.28.39-.5.67s-.45.59-.72.92-.55.68-.86,1.05-.64.71-1,1q-1.76,1.79-3.45,3.45a29.36,29.36,0,0,1-3.47,2.95,17.22,17.22,0,0,1-3.73,2,11,11,0,0,1-4.21.73,5.71,5.71,0,0,1-2.11-.42,7.24,7.24,0,0,1-2-1.2,7.62,7.62,0,0,1-2.58-4.27L954,290.69q-.91,1-1.89,2c-.65.69-1.33,1.35-2,2A23.74,23.74,0,0,1,948,296.5a17.18,17.18,0,0,1-1.49.94c-.58.33-1.18.64-1.81.92a15,15,0,0,1-1.9.69,6.78,6.78,0,0,1-1.72.26,2.81,2.81,0,0,1-2-.79,6.55,6.55,0,0,1-1.39-1.95,10.54,10.54,0,0,1-.82-2.47,11.68,11.68,0,0,1-.27-2.34,17.31,17.31,0,0,1,.54-4.21,30,30,0,0,1,1.4-4.2,35.94,35.94,0,0,1,1.93-3.88c.71-1.23,1.41-2.32,2.09-3.27a22.73,22.73,0,0,1,2.55-3,26,26,0,0,1,3.06-2.66,18.73,18.73,0,0,1,3.12-1.88A6.54,6.54,0,0,1,954,268h1.26a11.41,11.41,0,0,1,1.32.08,7.83,7.83,0,0,1,1.28.25,3.73,3.73,0,0,1,1.13.51,3,3,0,0,1,.6.72,10.78,10.78,0,0,1,.64,1.18,12.38,12.38,0,0,1,.49,1.31,3.94,3.94,0,0,1,.2,1,12.18,12.18,0,0,1-.42,2.75c-.31,1.43-.59,2.74-.84,3.92a16.68,16.68,0,0,0-.38,3.63,7.9,7.9,0,0,0,.31,2.17,7.32,7.32,0,0,0,.89,2,5.15,5.15,0,0,0,1.42,1.48,3.19,3.19,0,0,0,1.88.58,8.81,8.81,0,0,0,3.55-.8A18.52,18.52,0,0,0,971,286.6a36.69,36.69,0,0,0,3.7-3.21c1.23-1.22,2.44-2.51,3.63-3.89l.5-.64c.23-.3.48-.6.73-.9s.51-.57.76-.81.42-.36.53-.36C981.23,276.79,981.43,277.21,981.43,278.07Zm-25.24-2.59c0-.36,0-.79-.05-1.31a2.76,2.76,0,0,0-.37-1.28.89.89,0,0,0-.77-.49c-.3,0-.6,0-.91,0a5.38,5.38,0,0,0-1.91.34,8.67,8.67,0,0,0-1.8.95,13,13,0,0,0-1.69,1.41c-.54.53-1.06,1.09-1.57,1.67a16.61,16.61,0,0,0-1.38,1.78c-.48.7-1,1.48-1.41,2.32s-.92,1.73-1.35,2.65a28.51,28.51,0,0,0-1.13,2.75,21.18,21.18,0,0,0-.77,2.62,10.41,10.41,0,0,0-.28,2.29,6,6,0,0,0,.07.83,5.76,5.76,0,0,0,.22,1,2.77,2.77,0,0,0,.43.82.82.82,0,0,0,.67.35,8.3,8.3,0,0,0,3.26-.91,17.19,17.19,0,0,0,4.83-3.41,21.4,21.4,0,0,0,3.7-5A20.53,20.53,0,0,0,956.19,275.48Z"/><path class="cls-3" d="M1006.89,276.76a2.84,2.84,0,0,1-.25,1.1,8.36,8.36,0,0,1-.68,1.27c-.29.43-.61.88-1,1.32l-1.07,1.33-.91,1.08-1.09,1.21-1.43,1.56-1.93,2.08c-.66.7-1.4,1.45-2.2,2.23s-1.62,1.54-2.44,2.29-1.62,1.47-2.4,2.15l-2,1.81q-2,1.85-3.88,3.48c-1.23,1.09-2.44,2.08-3.63,2.95q-3.56,2.63-5.62,2.62a4.23,4.23,0,0,1-1.64-.41c-.64-.27-1-.64-1-1.12a3.93,3.93,0,0,1,1.39-3.18,19.9,19.9,0,0,1,4.26-2.37,17.9,17.9,0,0,0,4.25-2.44,4,4,0,0,0,1.42-3.24q0-1-2-4.18c-.64-1.06-1.21-2-1.71-2.92s-.94-1.68-1.29-2.38a10.25,10.25,0,0,1-1.08-4.59,14.78,14.78,0,0,1,.71-4.4,10.64,10.64,0,0,1,1.09-2.63,15.3,15.3,0,0,1,1.63-2.38,9.19,9.19,0,0,1,1.79-1.67,2.73,2.73,0,0,1,1.58-.59c1.67,0,2.5,1.08,2.5,3.25a4.27,4.27,0,0,1-.82,2.43,13,13,0,0,1-1,1.17c-.38.41-.81.84-1.3,1.29s-.88.83-1.21,1.16-.6.61-.81.84a10.32,10.32,0,0,0,.91,3.81q.48,1.05,1.11,2.31c.41.83.9,1.72,1.44,2.68s1,1.81,1.39,2.57.66,1.32.85,1.67c0,.08.13.13.32.13a3.34,3.34,0,0,0,1.37-.64c.65-.43,1.43-1,2.33-1.72s1.87-1.55,2.93-2.49,2.12-1.95,3.18-3,2-2,2.72-2.83l2-2.28c.64-.71,1.12-1.25,1.43-1.64a3.33,3.33,0,0,1,.53-.58.62.62,0,0,1,.42.19,2,2,0,0,1,.36.48,3.41,3.41,0,0,1,.24.63A2.28,2.28,0,0,1,1006.89,276.76Z"/><path class="cls-3" d="M1006.47,270.42a9.74,9.74,0,0,1,1-1.32,12.53,12.53,0,0,1,1.19-1.22,8.64,8.64,0,0,1,1.21-.89,2,2,0,0,1,1-.34,1.71,1.71,0,0,1,.8.19,2.41,2.41,0,0,1,.69.49,3.17,3.17,0,0,1,.48.71,1.86,1.86,0,0,1,.18.79,3.39,3.39,0,0,1-.38,1.53,8.67,8.67,0,0,1-1,1.47,14.78,14.78,0,0,1-1.26,1.39c-.45.44-.88.87-1.27,1.29a10.12,10.12,0,0,0-1,1.17,2,2,0,0,0-.41,1,8.34,8.34,0,0,0,1.16,2,15.28,15.28,0,0,0,1.69,1.86c.63.6,1.31,1.21,2,1.81l2.25,1.84a8.29,8.29,0,0,1,1.12,1.08c.32.36.58.69.81,1s.41.53.55.72.26.28.36.28a1.37,1.37,0,0,0,.61-.27,8.27,8.27,0,0,0,.93-.71c.35-.3.75-.66,1.18-1.08s.88-.86,1.33-1.34q1.65-1.69,3.32-3.67t3.12-3.71c1-1.15,1.81-2.12,2.54-2.89s1.25-1.15,1.57-1.15a.74.74,0,0,1,.48.14.72.72,0,0,1,.25.36,2.27,2.27,0,0,1,.08.5c0,.19,0,.36,0,.53a3,3,0,0,1-.44,1.18c-.29.57-.67,1.22-1.14,2s-1,1.55-1.62,2.42-1.22,1.71-1.84,2.56-1.23,1.62-1.82,2.35-1.1,1.33-1.56,1.81l-1.4,1.48-1.32,1.41c-.45.49-1,1-1.52,1.62l-2,2.14c-.62.66-1.2,1.34-1.74,2l-1.62,2c-.53.67-1.08,1.35-1.64,2s-1.16,1.33-1.8,2a28.42,28.42,0,0,1-3,2.6,4.83,4.83,0,0,1-2.85,1.05,3.72,3.72,0,0,1-2-.5,1.58,1.58,0,0,1-.79-1.41,2.75,2.75,0,0,1,.65-1.74,9.25,9.25,0,0,1,1.62-1.55,19.64,19.64,0,0,1,2.1-1.4c.75-.45,1.46-.89,2.12-1.33a9.63,9.63,0,0,0,3-3,6.31,6.31,0,0,0,1-3.29,4.4,4.4,0,0,0-1.26-2.68,22.57,22.57,0,0,0-4.21-3.56,10.84,10.84,0,0,1-1.7-1.45,11.25,11.25,0,0,1-1.29-1.59,9,9,0,0,1-.83-1.54,3.81,3.81,0,0,1-.29-1.31,15.91,15.91,0,0,1,.11-2.06,8.83,8.83,0,0,1,.41-1.8,13.4,13.4,0,0,1,.79-1.84C1005.56,272,1006,271.23,1006.47,270.42Z"/><path class="cls-3" d="M1058.42,279a4,4,0,0,1-.53,1.78,22.69,22.69,0,0,1-1.5,2.54c-.63.95-1.37,2-2.21,3.05s-1.73,2.16-2.65,3.24q-1.59,1.88-3.36,3.6t-3.79,3.36q-4,3.24-7.09,3.24a6.27,6.27,0,0,1-5.33-2.53,14.64,14.64,0,0,1-2.58-6.17,39.94,39.94,0,0,1-.68-7.4c0-1.06.11-2.71.34-5,.11-1.12.23-2.09.34-2.9a17,17,0,0,1,.37-2,5.05,5.05,0,0,1,1.67-2.56,4.09,4.09,0,0,1,2.72-1.16c.51,0,.77.53.77,1.59a18.4,18.4,0,0,1-.18,2.41c-.13.89-.26,1.78-.39,2.65q-.36,2.46-.54,4.41c-.11,1.3-.17,2.43-.17,3.39a26.39,26.39,0,0,0,.8,6.36q.79,3.28,2.86,3.28a9.71,9.71,0,0,0,4.88-1.69c.92-.58,1.85-1.22,2.78-1.93s1.85-1.5,2.78-2.37,1.85-1.75,2.72-2.64,1.72-1.79,2.55-2.73,1.58-1.81,2.24-2.62,1.24-1.56,1.73-2.24l.1-.21.16-.28a1.06,1.06,0,0,1,.17-.23.15.15,0,0,1,.17-.06c.26,0,.46.22.59.68A3.15,3.15,0,0,1,1058.42,279Zm-18.58-25.36a6.06,6.06,0,0,1-1,3.46,3.07,3.07,0,0,1-2.75,1.44,9.84,9.84,0,0,1-2.53-.38c-.9-.25-1.36-.65-1.36-1.21a5.4,5.4,0,0,1,.87-2.92,7.81,7.81,0,0,1,2.08-2.26,3.41,3.41,0,0,1,1.28-.63,5.11,5.11,0,0,1,2.49.49A2.08,2.08,0,0,1,1039.84,253.64Z"/><path class="cls-3" d="M1075.2,276.26c0,1.12,0,2.48-.11,4.08s-.19,3.48-.34,5.62c-.08,1.31-.19,2.82-.35,4.54s-.37,3.48-.63,5.3-.56,3.61-.91,5.37a43.25,43.25,0,0,1-1.17,4.66,19,19,0,0,1-1.45,3.43,12.39,12.39,0,0,1-2.08,2.84,9.24,9.24,0,0,1-2.74,1.92,8,8,0,0,1-3.4.7,9.89,9.89,0,0,1-2.55-.34,15.53,15.53,0,0,1-2.57-.93,20.44,20.44,0,0,1-2.45-1.38,17.1,17.1,0,0,1-2.19-1.68,18.56,18.56,0,0,1-2-2.05,12.53,12.53,0,0,1-1.42-2.13,4.54,4.54,0,0,1-.57-2.09c0-.65.19-1,.57-1a.55.55,0,0,1,.42.22,2.1,2.1,0,0,1,.27.26q.17.18.3.36c.1.13.18.24.26.33l.14.17Q1055.76,310,1062,310a5.27,5.27,0,0,0,3.39-1,7.41,7.41,0,0,0,2.1-2.71,16.89,16.89,0,0,0,1.19-3.72c.27-1.36.5-2.71.69-4,.12-.83.22-1.67.3-2.51s.17-1.71.24-2.62.15-1.86.23-2.85.16-2.07.25-3.22a18.91,18.91,0,0,1-2.86,2.76,25.87,25.87,0,0,1-3.63,2.44,23.21,23.21,0,0,1-3.91,1.73,11.73,11.73,0,0,1-3.69.65,6.93,6.93,0,0,1-1.15-.11,5.67,5.67,0,0,1-1.36-.39,3.55,3.55,0,0,1-1.13-.73,1.49,1.49,0,0,1-.47-1.11,17,17,0,0,1,.6-4.15,42.6,42.6,0,0,1,1.51-4.75q.93-2.42,2-4.62a32.65,32.65,0,0,1,2.11-3.73,27.79,27.79,0,0,1,2.95-3.74,26.78,26.78,0,0,1,3.16-2.9,15.52,15.52,0,0,1,3-1.88,6.34,6.34,0,0,1,2.52-.65,9.91,9.91,0,0,1,1.65.15,8.56,8.56,0,0,1,1.68.49,5.46,5.46,0,0,1,1.46.86,3.19,3.19,0,0,1,1,1.28,2.5,2.5,0,0,1,.08,1.2c-.05.55-.13,1.17-.22,1.85s-.2,1.41-.3,2.17A16.32,16.32,0,0,0,1075.2,276.26Zm-4.73,5.21.24-1.81q.12-1,.21-2.22c.06-.79.11-1.62.14-2.49s.06-1.75.06-2.62a1.57,1.57,0,0,0-.62-1.3,2.46,2.46,0,0,0-1.54-.48,3.62,3.62,0,0,0-1.75.92,20.75,20.75,0,0,0-2.63,2.49,37.07,37.07,0,0,0-2.9,3.7,32.3,32.3,0,0,0-2.64,4.56,15.11,15.11,0,0,0-.78,2c-.24.76-.44,1.53-.61,2.31a21.76,21.76,0,0,0-.38,2.26,15.29,15.29,0,0,0-.13,1.84c.57-.1,1.2-.24,1.9-.42s1.42-.39,2.17-.64,1.48-.53,2.2-.84a14.79,14.79,0,0,0,1.95-1,15.73,15.73,0,0,0,1.73-1.28,14.12,14.12,0,0,0,1.56-1.53,9,9,0,0,0,1.19-1.69A5.31,5.31,0,0,0,1070.47,281.47Z"/><path class="cls-3" d="M1132.09,275.6a6.52,6.52,0,0,1-.49,2.4,16.06,16.06,0,0,1-1.1,2.28c-.53.88-1.17,1.86-1.9,3s-1.56,2.2-2.45,3.32-1.87,2.22-2.9,3.29a26.38,26.38,0,0,1-3.2,2.86,17.56,17.56,0,0,1-3.39,2,8.44,8.44,0,0,1-3.43.77,5.07,5.07,0,0,1-3-.85,6.48,6.48,0,0,1-1.93-2.21,12.25,12.25,0,0,1-1.16-3.14q-.42-1.75-.75-3.6-.4-2.25-.78-3.81a17.59,17.59,0,0,0-.8-2.54,4.19,4.19,0,0,0-.86-1.42,1.4,1.4,0,0,0-1-.44,3.21,3.21,0,0,0-2.07,1,16.89,16.89,0,0,0-2.26,2.61q-1.2,1.63-2.51,3.76c-.88,1.41-1.8,2.88-2.77,4.39-.58.92-1.19,1.8-1.81,2.66s-1.24,1.63-1.83,2.34-1.16,1.31-1.69,1.82a7.58,7.58,0,0,1-1.39,1.11,5.35,5.35,0,0,1-1.11-.42,2.08,2.08,0,0,1-.79-.84,5.07,5.07,0,0,1-.48-1.55,15.51,15.51,0,0,1-.17-2.53c0-.79,0-1.76.13-2.93s.19-2.37.34-3.63.29-2.49.45-3.69.33-2.21.5-3.07q.16-.84.27-1.68c.06-.56.13-1.09.19-1.58s.14-.92.2-1.31a4.37,4.37,0,0,1,.27-.95,12,12,0,0,1,1.14-2.07,1.6,1.6,0,0,1,1.3-.8,4.11,4.11,0,0,1,.61.06,2.08,2.08,0,0,1,1.36.84,1.64,1.64,0,0,1,.27,1,15.88,15.88,0,0,1-.45,3.47c-.31,1.31-.61,2.65-.91,4-.11.56-.26,1.2-.43,1.92s-.32,1.45-.46,2.2-.27,1.48-.37,2.2a12.42,12.42,0,0,0-.16,1.88c0,.09,0,.22,0,.41l0,.59c0,.21,0,.41,0,.6a1.26,1.26,0,0,0,0,.43,9.7,9.7,0,0,0,2-2.24c.7-1,1.4-2.13,2.11-3.33s1.4-2.39,2.08-3.58a34.61,34.61,0,0,1,1.93-3c.63-.89,1.21-1.68,1.76-2.37a11.65,11.65,0,0,1,1.7-1.73,6.57,6.57,0,0,1,1.89-1.06,6.93,6.93,0,0,1,2.34-.36,3.67,3.67,0,0,1,2.45.83,6.4,6.4,0,0,1,1.62,2.17,13.67,13.67,0,0,1,1,3.09c.25,1.16.46,2.35.63,3.55s.38,2.47.59,3.54a12.27,12.27,0,0,0,.84,2.75,4.85,4.85,0,0,0,1.32,1.78,3.19,3.19,0,0,0,2,.64,6.24,6.24,0,0,0,3.33-1,21.68,21.68,0,0,0,3.59-3,68.94,68.94,0,0,0,5.57-6.18q2.31-2.93,4.24-5.3a.68.68,0,0,0,.41.28A.51.51,0,0,1,1132.09,275.6Z"/><path class="cls-3" d="M1188.43,286.43a1.69,1.69,0,0,1-.27.76,9.92,9.92,0,0,1-.65,1,9.78,9.78,0,0,1-.85,1,5.41,5.41,0,0,1-.84.72,33.37,33.37,0,0,1-5.43,3,13.27,13.27,0,0,1-5.17,1.05,5.15,5.15,0,0,1-2.57-.63,5.9,5.9,0,0,1-2-1.84,12.44,12.44,0,0,1-1.49-3,30.14,30.14,0,0,1-1.12-4.09c-.17-.83-.33-1.69-.48-2.56s-.31-1.67-.48-2.39a8.45,8.45,0,0,0-.6-1.77c-.23-.47-.51-.71-.85-.71q-1.19,0-2.67,2.28t-3.8,6.77a66.66,66.66,0,0,1-3.88,6.83c-1.06,1.56-2,2.34-2.89,2.34a2.61,2.61,0,0,1-2.64-2,29.73,29.73,0,0,1-.77-6.9,31.84,31.84,0,0,0-.19-3.35,21.25,21.25,0,0,0-.43-2.48,7.21,7.21,0,0,0-.61-1.7,4.75,4.75,0,0,0-.72-1,13.5,13.5,0,0,0-2.77,2.53,34,34,0,0,0-2.48,3.34c-.77,1.18-1.5,2.38-2.17,3.58s-1.27,2.31-1.8,3.31l-.91,1.72-1,1.95c-.35.65-.69,1.27-1,1.85s-.62,1.06-.87,1.44a2.35,2.35,0,0,1-2,1.31c-1.44,0-2.38-.81-2.84-2.44-.11-.41-.2-.79-.28-1.12a8.37,8.37,0,0,1-.18-1c0-.33-.09-.69-.12-1.07s0-.83,0-1.33c0-.83,0-1.71.11-2.65s.18-1.88.3-2.84.27-1.92.43-2.89.31-1.9.46-2.82c.33-1.79.58-3.41.77-4.87a31.87,31.87,0,0,0,.28-4.14,2,2,0,0,1,.4-1.27,1.31,1.31,0,0,1,1.11-.51q2.83,0,2.83,4.27a21.36,21.36,0,0,1-.15,2.43c-.11.88-.24,1.79-.4,2.73s-.34,1.91-.53,2.87-.36,1.92-.53,2.86c-.1.56-.19,1.16-.29,1.79s-.18,1.24-.27,1.81-.15,1.08-.21,1.53a8.43,8.43,0,0,0-.09,1,12.22,12.22,0,0,0,.93-1.18c.36-.52.77-1.13,1.2-1.84s.9-1.49,1.4-2.34,1-1.74,1.52-2.65q1.59-2.75,3-4.86c.91-1.4,1.77-2.6,2.56-3.6q2.39-3,5.13-3a1.76,1.76,0,0,1,1.19.43,3.63,3.63,0,0,1,.88,1.16,8.54,8.54,0,0,1,.63,1.62c.17.6.31,1.22.42,1.84.19,1.06.38,2.24.56,3.53s.35,2.49.53,3.62.37,2.06.57,2.82.43,1.14.7,1.14.45-.17.75-.52a10.07,10.07,0,0,0,.91-1.31c.31-.53.63-1.12,1-1.79s.65-1.32,1-1.95l.84-1.76c.25-.54.45-1,.61-1.28q.62-1.22,1.44-2.67a25.31,25.31,0,0,1,1.77-2.71,10.61,10.61,0,0,1,2.06-2.11,3.79,3.79,0,0,1,2.33-.84,2.83,2.83,0,0,1,2,.64,4.8,4.8,0,0,1,1.18,1.9,20.23,20.23,0,0,1,.82,3.17c.23,1.27.53,2.74.89,4.43a27.17,27.17,0,0,0,1.9,6.14,3,3,0,0,0,2.7,2,15.72,15.72,0,0,0,2.14-.15,16.4,16.4,0,0,0,2.28-.52,19.13,19.13,0,0,0,2.51-1,25.35,25.35,0,0,0,2.82-1.54l.35-.2.52-.28a3.65,3.65,0,0,1,.49-.24,1.09,1.09,0,0,1,.31-.09.45.45,0,0,1,.27.12,1.38,1.38,0,0,1,.3.33,4.64,4.64,0,0,1,.26.44A1,1,0,0,1,1188.43,286.43Z"/><path class="cls-3" d="M1221.35,275.79a4.32,4.32,0,0,1-.62,1.65,47.37,47.37,0,0,1-2.82,4.31q-1.7,2.31-3.75,4.63t-4.36,4.48a42,42,0,0,1-4.7,3.79,27.59,27.59,0,0,1-4.7,2.63,11.21,11.21,0,0,1-4.43,1h-.2q-4.85,0-7.26-3c-1.6-2-2.41-4.88-2.41-8.52a36,36,0,0,1,.32-4.62,28.32,28.32,0,0,1,1.09-4.94,29.18,29.18,0,0,1,2.12-5,25.83,25.83,0,0,1,3.42-4.85,12.32,12.32,0,0,1,3.29-2.63,6.89,6.89,0,0,1,3.26-.92,2.09,2.09,0,0,1,.6.12,4.78,4.78,0,0,1,.75.33,4.19,4.19,0,0,1,.74.5,4,4,0,0,1,.6.64,9.2,9.2,0,0,1,1.17,2.15,7.29,7.29,0,0,1,.37,2.4,11.22,11.22,0,0,1-.46,3.29,12.6,12.6,0,0,1-1.3,2.89,20.36,20.36,0,0,1-2.1,2.82c-.83.95-1.79,2-2.86,3.08-.36.37-.79.79-1.28,1.24s-1,.94-1.59,1.44l-1.76,1.56-1.78,1.59q.22,5.58,5.64,5.58a14.16,14.16,0,0,0,6.41-1.74,21.09,21.09,0,0,0,3.12-2c1-.76,1.91-1.53,2.83-2.32.46-.39,1-.86,1.51-1.4s1.11-1.12,1.68-1.72l1.73-1.81c.58-.6,1.12-1.17,1.63-1.72l1-1.12c.37-.39.76-.82,1.18-1.28l1.53-1.68c.92-.9,1.59-1.34,2-1.34C1221.24,275.2,1221.35,275.39,1221.35,275.79Zm-21.83-4.68a3,3,0,0,0-.46-1.64,1.3,1.3,0,0,0-1.1-.7,2.65,2.65,0,0,0-1.24.44,5.9,5.9,0,0,0-1.6,1.56,22.23,22.23,0,0,0-2.95,5.56,31.67,31.67,0,0,0-1.7,7.26c1.19-1.06,2.2-2,3-2.84s1.56-1.61,2.23-2.34c.45-.5.9-1,1.34-1.59a15.56,15.56,0,0,0,1.22-1.78,10.54,10.54,0,0,0,.9-1.93A6.36,6.36,0,0,0,1199.52,271.11Z"/><path class="cls-3" d="M1265.81,277a4.26,4.26,0,0,1-.18,1.2,12,12,0,0,1-.46,1.21,11.13,11.13,0,0,1-.61,1.19l-.65,1.11a29.27,29.27,0,0,1-1.93,2.85,36.71,36.71,0,0,1-2.36,2.82c-.84.92-1.71,1.78-2.6,2.59a31.64,31.64,0,0,1-2.61,2.16l-1.94,1.4a12.93,12.93,0,0,1-1.86,1.12,9.59,9.59,0,0,1-1.95.75,8.33,8.33,0,0,1-2.24.28,5.52,5.52,0,0,1-3.83-1.31,5.9,5.9,0,0,1-1.29-1.7,14.57,14.57,0,0,1-1-2.32,25.07,25.07,0,0,1-.7-2.72c-.2-.95-.37-1.9-.5-2.83-.17-1.17-.33-2.21-.48-3.14a16.91,16.91,0,0,0-.53-2.34,4.57,4.57,0,0,0-.72-1.47,1.37,1.37,0,0,0-1.11-.51,4.19,4.19,0,0,0-1,.12,3.22,3.22,0,0,0-1,.5,7.63,7.63,0,0,0-1.15,1.06c-.42.46-.9,1.06-1.46,1.81s-1.2,1.67-1.92,2.75-1.56,2.37-2.52,3.87c-.47.73-1,1.53-1.67,2.4s-1.3,1.71-2,2.5-1.33,1.48-2,2.09a5.14,5.14,0,0,1-1.71,1.15q-2.49-.59-2.49-6.83c0-1.1.11-2.78.34-5,.11-1,.24-2.09.4-3.2s.34-2.23.56-3.34.49-2.2.78-3.25a21.52,21.52,0,0,1,1-2.91,4.37,4.37,0,0,1,.59-1,2.54,2.54,0,0,1,.64-.53,2.14,2.14,0,0,1,.68-.21,4.4,4.4,0,0,1,.73-.05c.3,0,.57.23.8.69a4.12,4.12,0,0,1,.36,1.9,7.69,7.69,0,0,1-.12,1.4,11.23,11.23,0,0,1-.31,1.34l-.42,1.49c-.15.53-.31,1.13-.46,1.82s-.24,1.19-.38,1.87-.27,1.39-.4,2.09-.22,1.4-.31,2.08a15.7,15.7,0,0,0-.13,1.82,4.34,4.34,0,0,0,.17,1.16c.53-.07,1.4-.94,2.61-2.62l2.06-2.81c.75-1,1.55-2.14,2.42-3.37.65-.92,1.28-1.77,1.92-2.56a15.65,15.65,0,0,1,2-2.07,8.68,8.68,0,0,1,2.17-1.41,6.16,6.16,0,0,1,2.54-.51,4.08,4.08,0,0,1,2.45.7,5,5,0,0,1,1.57,1.93,11.64,11.64,0,0,1,.92,3c.22,1.15.4,2.4.53,3.78.11,1.16.22,2.32.32,3.46a14,14,0,0,0,.61,3.07,5.49,5.49,0,0,0,1.31,2.2,3.33,3.33,0,0,0,2.44.84,6,6,0,0,0,2.55-.62,16.48,16.48,0,0,0,2.81-1.73,33.8,33.8,0,0,0,3-2.61c1-1,2.14-2.09,3.25-3.27a19.69,19.69,0,0,0,1.43-1.73q.78-1.05,1.53-2a20.4,20.4,0,0,1,1.41-1.66c.43-.46.78-.68,1.05-.68a1.58,1.58,0,0,1,.55.18A.64.64,0,0,1,1265.81,277Z"/><path class="cls-3" d="M1286.4,270.67a2.56,2.56,0,0,1-.33,1.41,2.17,2.17,0,0,1-.79.75,2.9,2.9,0,0,1-1,.31l-1,.09-4.86.42c-1.66.16-3.17.31-4.53.47s-2.48.31-3.36.45-1.33.26-1.34.35c-.14.6-.31,1.35-.51,2.24s-.43,1.86-.66,2.89-.45,2.09-.68,3.18-.43,2.13-.61,3.12-.32,1.88-.44,2.68a15,15,0,0,0-.17,1.92q0,.66.09,1.59a6.46,6.46,0,0,0,.41,1.8,3.89,3.89,0,0,0,.95,1.45,2.37,2.37,0,0,0,1.7.59,3.46,3.46,0,0,0,1.46-.41,12.38,12.38,0,0,0,1.89-1.12,22.73,22.73,0,0,0,2.12-1.71q1.11-1,2.19-2.19a15.84,15.84,0,0,1,1.17-1.14,2.11,2.11,0,0,1,1.38-.54c.7,0,1,.36,1,1.09a3,3,0,0,1-.19,1.07,5.62,5.62,0,0,1-.48,1,9.14,9.14,0,0,1-.68,1q-.37.52-.81,1.08c-.19.27-.46.62-.83,1.05s-.82.88-1.34,1.38-1.09,1-1.73,1.52a15.47,15.47,0,0,1-2,1.37,13.27,13.27,0,0,1-2.21,1,7.18,7.18,0,0,1-2.31.39,6.6,6.6,0,0,1-2.8-.53,5.15,5.15,0,0,1-1.82-1.41,6.38,6.38,0,0,1-1.1-2,12.74,12.74,0,0,1-.55-2.23,16.72,16.72,0,0,1-.18-2.2c0-.72,0-1.33,0-1.85a16.08,16.08,0,0,1,.19-2.3c.12-.88.27-1.82.44-2.82s.36-2,.58-3,.41-2,.58-2.95.32-1.79.44-2.57a12.92,12.92,0,0,0,.18-1.86c0-.27-.12-.42-.35-.45a3.58,3.58,0,0,0-1,0c-.4.07-.85.13-1.35.19a5,5,0,0,1-1.54-.06,5,5,0,0,1-1-.28,2.88,2.88,0,0,1-.81-.52,2.33,2.33,0,0,1-.56-.84,3.21,3.21,0,0,1-.22-1.29,1.65,1.65,0,0,1,.47-1.35,1.8,1.8,0,0,1,1.12-.37h6.67a1.68,1.68,0,0,0,.44-.64c.17-.36.37-.83.59-1.4s.45-1.22.7-1.94l.75-2.24c.25-.78.5-1.57.73-2.36s.46-1.53.67-2.21a6.22,6.22,0,0,1,1.13-2.41,2.17,2.17,0,0,1,1.65-.71,2.14,2.14,0,0,1,1.09.26,2.22,2.22,0,0,1,.7.66,2.6,2.6,0,0,1,.36.82,3.06,3.06,0,0,1,.12.81,3.74,3.74,0,0,1-.19.74l-.46,1.51c-.19.6-.41,1.28-.66,2s-.49,1.5-.75,2.24-.49,1.48-.72,2.19l-.6,1.84c1.76-.13,3.25-.25,4.47-.38l3.13-.32,2.23-.24q.92-.09,1.74-.09a13.25,13.25,0,0,1,2,.12,3.88,3.88,0,0,1,1.16.36,1.24,1.24,0,0,1,.56.6A2.31,2.31,0,0,1,1286.4,270.67Z"/><path class="cls-3" d="M850,338.38c0,.36,0,.77,0,1.24s0,1-.09,1.6-.08,1.19-.12,1.81-.1,1.27-.16,1.94-.1,1.25-.14,1.76-.07.94-.09,1.29q-.2,4.28-.82,8.79c-.41,3-.93,5.87-1.56,8.59A39.1,39.1,0,0,1,842.65,377q-2.88,4.86-8,4.86a17.08,17.08,0,0,1-6.75-1.46,15.92,15.92,0,0,1-5.7-4,5.71,5.71,0,0,1-1.39-2.49,4.47,4.47,0,0,1,.43-1.78c.3-.65.64-1,1-1a.66.66,0,0,1,.54.37,14.21,14.21,0,0,0,1.84,2.38,13.45,13.45,0,0,0,9.81,3.68,5.09,5.09,0,0,0,4.17-2.5,16.81,16.81,0,0,0,1.6-2.62,27.35,27.35,0,0,0,1.23-2.93c.36-1,.68-2.06,1-3.12s.54-2.14.76-3.25.34-1.83.44-2.43.17-1,.19-1.22c.09-.87.16-1.71.2-2.52a23.71,23.71,0,0,1,.22-2.41c-.53.27-1.61,1-3.26,2.06-1,.65-1.84,1.23-2.64,1.75s-1.5,1-2.12,1.37A34.62,34.62,0,0,1,832,362a9.86,9.86,0,0,1-3.91,1.09,4.56,4.56,0,0,1-4.11-2.34,10,10,0,0,1-1.45-5.39,30.62,30.62,0,0,1,.43-4.87c.15-.9.3-1.73.47-2.51s.33-1.51.52-2.2.41-1.51.67-2.47.56-2,.92-3.3a12.5,12.5,0,0,1,.62-1.8,5.58,5.58,0,0,1,.78-1.28,2.77,2.77,0,0,1,1-.76,3.64,3.64,0,0,1,1.44-.25,1.47,1.47,0,0,1,1.31,1,4.67,4.67,0,0,1,.45,2,2.43,2.43,0,0,1-.25,1.12c-.1.17-.23.4-.4.72l-.65,1.15q-.4.69-.63,1.14a3.68,3.68,0,0,0-.28.7c-.15.5-.28.94-.4,1.31s-.22.69-.31.94-.16.54-.25.89-.21.74-.35,1.2a19.73,19.73,0,0,0-.52,2.45A17.47,17.47,0,0,0,827,353a12.26,12.26,0,0,0,.46,3c.32,1.23.75,1.84,1.3,1.84a15.28,15.28,0,0,0,6-1.59,25.22,25.22,0,0,0,6.41-4.21,10.46,10.46,0,0,0,3.46-5.21,5.54,5.54,0,0,0,.17-1.13c0-.5.07-1.05.1-1.67s.05-1.25.07-1.91,0-1.31.07-1.92.06-1.17.1-1.66a5.42,5.42,0,0,1,.17-1.1c.49-1.92,1.29-2.87,2.38-2.87s1.68.29,1.93.87A8,8,0,0,1,850,338.38Z"/><path class="cls-3" d="M897.21,338.73a2.41,2.41,0,0,1-.34,1.15,7.4,7.4,0,0,1-.88,1.26,11,11,0,0,1-1.22,1.25c-.45.41-.9.78-1.36,1.13s-.88.64-1.29.9a10.41,10.41,0,0,1-1,.58,9.84,9.84,0,0,1-2,.61c-.8.17-1.64.32-2.51.45s-1.72.22-2.55.29-1.53.11-2.1.11a5,5,0,0,1-.93-.12c-.4-.08-.81-.19-1.22-.31s-.81-.27-1.18-.42a2.64,2.64,0,0,1-.81-.49c.17.79.32,1.59.46,2.39a15.47,15.47,0,0,1,.2,2.48,9.85,9.85,0,0,1-.13,1.37c-.09.54-.2,1.09-.34,1.64s-.3,1.08-.47,1.59a7,7,0,0,1-.54,1.26,25,25,0,0,1-1.52,2.5,13.89,13.89,0,0,1-1.75,2.07,17.19,17.19,0,0,1-2.2,1.8,22,22,0,0,1-2.81,1.62,14,14,0,0,1-3.42,1.14,18.78,18.78,0,0,1-3.56.33,3.13,3.13,0,0,1-2.06-.75,6,6,0,0,1-1.54-2,12.21,12.21,0,0,1-1-2.92,18.47,18.47,0,0,1-.32-3.46A10.77,10.77,0,0,1,857,355c0-.46.11-.92.2-1.4s.17-.94.27-1.37.19-.82.28-1.13a26.74,26.74,0,0,1,1.13-3c.5-1.13,1.07-2.28,1.73-3.45a38.13,38.13,0,0,1,2.22-3.46,23.67,23.67,0,0,1,2.55-3,12.44,12.44,0,0,1,2.78-2.16,5.86,5.86,0,0,1,2.89-.81,1.61,1.61,0,0,1,.78.16,1.68,1.68,0,0,1,.51.4,4.7,4.7,0,0,1,.38.53,5.23,5.23,0,0,0,.4.56.27.27,0,0,0,.25.16,1.76,1.76,0,0,0,.57-.12,2.07,2.07,0,0,1,.77-.13,2.2,2.2,0,0,1,1.33.77c.53.51,1.08,1.07,1.66,1.68s1.15,1.18,1.73,1.68a2.43,2.43,0,0,0,1.54.77l1.65,0c.58,0,1.18-.06,1.79-.11s1.2-.12,1.78-.2,1.13-.18,1.62-.28l.93-.29,1.72-.51,2.07-.64,2-.64,1.54-.48a5.52,5.52,0,0,1,.67-.19.56.56,0,0,1,.31.09A.41.41,0,0,1,897.21,338.73Zm-22.12,5a3.19,3.19,0,0,0-.66-1.22,6.4,6.4,0,0,0-1.14-1.06,6.15,6.15,0,0,0-1.34-.76,3.48,3.48,0,0,0-1.34-.3,2.6,2.6,0,0,0-1,.19,5,5,0,0,0-1,.48,8.19,8.19,0,0,0-.89.66l-.8.67a11.36,11.36,0,0,0-2.11,2.88,27.46,27.46,0,0,0-1.76,4,34.29,34.29,0,0,0-1.2,4.25,18.21,18.21,0,0,0-.45,3.69,4.19,4.19,0,0,0,.21,1.32,3.28,3.28,0,0,0,.61,1.12,2.9,2.9,0,0,0,.93.78,2.42,2.42,0,0,0,1.19.3,7.33,7.33,0,0,0,3.15-.67,9.08,9.08,0,0,0,2.62-1.84,12.56,12.56,0,0,0,2.09-2.79,20.66,20.66,0,0,0,1.53-3.51,24.87,24.87,0,0,0,1-4A28.24,28.24,0,0,0,875.09,343.72Z"/><path class="cls-3" d="M928.66,354.83a2.52,2.52,0,0,1-.11.65,7.56,7.56,0,0,1-.29.78,5.36,5.36,0,0,1-.37.76c-.13.24-.25.46-.37.64a9.71,9.71,0,0,1-1.34,1.63,12.11,12.11,0,0,1-1.82,1.48,9.88,9.88,0,0,1-2.18,1.09,7.59,7.59,0,0,1-5.47-.19,6.43,6.43,0,0,1-2.44-1.92,11.41,11.41,0,0,1-1.82-3.4,25.69,25.69,0,0,1-1.17-5.05L909.42,354c-.71,1-1.48,2.06-2.33,3.12s-1.73,2.11-2.66,3.14a33,33,0,0,1-2.82,2.76,16.46,16.46,0,0,1-2.8,2,5.47,5.47,0,0,1-2.62.75,2.1,2.1,0,0,1-.92-.42,8.72,8.72,0,0,1-1.32-1.08,9.85,9.85,0,0,1-1.27-1.49,4.81,4.81,0,0,1-.8-1.69,14.8,14.8,0,0,1-.48-3.76,25.25,25.25,0,0,1,.28-3.79,37.62,37.62,0,0,1,1-4.36c.44-1.52.9-3,1.37-4.45s.9-2.82,1.28-4.12a16.76,16.76,0,0,0,.68-3.41,2,2,0,0,1,.46-.52,7,7,0,0,1,.73-.56,6.3,6.3,0,0,1,.78-.44,1.72,1.72,0,0,1,.61-.17,1.39,1.39,0,0,1,.74.25,4.27,4.27,0,0,1,.74.62,4,4,0,0,1,.55.78,1.64,1.64,0,0,1,.21.72,3.9,3.9,0,0,1-.15.84c-.11.4-.25.85-.42,1.36s-.36,1-.59,1.59-.45,1.06-.68,1.52c-.44,1.1-.87,2.14-1.29,3.13s-.81,2-1.15,3a25,25,0,0,0-.84,3.09,18.23,18.23,0,0,0-.32,3.51,9.74,9.74,0,0,0,.11,1.27,11.94,11.94,0,0,0,.33,1.49,4.66,4.66,0,0,0,.54,1.25.92.92,0,0,0,.78.52,2.7,2.7,0,0,0,1-.25,11.93,11.93,0,0,0,1.16-.61,12.9,12.9,0,0,0,1.15-.78c.37-.28.69-.54,1-.77a22.74,22.74,0,0,0,2.22-2.12q1.13-1.21,2.1-2.46c.65-.83,1.24-1.62,1.76-2.36s.91-1.33,1.17-1.79a22.17,22.17,0,0,0,1.18-2.39c.37-.86.72-1.72,1.05-2.59s.67-1.7,1-2.52a16.29,16.29,0,0,1,1.06-2.17A6.62,6.62,0,0,1,914.2,338a2,2,0,0,1,1.42-.57,1.54,1.54,0,0,1,1,.25,1.55,1.55,0,0,1,.48.62,2.66,2.66,0,0,1,.18.81q0,.44,0,.81a4,4,0,0,1-.34,1.11c-.23.57-.47,1.26-.74,2.06s-.51,1.67-.73,2.62a11.84,11.84,0,0,0-.35,2.79,16.91,16.91,0,0,0,.4,3.75,11.42,11.42,0,0,0,1.11,3,6.11,6.11,0,0,0,1.68,2,3.57,3.57,0,0,0,2.15.72,8.28,8.28,0,0,0,2.75-.53,10.11,10.11,0,0,0,2.86-1.66l.35-.36c.18-.17.38-.36.6-.54s.42-.36.61-.5a.81.81,0,0,1,.43-.22.63.63,0,0,1,.42.16A.6.6,0,0,1,928.66,354.83Z"/><path class="cls-3" d="M1004,348.83l.2-.06c.13,0,.2.13.2.38a3.67,3.67,0,0,1-.17,1,8.38,8.38,0,0,1-.5,1.23,9.31,9.31,0,0,1-.81,1.31,8.11,8.11,0,0,1-1.07,1.19,25.17,25.17,0,0,1-2.94,2.23,24.73,24.73,0,0,1-3.36,1.82,20.12,20.12,0,0,1-3.63,1.22,16.59,16.59,0,0,1-3.77.44,8.4,8.4,0,0,1-6.21-2.5,10.24,10.24,0,0,1-1.84-2.56,18.15,18.15,0,0,1-1.22-2.93,27.08,27.08,0,0,1-.77-2.93c-.19-1-.34-1.81-.47-2.56s-.22-1.35-.31-1.81-.19-.69-.32-.69a2,2,0,0,0-1.42.88,14.08,14.08,0,0,0-1.52,2.3c-.52,1-1.07,2.05-1.64,3.26l-1.79,3.75c-.61,1.28-1.25,2.53-1.9,3.74a25.4,25.4,0,0,1-2,3.26,11.91,11.91,0,0,1-2.18,2.31,3.75,3.75,0,0,1-2.32.87,2.25,2.25,0,0,1-1.91-1,7.5,7.5,0,0,1-1.12-2.58,18.9,18.9,0,0,1-.52-3.54c-.09-1.31-.13-2.61-.13-3.9s0-2.22.05-3.24.06-1.89.06-2.62c0-.29,0-.55,0-.77s0-.42-.05-.61l-.06-.56a6.18,6.18,0,0,1,0-.65,8.61,8.61,0,0,1,.26-2.09,8.52,8.52,0,0,1,.65-1.83,5,5,0,0,1,.88-1.29,1.34,1.34,0,0,1,1-.5,3.12,3.12,0,0,1,1,.15,1.82,1.82,0,0,1,.8.6,3.2,3.2,0,0,1,.57,1.2,7.53,7.53,0,0,1,.21,2c0,.95,0,2-.14,3.29s-.2,2.48-.31,3.73-.22,2.43-.31,3.55-.14,2.06-.14,2.81c0,1,.11,1.53.34,1.53a2,2,0,0,0,1.37-.69A9.16,9.16,0,0,0,966,355c.46-.77.94-1.66,1.42-2.68s1-2.1,1.43-3.24c.87-2.13,1.7-4,2.48-5.54a22.48,22.48,0,0,1,2.43-3.93,8.59,8.59,0,0,1,2.7-2.34,7.17,7.17,0,0,1,3.36-.77.81.81,0,0,1,.57.24,1.84,1.84,0,0,1,.43.62,4.94,4.94,0,0,1,.27.87,5.31,5.31,0,0,1,.1,1c0,1.81.06,3.43.18,4.88a24.3,24.3,0,0,0,.61,3.85,11.54,11.54,0,0,0,1.11,2.9,7.21,7.21,0,0,0,1.64,2,4,4,0,0,0,1,.64,9.22,9.22,0,0,0,1.43.5c.52.14,1.05.24,1.59.33a10.09,10.09,0,0,0,1.46.12,12.71,12.71,0,0,0,2-.19,19.78,19.78,0,0,0,2.6-.59,27.62,27.62,0,0,0,2.83-1,16.81,16.81,0,0,0,2.72-1.45l.8-.53.78-.52.92-.59Z"/><path class="cls-3" d="M1028.81,355a51.45,51.45,0,0,1-9.81,6.65,31.86,31.86,0,0,1-5,2.07,15.07,15.07,0,0,1-4.48.76,10.64,10.64,0,0,1-4.08-.73,7.48,7.48,0,0,1-3-2.29,10.93,10.93,0,0,1-1.9-4,22.65,22.65,0,0,1-.65-5.79,32.25,32.25,0,0,1,.51-5.85,29.61,29.61,0,0,1,1.4-5.1,24.73,24.73,0,0,1,2.07-4.22,16.93,16.93,0,0,1,2.53-3.2,10.75,10.75,0,0,1,2.76-2,6.23,6.23,0,0,1,2.78-.71,6.12,6.12,0,0,1,2.37.42,4.74,4.74,0,0,1,1.67,1.17,5,5,0,0,1,1,1.78,7.08,7.08,0,0,1,.34,2.25,7.66,7.66,0,0,1-.3,1.93,12,12,0,0,1-1.09,2.59,26.1,26.1,0,0,1-2.18,3.29,39.6,39.6,0,0,1-3.58,4c-.41.42-.86.85-1.34,1.28s-1,.87-1.49,1.28-1,.81-1.5,1.19-1,.69-1.37,1a12.08,12.08,0,0,0,.43,2.87,5.73,5.73,0,0,0,1.16,2.25,5.23,5.23,0,0,0,2.07,1.45,8.5,8.5,0,0,0,3.15.52,13.08,13.08,0,0,0,4.22-.77,32.87,32.87,0,0,0,4.51-1.93,49.11,49.11,0,0,0,4.43-2.58c1.43-.93,2.76-1.84,4-2.71l.35-.23a.61.61,0,0,1,.3-.14.58.58,0,0,1,.47.34,1.78,1.78,0,0,1,.21.93,1.83,1.83,0,0,1-.1.53c-.07.23-.15.47-.24.71a5.5,5.5,0,0,1-.3.64A1.25,1.25,0,0,1,1028.81,355Zm-15.93-17.6a2.61,2.61,0,0,0-.54-1.73A1.73,1.73,0,0,0,1011,335a2.42,2.42,0,0,0-.7.24,5.58,5.58,0,0,0-.86.53,6.22,6.22,0,0,0-.88.76,4.88,4.88,0,0,0-.71.91,20.82,20.82,0,0,0-2.26,4.88,28.23,28.23,0,0,0-1.14,6.44c1.49-1.25,2.77-2.4,3.84-3.48a25.35,25.35,0,0,0,2.62-3,12.15,12.15,0,0,0,1.5-2.6A6,6,0,0,0,1012.88,337.38Z"/><path class="cls-3" d="M1062.47,344.72a4.56,4.56,0,0,1-.62,1.65q-1.49,2.34-3.31,4.68a52.83,52.83,0,0,1-8.16,8.38,36,36,0,0,1-4.5,3.15,22.79,22.79,0,0,1-4.52,2,13.6,13.6,0,0,1-4.35.69,8.83,8.83,0,0,1-7-2.9q-2.51-2.91-2.51-8.77a33.07,33.07,0,0,1,1.38-9.52,27.1,27.1,0,0,1,4.69-8.89,12.56,12.56,0,0,1,1.4-1.43,11.33,11.33,0,0,1,1.65-1.22,9,9,0,0,1,1.78-.84,7.69,7.69,0,0,1,1.86-.38,3.6,3.6,0,0,1,.63.07,5.52,5.52,0,0,1,.85.21,6.28,6.28,0,0,1,.88.4,2,2,0,0,1,.68.57,9.75,9.75,0,0,1,1.26,2.06A6.57,6.57,0,0,1,1045,337a9.54,9.54,0,0,1-.3,2.82,10.84,10.84,0,0,1-1.19,2.84,18.59,18.59,0,0,1-2.19,3,46.18,46.18,0,0,1-3.29,3.32l-2.71,2.48a37.83,37.83,0,0,1-3.59,2.86,6,6,0,0,0,1.66,4.6,6.34,6.34,0,0,0,4.55,1.57,11.88,11.88,0,0,0,3.26-.46,21,21,0,0,0,3.24-1.24,27.45,27.45,0,0,0,3.07-1.74c1-.66,1.93-1.33,2.79-2a57.25,57.25,0,0,0,4.37-3.85c1.31-1.28,2.6-2.63,3.89-4l1.53-1.68q1.38-1.35,2-1.35C1062.36,344.12,1062.47,344.32,1062.47,344.72Zm-21.66-6.21a5.66,5.66,0,0,0-.13-.92,3,3,0,0,0-.3-.8,1.75,1.75,0,0,0-.45-.54.91.91,0,0,0-.6-.21,4.45,4.45,0,0,0-3,2,22,22,0,0,0-2.84,5.07,10.19,10.19,0,0,0-.55,1.54c-.16.57-.31,1.15-.46,1.75s-.26,1.18-.36,1.76-.2,1.1-.27,1.56l2.72-2.25a28,28,0,0,0,2.32-2.12c.46-.46.92-.95,1.39-1.48a13.55,13.55,0,0,0,1.29-1.67,8.39,8.39,0,0,0,.93-1.81A5.19,5.19,0,0,0,1040.81,338.51Z"/><path class="cls-3" d="M1098.68,355.14a2.11,2.11,0,0,1-.13.59c-.08.27-.18.55-.29.83s-.24.55-.36.81a2.87,2.87,0,0,1-.3.54,33.78,33.78,0,0,1-2.29,3.28,17.79,17.79,0,0,1-2.51,2.6,10.74,10.74,0,0,1-2.81,1.72,8.24,8.24,0,0,1-3.19.61,3.59,3.59,0,0,1-1.43-.34,6.13,6.13,0,0,1-1.45-1,10.57,10.57,0,0,1-1.32-1.47,9.45,9.45,0,0,1-1-1.84,18.24,18.24,0,0,1-.89-2.73,32.77,32.77,0,0,1-.62-3.32c-.16-1.19-.28-2.43-.36-3.73s-.11-2.64-.11-4a47.76,47.76,0,0,1-9.19,12.92q-5.67,5.67-11.74,5.68a2.79,2.79,0,0,1-2.55-2,9.56,9.56,0,0,1-.88-4,15,15,0,0,1,.43-4.19,62.45,62.45,0,0,1,2.73-7.48,45.68,45.68,0,0,1,7.05-11.23,13.88,13.88,0,0,1,3.52-3.12,11.57,11.57,0,0,1,5.87-1.22,2.67,2.67,0,0,1,2.26,1.62,13.09,13.09,0,0,1,1.42,3.78A18.45,18.45,0,0,1,1079,342c.29-1,.54-2,.77-3.1s.43-2.14.6-3.26.32-2.3.46-3.54.27-2.56.39-4c0-.37.07-.85.11-1.43s.08-1.27.14-2.06c.11-1.63.23-3,.34-4.11a6.63,6.63,0,0,1,.46-2.16,2.44,2.44,0,0,1,2.38-1.28,3.76,3.76,0,0,1,1.67.4c.59.25.88.61.88,1.06a8.54,8.54,0,0,1-.13,1.22c-.08.56-.2,1.29-.35,2.18s-.36,2-.61,3.33-.54,2.89-.84,4.72c0,.21-.07.63-.17,1.25s-.2,1.28-.31,2-.22,1.34-.31,1.94-.15,1-.17,1.1c-.25,1.69-.43,3.28-.54,4.78s-.17,3-.17,4.52q0,7.95,1.18,11.89c.78,2.62,1.79,3.93,3,3.93a6,6,0,0,0,2.07-.36,7.9,7.9,0,0,0,2-1.08,15.07,15.07,0,0,0,2-1.79c.69-.72,1.4-1.56,2.16-2.51.43-.54.83-1,1.19-1.44a1.47,1.47,0,0,1,1-.62c.21,0,.35.17.41.51A5.11,5.11,0,0,1,1098.68,355.14Zm-22-8.46a1.73,1.73,0,0,1-1.12-.81,2.56,2.56,0,0,1-.38-1.4,13.27,13.27,0,0,1,.17-1.84,15.24,15.24,0,0,0,.17-1.88,3.58,3.58,0,0,0-.27-1.26,5.89,5.89,0,0,0-.7-1.31,5,5,0,0,0-1-1,1.65,1.65,0,0,0-1-.42c-1,0-2.37,1.15-4.09,3.46-.87,1.19-1.66,2.32-2.39,3.4s-1.4,2.16-2,3.22-1.23,2.19-1.69,3.15-.85,1.81-1.17,2.56a17.32,17.32,0,0,0-1.68,6.24c0,1.93.6,2.9,1.79,2.9s2.51-.68,4.37-2a33.43,33.43,0,0,0,4.42-3.87c1.08-1.25,2-2.3,2.69-3.15s1.29-1.54,1.7-2.06a11.27,11.27,0,0,0,1.15-1.75A22.14,22.14,0,0,0,1076.65,346.68Z"/><path class="cls-3" d="M1106.56,359.72a7.16,7.16,0,0,1,0,.85c0,.33-.1.71-.17,1.15a6.2,6.2,0,0,1-1.59,2.31q-1.5,1.59-2.13,1.59a2.35,2.35,0,0,1-2.19-.92,5.53,5.53,0,0,1-.56-2.79c0-.54,0-1,.05-1.41s.06-.74.09-1a2.6,2.6,0,0,1,1.17-1.46,3.3,3.3,0,0,1,1.67-.78,4.22,4.22,0,0,1,3.49,1.53A1.64,1.64,0,0,1,1106.56,359.72Zm.71-21.21a3.48,3.48,0,0,1-.48,1.53,4,4,0,0,1-.93,1.28,4.44,4.44,0,0,1-3.12,1.15c-.49,0-1-.5-1.53-1.5a5.4,5.4,0,0,1-.8-2.4,4.42,4.42,0,0,1,.68-1.78,6.68,6.68,0,0,1,1.16-1.59,2.94,2.94,0,0,1,1.88-.53,3.37,3.37,0,0,1,.85.44c.45.29.71.45.76.47q.35.27.54.45l.33.28.21.19c.06.05.11.11.17.17a1.32,1.32,0,0,1,.23.62A11.79,11.79,0,0,1,1107.27,338.51Z"/><rect class="cls-4" x="866" y="400.01" width="232" height="91.29" rx="26.68"/><path class="cls-5" d="M921.5,460.14a24.15,24.15,0,0,1,2.54.3,8.82,8.82,0,0,0,1.46.17q3.27,0,3.77-5.67.27-3.22.27-18.3a4.61,4.61,0,0,0-.85-3.18,4.2,4.2,0,0,0-3.08-.88,14,14,0,0,0-1.54.12,11.7,11.7,0,0,1-1.34.09,2.88,2.88,0,0,1-2.12-.79,2.71,2.71,0,0,1-.81-2.05,4,4,0,0,1,1.23-2.69,10.81,10.81,0,0,1,3.43-2.35,54.08,54.08,0,0,1,23.17-5.08,10.25,10.25,0,0,1,4.87.87,3,3,0,0,1,1.52,2.77,2.67,2.67,0,0,1-.5,1.72,6,6,0,0,1-2,1.33c-1.59.76-2.5,1.69-2.73,2.8s-.42,5.39-.54,12.87c.2,7.56.32,11.62.34,12.15a18.47,18.47,0,0,0,.31,2.25,4.7,4.7,0,0,0,1.73,3.09,9.61,9.61,0,0,0,4.47,1q3.61.17,3.62,3.26t-5.12,4.23a76,76,0,0,1-14.63,1.4,64,64,0,0,1-9.31-.64,39.83,39.83,0,0,1-8.55-2.07c-2-.79-3-2-3-3.56a3,3,0,0,1,1-2.2A3.48,3.48,0,0,1,921.5,460.14Z"/><path class="cls-5" d="M992.24,468.4H966c-2.31,0-3.47-.72-3.47-2.16a3.29,3.29,0,0,1,.74-2.05q.72-1,4.73-5.1a68,68,0,0,0,11-14.36,12.74,12.74,0,0,0,1.85-5.84,4.88,4.88,0,0,0-1.12-3.37,3.84,3.84,0,0,0-3-1.25,5.58,5.58,0,0,0-2.7.53,34.12,34.12,0,0,0-4.08,3.45,3.18,3.18,0,0,1-2.23.76,4.6,4.6,0,0,1-3.33-1.54,4.76,4.76,0,0,1-1.52-3.37,7,7,0,0,1,1.39-3.75,18.35,18.35,0,0,1,3.65-4,29.1,29.1,0,0,1,18.44-6.56q7.7,0,12.74,3.26a10.83,10.83,0,0,1,3.66,4.15,12,12,0,0,1,1.38,5.59q0,7.41-9.31,16.09c-2.21,2-3.31,3.56-3.31,4.58a2.51,2.51,0,0,0,1,2,3.68,3.68,0,0,0,2.42.82,8,8,0,0,0,6-2.88,14.65,14.65,0,0,1,1.79-1.73,2.12,2.12,0,0,1,1.21-.3q3.39,0,3.39,6.35a20.13,20.13,0,0,1-1.1,6.44,18.51,18.51,0,0,1-3,5.63,5.63,5.63,0,0,1-4.39,2.54,2.49,2.49,0,0,1-1.54-.44,6.24,6.24,0,0,1-1.31-1.67,3.75,3.75,0,0,0-1.37-1.53A6.08,6.08,0,0,0,992.24,468.4Z"/><path class="cls-5" d="M1032,419.53a20,20,0,0,1,10.16,2.84,23.41,23.41,0,0,1,9.9,11.35,28.88,28.88,0,0,1,2.42,11.73q0,11.35-7.89,18.59a19.9,19.9,0,0,1-13.78,5.51,19.6,19.6,0,0,1-14.55-6.14q-7.12-7.25-7.12-19.36,0-11.81,6.5-18.55A19.1,19.1,0,0,1,1032,419.53Zm-.88,12.62q-3.58,0-3.58,6.69a39.07,39.07,0,0,0,3,15.76c.79,1.8,1.86,2.71,3.19,2.71,2.34,0,3.5-2.27,3.5-6.82a48,48,0,0,0-.75-8.15,32.26,32.26,0,0,0-1.9-7C1033.77,433.28,1032.6,432.24,1031.12,432.15Z"/><path class="cls-3" d="M753.51,563.41a2.16,2.16,0,0,1-.32,1.18,2.78,2.78,0,0,1-.85.89,4,4,0,0,1-1.16.55,4.35,4.35,0,0,1-1.27.19,11.56,11.56,0,0,1-3.41-.61,35.3,35.3,0,0,1-4-1.56c-1.37-.63-2.74-1.33-4.11-2.08s-2.66-1.47-3.86-2.16L731.38,558a17,17,0,0,0-2-1.09,8.73,8.73,0,0,0-1.21,1,17.86,17.86,0,0,0-1.33,1.52,14.93,14.93,0,0,0-1.11,1.6,4.29,4.29,0,0,0-.55,1.27,9.48,9.48,0,0,1-.08,1.6,10,10,0,0,0-.12,1.49,9.67,9.67,0,0,1-.18,2,3,3,0,0,1-.57,1.28,2,2,0,0,1-1,.66,4.88,4.88,0,0,1-1.42.19c-.68,0-1.11-.19-1.29-.55a4.21,4.21,0,0,1-.27-1.76c0-.69.07-1.64.19-2.84s.29-2.59.5-4.15.43-3.26.69-5.1.51-3.74.75-5.7.48-3.93.71-5.92.41-3.93.54-5.81c0-.54.08-1.22.13-2s.09-1.7.12-2.64.09-1.89.15-2.88.11-1.92.17-2.81.11-1.68.18-2.4.14-1.28.21-1.67a2.24,2.24,0,0,1,.34-1,4.08,4.08,0,0,1,.77-.89,3.77,3.77,0,0,1,1-.62,2.45,2.45,0,0,1,1-.24,2.07,2.07,0,0,1,1,.25,4.67,4.67,0,0,1,.84.59,3.2,3.2,0,0,1,.59.75,1.39,1.39,0,0,1,.23.69,28.53,28.53,0,0,1-.27,3.46c-.18,1.42-.41,3-.69,4.79s-.61,3.69-1,5.74-.71,4.16-1.05,6.32-.65,4.34-.95,6.52-.52,4.3-.69,6.33a61.74,61.74,0,0,0,4.71-4.94q2.11-2.52,3.9-4.87c1.18-1.57,2.26-3,3.26-4.43s1.92-2.59,2.79-3.62a15.53,15.53,0,0,1,2.49-2.43,4,4,0,0,1,2.39-.89,1.35,1.35,0,0,1,.78.22,1.91,1.91,0,0,1,.53.53,2.31,2.31,0,0,1,.32.65,2.56,2.56,0,0,1,.1.63,2.84,2.84,0,0,1-.56,1.23,23.06,23.06,0,0,1-1.49,2c-.62.77-1.33,1.61-2.12,2.53s-1.61,1.84-2.46,2.78l-2.49,2.73c-.82.88-1.58,1.68-2.27,2.4s-1.27,1.31-1.74,1.79l-.91.91q.93.65,2.52,1.56c1.06.6,2.22,1.23,3.48,1.88s2.55,1.31,3.9,2,2.61,1.25,3.81,1.78,2.27,1,3.22,1.31a12,12,0,0,0,2.13.61,2.64,2.64,0,0,1,1.26.37A.92.92,0,0,1,753.51,563.41Z"/><path class="cls-3" d="M804.13,546a4.16,4.16,0,0,1-.18,1.2,12.12,12.12,0,0,1-.46,1.22,11,11,0,0,1-.61,1.18c-.22.39-.44.76-.65,1.11a28.2,28.2,0,0,1-1.93,2.86c-.74,1-1.52,1.9-2.37,2.82s-1.7,1.78-2.59,2.59a31.43,31.43,0,0,1-2.61,2.15c-.68.5-1.33,1-1.94,1.4a13.59,13.59,0,0,1-1.86,1.13,10.92,10.92,0,0,1-1.95.75,8.83,8.83,0,0,1-2.25.28,5.55,5.55,0,0,1-3.82-1.31,6.19,6.19,0,0,1-1.29-1.7,14.7,14.7,0,0,1-1-2.33,27.37,27.37,0,0,1-.71-2.71c-.19-1-.36-1.9-.49-2.84-.17-1.17-.33-2.21-.48-3.14a18.91,18.91,0,0,0-.53-2.34,4.41,4.41,0,0,0-.72-1.46,1.36,1.36,0,0,0-1.11-.52,4.19,4.19,0,0,0-1,.13,3.06,3.06,0,0,0-1,.5,7.12,7.12,0,0,0-1.14,1.06,22.08,22.08,0,0,0-1.46,1.81c-.56.75-1.2,1.66-1.92,2.74s-1.56,2.37-2.52,3.87c-.48.73-1,1.53-1.68,2.4s-1.3,1.71-2,2.5a23.74,23.74,0,0,1-2,2.09,5,5,0,0,1-1.7,1.15q-2.49-.59-2.49-6.83c0-1.1.11-2.77.34-5,.11-1,.24-2.09.39-3.2s.34-2.22.57-3.34.49-2.19.78-3.24a20.82,20.82,0,0,1,1-2.92,3.84,3.84,0,0,1,.59-1,2.17,2.17,0,0,1,.64-.53,1.87,1.87,0,0,1,.68-.22,5.81,5.81,0,0,1,.72,0c.31,0,.57.23.81.69a4.14,4.14,0,0,1,.36,1.9,7.88,7.88,0,0,1-.12,1.41,12.2,12.2,0,0,1-.31,1.34c-.13.46-.27.95-.43,1.48s-.3,1.14-.45,1.83-.24,1.18-.38,1.87-.28,1.38-.4,2.09-.23,1.4-.31,2.07a14,14,0,0,0-.13,1.83,4.27,4.27,0,0,0,.17,1.15c.53-.06,1.4-.93,2.61-2.62l2.06-2.81c.74-1,1.55-2.14,2.42-3.37.64-.91,1.28-1.76,1.91-2.55a15.84,15.84,0,0,1,2-2.08,8.63,8.63,0,0,1,2.17-1.4,6,6,0,0,1,2.53-.52,4.18,4.18,0,0,1,2.46.7,5.08,5.08,0,0,1,1.57,1.94,11.79,11.79,0,0,1,.92,3c.22,1.14.39,2.4.53,3.77.11,1.17.22,2.32.32,3.46a14.12,14.12,0,0,0,.61,3.08,5.52,5.52,0,0,0,1.31,2.2,3.31,3.31,0,0,0,2.43.84,6,6,0,0,0,2.56-.63,15.81,15.81,0,0,0,2.8-1.73,33.66,33.66,0,0,0,3-2.6q1.58-1.5,3.25-3.28a18.56,18.56,0,0,0,1.43-1.73q.78-1.05,1.53-2a20.4,20.4,0,0,1,1.41-1.66c.43-.45.78-.68,1-.68a1.44,1.44,0,0,1,.56.19A.64.64,0,0,1,804.13,546Z"/><path class="cls-3" d="M838.36,540.76a2.49,2.49,0,0,1-.34,1.15,7.87,7.87,0,0,1-.88,1.27,14.25,14.25,0,0,1-1.22,1.25c-.46.4-.91.78-1.36,1.12s-.89.64-1.29.9a9.53,9.53,0,0,1-1,.58,9.72,9.72,0,0,1-1.94.61c-.81.18-1.64.33-2.51.45s-1.72.23-2.55.3-1.54.11-2.1.11a4.48,4.48,0,0,1-.94-.13c-.4-.08-.8-.19-1.22-.31a11.42,11.42,0,0,1-1.17-.42,2.86,2.86,0,0,1-.81-.48c.17.79.32,1.58.45,2.38a15.47,15.47,0,0,1,.2,2.48,8.42,8.42,0,0,1-.13,1.37,15.93,15.93,0,0,1-.34,1.64c-.14.55-.3,1.08-.47,1.59a7.44,7.44,0,0,1-.54,1.27,26,26,0,0,1-1.51,2.49,14.56,14.56,0,0,1-1.76,2.08,17.29,17.29,0,0,1-2.2,1.79,22,22,0,0,1-2.81,1.62A13.68,13.68,0,0,1,806.5,567a18.86,18.86,0,0,1-3.56.33,3.14,3.14,0,0,1-2.07-.75,5.88,5.88,0,0,1-1.53-2,11.25,11.25,0,0,1-1-2.92,17.59,17.59,0,0,1-.33-3.46c0-.31,0-.7.07-1.16s.12-.92.2-1.4.18-.93.27-1.37.19-.81.28-1.12a28.4,28.4,0,0,1,1.14-3c.49-1.12,1.07-2.27,1.73-3.45a38,38,0,0,1,2.21-3.46,24.37,24.37,0,0,1,2.55-3,12.61,12.61,0,0,1,2.78-2.15,5.78,5.78,0,0,1,2.89-.82,1.74,1.74,0,0,1,.78.16,1.71,1.71,0,0,1,.51.41,3.45,3.45,0,0,1,.39.53,5.72,5.72,0,0,0,.39.56.29.29,0,0,0,.26.15,1.81,1.81,0,0,0,.57-.12,2.24,2.24,0,0,1,.76-.13,2.2,2.2,0,0,1,1.33.77c.53.51,1.09,1.07,1.66,1.68s1.16,1.18,1.73,1.69a2.48,2.48,0,0,0,1.55.76l1.64,0c.59,0,1.18-.06,1.79-.11s1.2-.12,1.79-.2,1.12-.18,1.61-.28l.94-.28,1.71-.52c.66-.19,1.35-.41,2.07-.64l2-.64,1.55-.48c.4-.12.62-.19.66-.19a.48.48,0,0,1,.31.1A.36.36,0,0,1,838.36,540.76Zm-22.12,5a3.33,3.33,0,0,0-.67-1.21,6.75,6.75,0,0,0-1.13-1.07,7,7,0,0,0-1.35-.76,3.43,3.43,0,0,0-1.33-.3,2.81,2.81,0,0,0-1,.19,6,6,0,0,0-.95.48,8.31,8.31,0,0,0-.9.66l-.79.67A11.2,11.2,0,0,0,806,547.3a26.3,26.3,0,0,0-1.76,4,34,34,0,0,0-1.21,4.26,18,18,0,0,0-.45,3.68,4.15,4.15,0,0,0,.21,1.32,3.51,3.51,0,0,0,.61,1.13,3.35,3.35,0,0,0,.94.78,2.38,2.38,0,0,0,1.19.29,7.39,7.39,0,0,0,3.15-.67,9.16,9.16,0,0,0,2.62-1.84,12.52,12.52,0,0,0,2.08-2.79,19.19,19.19,0,0,0,1.53-3.51,23.61,23.61,0,0,0,1-4A29.52,29.52,0,0,0,816.24,545.75Z"/><path class="cls-3" d="M894.64,536.33a3.48,3.48,0,0,1-.2.94c-.13.43-.29.89-.48,1.35s-.37.91-.55,1.33a4.21,4.21,0,0,1-.44.84q-1.28,1.9-2.55,3.45a18.07,18.07,0,0,1-2.68,2.65,10.87,10.87,0,0,1-3,1.7,10.07,10.07,0,0,1-3.56.59,5.21,5.21,0,0,1-1.68-.32,13,13,0,0,1-1.79-.8c-.58-.31-1.12-.64-1.63-1s-.92-.64-1.22-.89c-.72.52-1.38,1.71-2,3.59s-1.24,4.25-1.88,7.14c-.21.92-.45,1.88-.71,2.89s-.57,2-.9,3-.68,1.91-1.06,2.82a19.7,19.7,0,0,1-1.19,2.39,7.08,7.08,0,0,1-1.32,1.63,2.14,2.14,0,0,1-1.43.61,3.89,3.89,0,0,1-2.38-.79,8.75,8.75,0,0,1-2-2.08,16.54,16.54,0,0,1-1.61-2.93c-.47-1.1-.89-2.23-1.27-3.39s-.72-2.28-1-3.38-.55-2.08-.78-2.93-.42-1.55-.59-2.08-.33-.79-.46-.79-.31.21-.54.65-.46,1-.72,1.65-.51,1.4-.78,2.2-.52,1.58-.77,2.33-.45,1.42-.63,2-.32,1-.41,1.23c-.33.94-.75,2-1.27,3.12a31.32,31.32,0,0,1-1.67,3.22,16.14,16.14,0,0,1-1.81,2.51,2.52,2.52,0,0,1-1.69,1,2.59,2.59,0,0,1-1.84-.78,9.93,9.93,0,0,1-1.48-1.78,8.49,8.49,0,0,1-.59-1.18c-.23-.52-.47-1.1-.71-1.73s-.49-1.3-.74-2-.47-1.35-.67-2-.37-1.15-.52-1.62-.26-.79-.31-1c-.29-1-.6-2-.94-3.28s-.66-2.48-1-3.76-.54-2.52-.74-3.72a21.05,21.05,0,0,1-.29-3.22c0-2.56,1.06-3.83,3.2-3.83a1,1,0,0,1,.65.25,2.24,2.24,0,0,1,.56.67,5.22,5.22,0,0,1,.42,1c.12.35.23.72.33,1.09s.11.63.17,1.09.11.93.17,1.42.1,1,.14,1.42.07.81.08,1.06c.12,1.1.27,2.22.47,3.34s.42,2.21.65,3.27.5,2.06.78,3,.57,1.74.85,2.42a9.13,9.13,0,0,0,.84,1.62q.42.6.75.6c.34,0,.71-.28,1.11-.83a13.42,13.42,0,0,0,1.23-2.18c.43-.91.85-1.93,1.28-3.08s.85-2.32,1.27-3.52.85-2.39,1.25-3.56.79-2.2,1.15-3.12c.28-.68.58-1.37.89-2.06s.63-1.3.94-1.84a7.57,7.57,0,0,1,.91-1.31,1.19,1.19,0,0,1,.8-.5,2.37,2.37,0,0,1,1.85.72,3.41,3.41,0,0,1,.79,2q.25,2.2.57,4c.21,1.21.43,2.34.67,3.4s.49,2.07.76,3,.56,1.93.87,2.93a19.63,19.63,0,0,0,1,2.6,9.4,9.4,0,0,0,.94,1.6,3,3,0,0,0,.82.79,1.35,1.35,0,0,0,.64.22c.47,0,.92-.33,1.33-1a12.31,12.31,0,0,0,1.18-2.62c.37-1.1.72-2.35,1.05-3.76s.64-2.87.95-4.37c.2-1,.44-2.11.71-3.26a25.36,25.36,0,0,1,1-3.34,14.4,14.4,0,0,1,1.52-3A6.57,6.57,0,0,1,874,540c.42,0,.8.09,1.15.14a3.55,3.55,0,0,1,1.87.89,6,6,0,0,1,.84,1,4.45,4.45,0,0,0,.92.92,7.08,7.08,0,0,0,1.17.72,6.22,6.22,0,0,0,1.27.45,5.12,5.12,0,0,0,1.17.16,6.67,6.67,0,0,0,3.16-.75,10.88,10.88,0,0,0,2.67-2,22.72,22.72,0,0,0,2.37-2.83c.75-1.06,1.52-2.14,2.29-3.24a4.65,4.65,0,0,1,.42-.45.79.79,0,0,1,.52-.3c.19,0,.37.15.55.44A2.09,2.09,0,0,1,894.64,536.33Z"/><path class="cls-3" d="M915.06,555.11a1.79,1.79,0,0,1-.38.84,11.55,11.55,0,0,1-1,1.25c-.42.46-.89.94-1.42,1.44s-1.06,1-1.59,1.4a50.26,50.26,0,0,1-7.58,5.44,12.31,12.31,0,0,1-5.86,1.83,5.38,5.38,0,0,1-2.34-.58,5.88,5.88,0,0,1-2.19-2,11.52,11.52,0,0,1-1.63-3.69,21.58,21.58,0,0,1-.64-5.75c0-.94,0-2,.11-3.15s.18-2.38.3-3.65.26-2.57.41-3.89.31-2.61.48-3.88.34-2.47.51-3.6.33-2.16.48-3.08.28-1.57.44-2.4.33-1.66.5-2.48.34-1.6.5-2.34.31-1.4.46-2a15.88,15.88,0,0,1,.63-1.76,11.89,11.89,0,0,1,.91-1.78,6.5,6.5,0,0,1,1.09-1.37,1.7,1.7,0,0,1,1.17-.55,2.38,2.38,0,0,1,1.05.19,1.45,1.45,0,0,1,.63.54,2.22,2.22,0,0,1,.3.83,8.07,8.07,0,0,1,.07,1,17.14,17.14,0,0,1-.46,3.38c-.3,1.41-.66,2.9-1.09,4.48s-.85,3.17-1.29,4.78-.79,3-1.08,4.27c-.09.48-.2,1.08-.31,1.81s-.22,1.53-.31,2.42-.19,1.82-.27,2.8-.16,2-.23,2.95-.12,1.94-.15,2.87-.06,1.8-.06,2.59a19.08,19.08,0,0,0,.35,4,7.64,7.64,0,0,0,.93,2.42,2.91,2.91,0,0,0,1.27,1.17,3.62,3.62,0,0,0,1.42.3,7.77,7.77,0,0,0,2.41-.41,14,14,0,0,0,2.68-1.25,34.19,34.19,0,0,0,3.11-2.1q1.67-1.28,3.68-3c.36-.31.69-.62,1-.91l.78-.79a4.22,4.22,0,0,1,.62-.56.92.92,0,0,1,.54-.21,1,1,0,0,1,.74.44A2.67,2.67,0,0,1,915.06,555.11Z"/><path class="cls-3" d="M947,546.75a4.37,4.37,0,0,1-.62,1.65,55.75,55.75,0,0,1-3.3,4.68,55.06,55.06,0,0,1-3.89,4.45,52.69,52.69,0,0,1-4.28,3.93,34,34,0,0,1-4.49,3.15,21.77,21.77,0,0,1-4.53,2,13.6,13.6,0,0,1-4.35.69,8.85,8.85,0,0,1-7.05-2.9q-2.5-2.91-2.5-8.77a33,33,0,0,1,1.37-9.51,27.19,27.19,0,0,1,4.69-8.89,13.63,13.63,0,0,1,1.41-1.44,12,12,0,0,1,1.64-1.22,9.09,9.09,0,0,1,1.79-.84,7.06,7.06,0,0,1,1.86-.37,4.79,4.79,0,0,1,1.47.28,4.92,4.92,0,0,1,.88.39,2,2,0,0,1,.68.58,9.3,9.3,0,0,1,1.26,2.05,6.57,6.57,0,0,1,.53,2.34,10.36,10.36,0,0,1-.3,2.83,11.89,11.89,0,0,1-1.19,2.84,19.1,19.1,0,0,1-2.2,3,44.18,44.18,0,0,1-3.29,3.32c-.81.75-1.71,1.58-2.71,2.48a38.91,38.91,0,0,1-3.58,2.86A6.06,6.06,0,0,0,918,561a6.37,6.37,0,0,0,4.56,1.58,12,12,0,0,0,3.26-.47,20.19,20.19,0,0,0,3.23-1.23,27.66,27.66,0,0,0,3.08-1.75q1.49-1,2.79-2c1.61-1.29,3.06-2.58,4.37-3.86s2.59-2.62,3.88-4l1.53-1.68c.93-.9,1.6-1.34,2-1.34C946.93,546.16,947,546.36,947,546.75Zm-21.66-6.21a5.66,5.66,0,0,0-.13-.92,2.54,2.54,0,0,0-.29-.79,2.13,2.13,0,0,0-.46-.55.9.9,0,0,0-.59-.2,4.4,4.4,0,0,0-3,2,22.59,22.59,0,0,0-2.84,5.07,11.93,11.93,0,0,0-.55,1.54c-.16.58-.31,1.16-.45,1.75s-.27,1.18-.37,1.76-.19,1.11-.27,1.56l2.72-2.24c.83-.69,1.61-1.4,2.33-2.12.45-.46.91-1,1.39-1.49a14.86,14.86,0,0,0,1.29-1.67,8.82,8.82,0,0,0,.92-1.81A5,5,0,0,0,925.38,540.54Z"/><path class="cls-3" d="M987.65,546.75a3.62,3.62,0,0,1-.34,1.53,24.77,24.77,0,0,1-2.86,4.21c-.72.94-1.49,1.86-2.3,2.76s-1.67,1.83-2.58,2.76-1.79,1.78-2.64,2.53-1.68,1.42-2.49,2c-1.61,1.2-2.9,1.81-3.86,1.81a3.51,3.51,0,0,1-1.45-.44,6.34,6.34,0,0,1-2.83-3.31,21.94,21.94,0,0,1-1.45-5q-.42-2.62-.71-5.86A47.67,47.67,0,0,1,955,562.66q-5.67,5.69-11.74,5.68a2.77,2.77,0,0,1-2.55-2,9.56,9.56,0,0,1-.88-4,15.35,15.35,0,0,1,.42-4.18,64.4,64.4,0,0,1,2.74-7.49,47.54,47.54,0,0,1,3.75-6.86,50,50,0,0,1,3.29-4.37,13.88,13.88,0,0,1,3.52-3.12,11.59,11.59,0,0,1,5.87-1.22,2.68,2.68,0,0,1,2.27,1.63,13.75,13.75,0,0,1,1.42,3.77,18.44,18.44,0,0,1,.48,3.56c.28-1,.54-2.06.76-3.11s.43-2.13.6-3.26.33-2.3.47-3.54.27-2.56.38-4c0-.37.08-.85.11-1.43s.09-1.27.15-2.06c.11-1.62.22-3,.34-4.1a6.46,6.46,0,0,1,.45-2.17,2.47,2.47,0,0,1,2.38-1.28,3.83,3.83,0,0,1,1.67.4c.59.25.88.61.88,1.07a9.68,9.68,0,0,1-.12,1.21q-.14.84-.36,2.19c-.15.89-.35,2-.61,3.32s-.53,2.9-.84,4.73c0,.2-.07.62-.16,1.24s-.2,1.29-.32,2-.21,1.35-.31,1.94-.15,1-.17,1.11c-.25,1.68-.44,3.26-.59,4.74a41.66,41.66,0,0,0-.23,4.49c0,1.21,0,2.63.08,4.27a44,44,0,0,0,.43,4.84q.35,2.34,1,2.34,2.33,0,5.62-2.34a51.65,51.65,0,0,0,6.29-5.43q3-3.06,5.39-5.83a.45.45,0,0,1,.31-.19c.21,0,.35.17.41.52A5,5,0,0,1,987.65,546.75Zm-26.43,2a1.76,1.76,0,0,1-1.12-.81,2.65,2.65,0,0,1-.38-1.4,15.06,15.06,0,0,1,.17-1.84,15.28,15.28,0,0,0,.17-1.87,3.58,3.58,0,0,0-.27-1.27,6.56,6.56,0,0,0-.69-1.31,5.24,5.24,0,0,0-1-1,1.68,1.68,0,0,0-1-.42q-1.5,0-4.08,3.47c-.87,1.18-1.67,2.32-2.4,3.4s-1.39,2.15-2,3.21S947.41,551,947,552s-.86,1.81-1.18,2.56a17.26,17.26,0,0,0-1.67,6.24c0,1.93.59,2.9,1.78,2.9s2.52-.68,4.37-2a31.45,31.45,0,0,0,4.42-3.87q1.62-1.86,2.7-3.15c.71-.85,1.28-1.54,1.7-2.06a12.49,12.49,0,0,0,1.15-1.74A22.39,22.39,0,0,0,961.22,548.71Z"/><path class="cls-3" d="M1007.5,539.14a1.24,1.24,0,0,1-.16.51c-.1.22-.21.44-.34.67l-.36.66a1.52,1.52,0,0,0-.22.47c-.3,1.43-.54,2.81-.71,4.15s-.3,2.71-.39,4.15-.14,2.74-.19,4.18-.09,2.86-.13,4.28-.08,2.8-.14,4.12-.12,2.54-.2,3.64a31.15,31.15,0,0,1-1.21,6.94,17.16,17.16,0,0,1-2.5,5.15,10.56,10.56,0,0,1-3.67,3.19,10.1,10.1,0,0,1-4.72,1.1,13.24,13.24,0,0,1-3.25-.42,21,21,0,0,1-3.35-1.19,33.52,33.52,0,0,1-3.38-1.79c-1.14-.69-2.25-1.44-3.35-2.25a3.69,3.69,0,0,1-.53-.41,12.64,12.64,0,0,1-.93-.9,7.61,7.61,0,0,1-.88-1.15,1.9,1.9,0,0,1-.33-1.16.87.87,0,0,1,.2-.48,1.3,1.3,0,0,1,.41-.33,2.81,2.81,0,0,1,.46-.19A1.3,1.3,0,0,1,978,572a1.91,1.91,0,0,1,.84.37c.39.25.84.56,1.35.91s1.06.73,1.66,1.12a13.62,13.62,0,0,0,1.8,1c.41.23,1,.5,1.65.8s1.44.59,2.25.87a24,24,0,0,0,2.49.72,10.81,10.81,0,0,0,2.45.29,6.33,6.33,0,0,0,5.49-2.68q1.92-2.69,2.31-7.74c.08-.85.16-1.77.26-2.76s.18-2.07.27-3.26.17-2.49.25-3.91.16-3,.21-4.7c-.36.38-.79.85-1.3,1.41s-1.06,1.15-1.66,1.76-1.21,1.21-1.86,1.78a17.24,17.24,0,0,1-1.9,1.48c-.22.17-.59.41-1.09.72a18.85,18.85,0,0,1-1.71.93,16.25,16.25,0,0,1-2.05.83,6.45,6.45,0,0,1-2.07.36,6.1,6.1,0,0,1-2.29-.42,6.18,6.18,0,0,1-1.8-1.09,5.16,5.16,0,0,1-1.18-1.52,3.8,3.8,0,0,1-.43-1.71,13.25,13.25,0,0,1,.51-3.33,24.69,24.69,0,0,1,1.62-4.21,41.37,41.37,0,0,1,2.84-4.9,50.46,50.46,0,0,1,4.17-5.38,14.45,14.45,0,0,1,1.3-1.31c.51-.45,1.06-.91,1.66-1.36s1.22-.87,1.88-1.29a19.71,19.71,0,0,1,2-1.09,14.61,14.61,0,0,1,2-.75,6.46,6.46,0,0,1,1.82-.28,5.27,5.27,0,0,1,1.83.37,7.09,7.09,0,0,1,1.9,1.08,6.39,6.39,0,0,1,1.5,1.72A4.26,4.26,0,0,1,1007.5,539.14Zm-4.71.25a.72.72,0,0,0-.1-.56,1.35,1.35,0,0,0-.42-.44,2.59,2.59,0,0,0-.57-.3,1.62,1.62,0,0,0-.52-.11q-3.55,0-7.83,4.87a28.18,28.18,0,0,0-2.88,3.85q-1.29,2.09-2.21,3.93a34.21,34.21,0,0,0-1.43,3.26,7.13,7.13,0,0,0-.51,1.88,2.49,2.49,0,0,0,.61,1.9,2,2,0,0,0,1.43.56,5.37,5.37,0,0,0,2.35-.64,19,19,0,0,0,2.6-1.54,24.39,24.39,0,0,0,2.39-1.91,22.85,22.85,0,0,0,1.76-1.71c.68-.71,1.24-1.31,1.66-1.8a8.89,8.89,0,0,0,1.06-1.45,9.37,9.37,0,0,0,.76-1.59c.21-.58.45-1.33.72-2.24A12.21,12.21,0,0,0,1002,544c.09-.53.19-1.08.3-1.64s.2-1.1.28-1.62S1002.72,539.76,1002.79,539.39Z"/><path class="cls-3" d="M1041.87,552.77a4.81,4.81,0,0,1-.74,2.37A19,19,0,0,1,1039,558a27.94,27.94,0,0,1-3.43,3.36,27.57,27.57,0,0,1-3.86,2.68,20.37,20.37,0,0,1-4,1.79,12.81,12.81,0,0,1-3.94.66,8.2,8.2,0,0,1-6.89-3.15q-2.45-3.15-2.44-9.24a25.38,25.38,0,0,1,.31-3.94,27.32,27.32,0,0,1,.92-4,26.13,26.13,0,0,1,1.53-3.81,22.2,22.2,0,0,1,2.14-3.43c.51-.64,1.08-1.3,1.7-2a13.64,13.64,0,0,1,2.07-1.8,10.88,10.88,0,0,1,2.49-1.29,8.16,8.16,0,0,1,2.93-.5,4.27,4.27,0,0,1,2,.48,4.89,4.89,0,0,1,1.53,1.23,5.12,5.12,0,0,1,1,1.69,5.51,5.51,0,0,1,.33,1.84,8.76,8.76,0,0,1-.94,3.85,18.1,18.1,0,0,1-2.63,3.93,34.51,34.51,0,0,1-4.09,4,61.4,61.4,0,0,1-5.3,4c-.26.17-.53.35-.79.55a.88.88,0,0,0-.4.73,8.71,8.71,0,0,0,.23,2,5.19,5.19,0,0,0,.82,1.88,4.6,4.6,0,0,0,1.6,1.42,5.18,5.18,0,0,0,2.57.56,12.41,12.41,0,0,0,4-.7,19.07,19.07,0,0,0,4-2,26.59,26.59,0,0,0,3.83-3,36,36,0,0,0,3.48-3.71c.6-.73,1.08-1.1,1.44-1.1s.36.14.46.41A4.66,4.66,0,0,1,1041.87,552.77Zm-13.16-13.32a1.18,1.18,0,0,0-.17-.62,1.56,1.56,0,0,0-.41-.47,1.9,1.9,0,0,0-.51-.3,1.37,1.37,0,0,0-.47-.11,4.29,4.29,0,0,0-2.55,1,10.69,10.69,0,0,0-2.44,2.74,19,19,0,0,0-2,4.14A23.34,23.34,0,0,0,1019,551a12.86,12.86,0,0,0,1-.81c.44-.35.9-.74,1.41-1.17l1.5-1.29c.5-.44.95-.84,1.34-1.22.87-.81,1.59-1.53,2.16-2.17a12.55,12.55,0,0,0,1.35-1.74,5.57,5.57,0,0,0,.69-1.56A6.51,6.51,0,0,0,1028.71,539.45Z"/><path class="cls-3" d="M1112.08,544.32a5.81,5.81,0,0,1-.6,2.3,2.62,2.62,0,0,1-.49.74c-.24.26-.49.51-.74.76s-.51.48-.75.67-.43.35-.54.46a27.43,27.43,0,0,1-2.41,1.88c-1,.7-2.08,1.44-3.28,2.22s-2.47,1.57-3.81,2.37-2.69,1.59-4,2.35-2.64,1.5-3.91,2.19-2.42,1.29-3.46,1.81a16.48,16.48,0,0,0-2.16,1.26c-.68.47-1.34.91-2,1.31a12.83,12.83,0,0,1-2,1,5.47,5.47,0,0,1-2.09.4,4.86,4.86,0,0,1-1.27-.17,3.12,3.12,0,0,1-1.09-.55,2.81,2.81,0,0,1-.78-1,3,3,0,0,1-.29-1.39,1.35,1.35,0,0,1,.26-.81,3,3,0,0,1,.7-.67,5.64,5.64,0,0,1,.94-.54,10.41,10.41,0,0,1,1-.44q.51-.22,1.2-.45l1.41-.47,1.37-.48a12.23,12.23,0,0,0,1.15-.5,8.2,8.2,0,0,0,1.7-1.35,15.08,15.08,0,0,0,1.48-1.77c.45-.65.87-1.32,1.27-2s.77-1.36,1.11-2c.22-.44.44-.92.65-1.46s.39-1.09.55-1.63a12.65,12.65,0,0,0,.37-1.54,7,7,0,0,0,.13-1.23,6.07,6.07,0,0,0-.85-3.43,2.49,2.49,0,0,0-2.13-1.28,3.9,3.9,0,0,0-1.83.57,16.65,16.65,0,0,0-2.07,1.39,22.75,22.75,0,0,0-1.93,1.7c-.59.59-1.07,1.1-1.43,1.51a30.46,30.46,0,0,0-2.45,3.33c-.77,1.19-1.49,2.42-2.17,3.68s-1.32,2.52-1.93,3.79-1.16,2.49-1.67,3.65c-.23,1-.45,2.06-.67,3.24s-.38,2.49-.49,3.9q-.32,4.22-.47,7.52a49.54,49.54,0,0,1-.64,6,3.61,3.61,0,0,1-.82,1.77,2.13,2.13,0,0,1-1.7.76,2.1,2.1,0,0,1-.74-.17,3.39,3.39,0,0,1-.81-.48,3.63,3.63,0,0,1-.65-.71,1.46,1.46,0,0,1-.27-.85c0-.69,0-1.54.13-2.55s.18-2,.3-3,.22-1.94.32-2.77.18-1.42.21-1.75c.27-2.14.51-4.46.71-6.94s.38-5.2.51-8.13c0-.62,0-1.45.07-2.48s.06-2.07.09-3.12.06-2,.08-2.93.07-1.55.1-1.92c.27-4,1.21-6,2.84-6a1.72,1.72,0,0,1,.92.27,2.94,2.94,0,0,1,.78.68,3.3,3.3,0,0,1,.54,1,3,3,0,0,1,.2,1,14.43,14.43,0,0,1-.21,2.36c-.15.84-.3,1.7-.47,2.59s-.33,1.75-.47,2.6a14.68,14.68,0,0,0-.21,2.34c0,.61,0,.91.17.91,1.32-2.62,2.62-4.93,3.88-6.91a31.9,31.9,0,0,1,3.8-4.95c.81-.83,1.62-1.59,2.41-2.29a19.11,19.11,0,0,1,2.4-1.81,10.92,10.92,0,0,1,2.49-1.19,9.47,9.47,0,0,1,2.74-.45,4.19,4.19,0,0,1,2.06.53,6,6,0,0,1,1.91,1.69,9.72,9.72,0,0,1,1.4,2.73,10.58,10.58,0,0,1,.53,3.63,10.19,10.19,0,0,1-.44,3.12,17.51,17.51,0,0,1-1.25,3.07,22.71,22.71,0,0,1-1.8,2.92,26.49,26.49,0,0,1-2.13,2.59,40.69,40.69,0,0,0,4.78-2.37c1.64-.94,3.27-1.95,4.91-3s3.24-2.2,4.82-3.37,3.08-2.29,4.52-3.4q.65-.5,1.05-.84a1.3,1.3,0,0,1,.88-.34.44.44,0,0,1,.47.42A6.11,6.11,0,0,1,1112.08,544.32Z"/><path class="cls-3" d="M1145.62,540.76a2.38,2.38,0,0,1-.34,1.15,7.28,7.28,0,0,1-.88,1.27,13,13,0,0,1-1.22,1.25c-.45.4-.9.78-1.36,1.12s-.88.64-1.29.9a8.63,8.63,0,0,1-1,.58,9.84,9.84,0,0,1-2,.61c-.8.18-1.64.33-2.51.45s-1.72.23-2.55.3-1.53.11-2.1.11a4.4,4.4,0,0,1-.93-.13c-.4-.08-.81-.19-1.22-.31a11.62,11.62,0,0,1-1.18-.42,2.86,2.86,0,0,1-.81-.48c.17.79.32,1.58.46,2.38a15.47,15.47,0,0,1,.2,2.48,9.71,9.71,0,0,1-.13,1.37c-.09.55-.2,1.09-.34,1.64s-.3,1.08-.47,1.59a7.44,7.44,0,0,1-.54,1.27,26,26,0,0,1-1.52,2.49,14.5,14.5,0,0,1-1.75,2.08,18,18,0,0,1-2.2,1.79,22,22,0,0,1-2.81,1.62,13.62,13.62,0,0,1-3.42,1.14,18.75,18.75,0,0,1-3.55.33,3.14,3.14,0,0,1-2.07-.75,6,6,0,0,1-1.54-2,12.06,12.06,0,0,1-.95-2.92,18.39,18.39,0,0,1-.32-3.46,10.91,10.91,0,0,1,.07-1.16c0-.45.11-.92.2-1.4s.17-.93.27-1.37.19-.81.28-1.12a26.35,26.35,0,0,1,1.14-3c.49-1.12,1.06-2.27,1.72-3.45a38.13,38.13,0,0,1,2.22-3.46,24.37,24.37,0,0,1,2.55-3,12.39,12.39,0,0,1,2.78-2.15,5.78,5.78,0,0,1,2.89-.82,1.74,1.74,0,0,1,.78.16,1.71,1.71,0,0,1,.51.41,3.39,3.39,0,0,1,.38.53c.12.18.25.37.4.56a.27.27,0,0,0,.25.15,1.71,1.71,0,0,0,.57-.12,2.3,2.3,0,0,1,.77-.13,2.2,2.2,0,0,1,1.33.77c.53.51,1.08,1.07,1.66,1.68s1.15,1.18,1.73,1.69a2.48,2.48,0,0,0,1.54.76l1.65,0c.58,0,1.18-.06,1.79-.11s1.2-.12,1.78-.2,1.13-.18,1.62-.28l.93-.28,1.72-.52c.65-.19,1.34-.41,2.07-.64l2-.64,1.54-.48c.41-.12.63-.19.67-.19a.5.5,0,0,1,.31.1A.36.36,0,0,1,1145.62,540.76Zm-22.12,5a3.15,3.15,0,0,0-.66-1.21,6.45,6.45,0,0,0-1.14-1.07,6.6,6.6,0,0,0-1.34-.76,3.48,3.48,0,0,0-1.34-.3,2.81,2.81,0,0,0-1,.19,6.51,6.51,0,0,0-1,.48,8.19,8.19,0,0,0-.89.66l-.79.67a11.21,11.21,0,0,0-2.12,2.89,27.33,27.33,0,0,0-1.76,4,34,34,0,0,0-1.2,4.26,18,18,0,0,0-.45,3.68,4.15,4.15,0,0,0,.21,1.32,3.33,3.33,0,0,0,.61,1.13,3.17,3.17,0,0,0,.93.78,2.41,2.41,0,0,0,1.19.29,7.33,7.33,0,0,0,3.15-.67,8.89,8.89,0,0,0,2.62-1.84,12.56,12.56,0,0,0,2.09-2.79,20.66,20.66,0,0,0,1.53-3.51,24.62,24.62,0,0,0,1-4A28.13,28.13,0,0,0,1123.5,545.75Z"/><path class="cls-3" d="M1171.68,548V548a4.31,4.31,0,0,1-.57,1.81,22.88,22.88,0,0,1-1.51,2.53c-.64.93-1.37,1.93-2.2,3s-1.7,2.13-2.61,3.21q-1.62,1.88-3.36,3.61a46,46,0,0,1-3.78,3.35c-2.65,2.16-5,3.25-7.09,3.25a6.29,6.29,0,0,1-5.33-2.53,14.74,14.74,0,0,1-2.58-6.18,39.07,39.07,0,0,1-.69-7.39c0-1.06.12-2.72.34-5,.12-1.13.23-2.09.35-2.9a17.1,17.1,0,0,1,.36-2,5.14,5.14,0,0,1,1.68-2.56,4.05,4.05,0,0,1,2.72-1.15c.51,0,.76.53.76,1.59a18.14,18.14,0,0,1-.18,2.4c-.12.9-.25,1.78-.38,2.65-.25,1.65-.43,3.12-.54,4.42s-.17,2.43-.17,3.38a26.21,26.21,0,0,0,.79,6.37q.8,3.27,2.87,3.27a9.75,9.75,0,0,0,4.87-1.68c.93-.58,1.86-1.23,2.78-1.94a32.48,32.48,0,0,0,2.78-2.37c1-.87,1.87-1.75,2.72-2.63s1.71-1.8,2.56-2.73,1.6-1.81,2.25-2.62,1.22-1.56,1.72-2.25c0-.08.11-.24.22-.47s.22-.34.31-.34l.06,0a.38.38,0,0,1,.34.17,3.54,3.54,0,0,1,.26.52A2.46,2.46,0,0,1,1171.68,548Zm-18.57-25.37a6,6,0,0,1-1,3.47,3.08,3.08,0,0,1-2.75,1.43,9.78,9.78,0,0,1-2.52-.37c-.91-.25-1.36-.66-1.36-1.22a5.5,5.5,0,0,1,.86-2.92,8,8,0,0,1,2.09-2.26,3.72,3.72,0,0,1,1.27-.62,5.31,5.31,0,0,1,2.5.48A2.1,2.1,0,0,1,1153.11,522.6Z"/><path class="cls-3" d="M1216.68,546a4.16,4.16,0,0,1-.18,1.2,10.1,10.1,0,0,1-.46,1.22,13.07,13.07,0,0,1-.6,1.18l-.66,1.11a28.2,28.2,0,0,1-1.93,2.86c-.73,1-1.52,1.9-2.36,2.82s-1.71,1.78-2.6,2.59a31.43,31.43,0,0,1-2.61,2.15c-.68.5-1.32,1-1.94,1.4a13,13,0,0,1-1.86,1.13,10.92,10.92,0,0,1-2,.75,8.75,8.75,0,0,1-2.24.28,5.56,5.56,0,0,1-3.83-1.31,6.19,6.19,0,0,1-1.29-1.7,14.7,14.7,0,0,1-1-2.33,24.88,24.88,0,0,1-.7-2.71c-.2-1-.37-1.9-.5-2.84-.17-1.17-.33-2.21-.48-3.14a17.25,17.25,0,0,0-.53-2.34,4.41,4.41,0,0,0-.72-1.46,1.35,1.35,0,0,0-1.11-.52,4.19,4.19,0,0,0-1,.13,3,3,0,0,0-1,.5A7.13,7.13,0,0,0,1184,548c-.42.46-.9,1.06-1.46,1.81s-1.2,1.66-1.92,2.74-1.56,2.37-2.52,3.87c-.47.73-1,1.53-1.67,2.4s-1.3,1.71-2,2.5a27.13,27.13,0,0,1-2,2.09,5,5,0,0,1-1.71,1.15q-2.49-.59-2.49-6.83c0-1.1.11-2.77.34-5,.11-1,.24-2.09.4-3.2s.34-2.22.56-3.34.49-2.19.78-3.24a22.17,22.17,0,0,1,1-2.92,4.51,4.51,0,0,1,.59-1,2.17,2.17,0,0,1,.64-.53,1.94,1.94,0,0,1,.68-.22,5.84,5.84,0,0,1,.73,0c.3,0,.57.23.8.69a4.14,4.14,0,0,1,.36,1.9,7.88,7.88,0,0,1-.12,1.41,12.2,12.2,0,0,1-.31,1.34l-.42,1.48c-.15.53-.31,1.14-.46,1.83s-.24,1.18-.38,1.87-.27,1.38-.4,2.09-.22,1.4-.31,2.07a16,16,0,0,0-.13,1.83,4.27,4.27,0,0,0,.17,1.15c.53-.06,1.4-.93,2.61-2.62l2.06-2.81c.75-1,1.55-2.14,2.42-3.37.65-.91,1.28-1.76,1.92-2.55a15.16,15.16,0,0,1,2-2.08,8.63,8.63,0,0,1,2.17-1.4,6,6,0,0,1,2.54-.52,4.15,4.15,0,0,1,2.45.7,5.08,5.08,0,0,1,1.57,1.94,11.39,11.39,0,0,1,.92,3c.22,1.14.4,2.4.53,3.77.11,1.17.22,2.32.32,3.46a14.12,14.12,0,0,0,.61,3.08,5.63,5.63,0,0,0,1.31,2.2,3.33,3.33,0,0,0,2.44.84,6,6,0,0,0,2.55-.63,15.87,15.87,0,0,0,2.81-1.73,33.61,33.61,0,0,0,3-2.6c1.05-1,2.14-2.09,3.25-3.28a17.11,17.11,0,0,0,1.43-1.73q.78-1.05,1.53-2a20.4,20.4,0,0,1,1.41-1.66c.43-.45.78-.68,1-.68a1.46,1.46,0,0,1,.55.19A.63.63,0,0,1,1216.68,546Z"/><path class="cls-3" d="M1241.61,540.79a2.47,2.47,0,0,1-.57,1.76,6.49,6.49,0,0,1-1.3,1.08,15.68,15.68,0,0,1-2.09.84c-.76.25-1.55.48-2.35.67s-1.61.37-2.43.5-1.58.25-2.32.33l-2.53.25-2.58.26q-1.25.15-2.31.33a7.87,7.87,0,0,0-1.71.47c-.4,1.89-.82,3.7-1.26,5.41s-.82,3.43-1.12,5.14q-.12.58-.3,1.77c-.12.79-.24,1.62-.36,2.48s-.21,1.68-.29,2.44a15.37,15.37,0,0,0-.13,1.64,3.84,3.84,0,0,0,.37,1.91,3.78,3.78,0,0,0,.81,1l.8.74a1.31,1.31,0,0,1,.37,1,1.24,1.24,0,0,1-.38.84,4.2,4.2,0,0,1-.92.72,5.58,5.58,0,0,1-1.15.48,4.2,4.2,0,0,1-1.06.17,2.4,2.4,0,0,1-1.48-.5,4.23,4.23,0,0,1-1.1-1.29,6.84,6.84,0,0,1-.71-1.83,8.73,8.73,0,0,1-.26-2.12,22.59,22.59,0,0,1,.23-3.07q.23-1.63.57-3.36t.72-3.51q.38-1.78.72-3.57c.1-.5.2-1,.3-1.54s.2-1,.28-1.5l.22-1.17c0-.31.08-.5.08-.56a.94.94,0,0,0-.33-.77,1.2,1.2,0,0,0-.78-.26q-.33,0-1,.06c-.45,0-.93.09-1.43.16l-1.43.15a9.64,9.64,0,0,1-1,.07,9.36,9.36,0,0,1-1.73-.14,2.55,2.55,0,0,1-1.15-.52,2.24,2.24,0,0,1-.65-1,6,6,0,0,1-.22-1.74.78.78,0,0,1,.37-.68,2.43,2.43,0,0,1,.9-.36,7.65,7.65,0,0,1,1.12-.13h1c.24,0,.64,0,1.2-.08l1.76-.17,1.76-.17c.55,0,1-.08,1.2-.08l.4,0a1.34,1.34,0,0,0,.47-.17,1.44,1.44,0,0,0,.44-.47,3.65,3.65,0,0,0,.34-.92c.13-.65.29-1.4.48-2.26l.58-2.66.58-2.62q.29-1.26.48-2.16a18.57,18.57,0,0,0,.44-1.88c.13-.66.24-1.33.34-2s.22-1.31.36-1.94a10.1,10.1,0,0,1,.51-1.71,2.11,2.11,0,0,1,2-1.62q2.1,0,2.1,2.55a13,13,0,0,1-.62,3.65c-.91,3.17-1.58,5.77-2,7.82a25.45,25.45,0,0,0-.65,4.13c0,.77.35,1.16,1,1.16.85,0,1.65,0,2.4-.05s1.5-.08,2.26-.16,1.58-.16,2.43-.26l2.86-.34c.76-.11,1.48-.23,2.17-.38s1.33-.29,1.92-.42l1.56-.39A8,8,0,0,1,1240,540a6,6,0,0,0,.61-.09,1.12,1.12,0,0,1,.51,0,.56.56,0,0,1,.34.25A1.38,1.38,0,0,1,1241.61,540.79Z"/><path class="cls-3" d="M1249.8,561.51a9.64,9.64,0,0,1-.51,3.1,12.9,12.9,0,0,1-1.37,2.85,15.42,15.42,0,0,1-2,2.49,16.64,16.64,0,0,1-2.32,2,11.4,11.4,0,0,1-2.43,1.28,6.51,6.51,0,0,1-2.24.45,2.13,2.13,0,0,1-1.87-.68,3.55,3.55,0,0,1-.45-1.94,3.28,3.28,0,0,1,.39-1.76,3.41,3.41,0,0,1,1.14-1l.31-.07a2.51,2.51,0,0,1,.5-.07l.53,0h.44a2.13,2.13,0,0,0,.57-.1,6.69,6.69,0,0,0,.8-.26,7.12,7.12,0,0,0,.87-.44,5.81,5.81,0,0,0,.86-.61,5.65,5.65,0,0,0,1.6-2.23,6.32,6.32,0,0,0,.47-2.2,4,4,0,0,0-.71-2.27,12.48,12.48,0,0,0-1.79-2.08c-.72-.67-1.49-1.35-2.33-2a23.71,23.71,0,0,1-2.32-2.15,12,12,0,0,1-1.79-2.42,5.78,5.78,0,0,1-.71-2.84,8.2,8.2,0,0,1,.19-1.65,13.34,13.34,0,0,1,.48-1.72c.2-.56.43-1.1.68-1.63a13.88,13.88,0,0,1,.81-1.45,24.23,24.23,0,0,1,1.49-2.09,17.58,17.58,0,0,1,1.63-1.83,9.67,9.67,0,0,1,1.61-1.28,2.92,2.92,0,0,1,1.48-.48c1.28,0,1.93.83,1.93,2.49a4.38,4.38,0,0,1-.64,2,11.06,11.06,0,0,1-1.52,2.12c-.9,1-1.7,1.78-2.38,2.45s-1.31,1.37-1.9,2.08a15,15,0,0,0,1.42,1.93c.51.58,1,1.14,1.6,1.68s1.13,1.08,1.7,1.6,1.15,1.06,1.72,1.62,1,1.09,1.51,1.64a12.78,12.78,0,0,1,1.29,1.71,8.43,8.43,0,0,1,.91,1.86A6,6,0,0,1,1249.8,561.51Z"/><path class="cls-3" d="M622.26,870.54a9.93,9.93,0,0,1-.71,2.55c-.24.67-.43,1.23-.56,1.67a8.1,8.1,0,0,0-.24,1c-.24,1.61-.47,3.34-.7,5.19s-.43,3.85-.64,6l-.18,1.51c-.05.43-.09.78-.13,1.05s-.05.56-.09.88-.07.66-.09,1,0,.72,0,1,0,.6,0,.87a1.83,1.83,0,0,0,.24.73,2.46,2.46,0,0,1,.24.77,1.78,1.78,0,0,1-.89,1.42,4.87,4.87,0,0,1-.85.52,2.81,2.81,0,0,1-.73.21,1.25,1.25,0,0,1-.84-.28,3.54,3.54,0,0,1-.58-1,3.17,3.17,0,0,1-.25-1q-.06-1.27,0-2.55c0-.85.08-1.72.17-2.59s.22-1.85.36-2.94.31-2.31.51-3.65c.16-.92.31-1.78.45-2.6s.27-1.59.41-2.32.28-1.58.45-2.5.36-2,.56-3.11c.06-.41.12-.75.17-1s.09-.51.12-.67l.12-.75c.06-.31.13-.7.21-1.18a1.93,1.93,0,0,1,.14-.55,3.32,3.32,0,0,1,.29-.6,2.44,2.44,0,0,1,.38-.5.59.59,0,0,1,.41-.21,1.69,1.69,0,0,1,.8.19,1.94,1.94,0,0,1,.72.56,3.21,3.21,0,0,1,.55.86,3,3,0,0,1,.21,1c0,.22,0,.41,0,.57S622.25,870.33,622.26,870.54Z"/><path class="cls-3" d="M658.24,882.22a2.64,2.64,0,0,1-.12.78,5.77,5.77,0,0,1-.29.79,5.56,5.56,0,0,1-.39.77l-.42.72a18.61,18.61,0,0,1-1.23,1.86c-.47.62-1,1.24-1.52,1.83s-1.09,1.15-1.66,1.68a20,20,0,0,1-1.67,1.4l-1.24.91a8.86,8.86,0,0,1-1.19.73,7,7,0,0,1-1.25.48,5.07,5.07,0,0,1-1.44.19,3.56,3.56,0,0,1-2.45-.85,3.86,3.86,0,0,1-.82-1.11,8.35,8.35,0,0,1-.62-1.51,14.58,14.58,0,0,1-.45-1.76c-.13-.62-.24-1.23-.32-1.84s-.21-1.44-.31-2a11.73,11.73,0,0,0-.34-1.52,2.71,2.71,0,0,0-.46-1,.88.88,0,0,0-.71-.33,2.27,2.27,0,0,0-.65.08,2,2,0,0,0-.65.32,5,5,0,0,0-.73.69c-.27.3-.58.69-.94,1.18s-.76,1.08-1.22,1.78-1,1.54-1.62,2.51c-.3.47-.66,1-1.07,1.56s-.83,1.11-1.26,1.62a17.11,17.11,0,0,1-1.26,1.36,3.33,3.33,0,0,1-1.09.75q-1.61-.39-1.6-4.44c0-.72.08-1.8.22-3.26.07-.66.16-1.35.25-2.08s.22-1.44.37-2.16.31-1.43.5-2.11a13.5,13.5,0,0,1,.66-1.89,2.45,2.45,0,0,1,.38-.64,1.45,1.45,0,0,1,.41-.35,1.36,1.36,0,0,1,.43-.14,3.71,3.71,0,0,1,.47,0c.19,0,.36.15.52.45a2.76,2.76,0,0,1,.22,1.23,5.17,5.17,0,0,1-.07.91c-.05.29-.12.58-.2.87s-.18.62-.27,1-.2.74-.29,1.18-.16.77-.25,1.22-.17.89-.25,1.35-.15.91-.2,1.35a8.79,8.79,0,0,0-.08,1.19,2.87,2.87,0,0,0,.1.75c.34,0,.9-.61,1.67-1.71l1.32-1.82c.48-.66,1-1.39,1.55-2.19.41-.59.82-1.14,1.23-1.66A9.56,9.56,0,0,1,637.2,880a5.78,5.78,0,0,1,1.39-.92,3.91,3.91,0,0,1,1.62-.33,2.54,2.54,0,0,1,1.57.46,3.16,3.16,0,0,1,1,1.25,7.63,7.63,0,0,1,.59,1.92c.14.74.25,1.55.34,2.45l.21,2.24a8.25,8.25,0,0,0,.39,2,3.58,3.58,0,0,0,.83,1.43,2.12,2.12,0,0,0,1.56.55,3.85,3.85,0,0,0,1.64-.41,10.16,10.16,0,0,0,1.79-1.12,21.88,21.88,0,0,0,2-1.7c.68-.64,1.37-1.35,2.08-2.12a11.31,11.31,0,0,0,.92-1.13c.33-.45.66-.88,1-1.3s.62-.78.9-1.08.5-.44.67-.44a.94.94,0,0,1,.35.12A.41.41,0,0,1,658.24,882.22Z"/><path class="cls-3" d="M674,882.06a1.85,1.85,0,0,1-.16.72,4.73,4.73,0,0,1-.44.82c-.18.28-.38.57-.61.86l-.69.86c-.18.23-.38.47-.58.7l-.7.79-.92,1-1.23,1.34c-.43.46-.9.94-1.41,1.45s-1,1-1.56,1.49l-1.54,1.4c-.49.44-.92.83-1.28,1.17l-2.49,2.26a29.28,29.28,0,0,1-2.33,1.91,6.83,6.83,0,0,1-3.59,1.71,2.63,2.63,0,0,1-1-.27c-.41-.17-.62-.42-.62-.73a2.56,2.56,0,0,1,.89-2.06,12.35,12.35,0,0,1,2.72-1.54,11.94,11.94,0,0,0,2.73-1.58,2.64,2.64,0,0,0,.9-2.11,7.25,7.25,0,0,0-1.25-2.71c-.41-.69-.78-1.32-1.1-1.9s-.59-1.09-.82-1.55a6.67,6.67,0,0,1-.69-3,9.94,9.94,0,0,1,.45-2.86,7.26,7.26,0,0,1,.7-1.71,10.09,10.09,0,0,1,1-1.54,5.72,5.72,0,0,1,1.15-1.08,1.66,1.66,0,0,1,1-.39c1.07,0,1.6.7,1.6,2.11a2.72,2.72,0,0,1-.53,1.58,8.82,8.82,0,0,1-.61.76c-.25.26-.52.54-.84.84s-.56.53-.77.75l-.52.54a6.76,6.76,0,0,0,.58,2.47c.21.46.45,1,.71,1.5s.58,1.12.93,1.75.64,1.17.89,1.67l.54,1.08s.08.08.2.08a2.13,2.13,0,0,0,.88-.41,18.6,18.6,0,0,0,1.49-1.12c.58-.46,1.2-1,1.88-1.62s1.35-1.26,2-1.95,1.29-1.32,1.75-1.85l1.3-1.48c.41-.45.72-.81.92-1.06s.31-.37.34-.37a.41.41,0,0,1,.27.12,1.07,1.07,0,0,1,.22.31,2.05,2.05,0,0,1,.16.41A1.89,1.89,0,0,1,674,882.06Z"/><path class="cls-3" d="M690.41,879.19a1.89,1.89,0,0,1-.09.62,1.24,1.24,0,0,1-.26.45,2,2,0,0,1-.38.33c-.14.11-.3.2-.45.3a6.62,6.62,0,0,1-1.43.5c-.55.14-1.12.26-1.7.36s-1.17.19-1.75.26-1.1.15-1.57.23q-1.32.22-2.34.36l-1.76.25a9,9,0,0,0-1.23.27,1.91,1.91,0,0,0-.78.4c-.26,1.23-.52,2.48-.79,3.74s-.51,2.45-.7,3.55l-.12.6c0,.21-.09.43-.14.66-.08.47-.15.89-.2,1.24a7.43,7.43,0,0,0-.07,1,3.75,3.75,0,0,0,.13,1.11c.05.15.1.34.16.58s.14.51.24.82a5.58,5.58,0,0,1,.29,1.36,2.68,2.68,0,0,1-.47,1.39q-.46.75-1,.75c-.4,0-.81-.33-1.24-1-.2-.34-.38-.67-.54-1a9.79,9.79,0,0,1-.42-1,6.7,6.7,0,0,1-.29-1.9c0-.13,0-.27,0-.41s0-.3,0-.46.13-.67.22-1.11c.05-.22.09-.41.12-.56s.06-.28.08-.38c.29-1.49.54-2.75.74-3.76s.34-1.81.44-2.37a21.44,21.44,0,0,0,.38-2.15.61.61,0,0,0-.21-.5.76.76,0,0,0-.5-.17l-.78,0c-.29,0-.61.06-1,.11s-.64.09-.87.11l-.51,0a3.07,3.07,0,0,1-1.19-.22,2.68,2.68,0,0,1-.92-.64,2.76,2.76,0,0,1-.61-1,3.56,3.56,0,0,1-.22-1.31,8.87,8.87,0,0,0,1.05.12q.52,0,1.11,0l.77,0c.35,0,.78-.06,1.3-.12l1.37-.12c.38,0,.69,0,.94,0s.61-.5,1-1.5q.26-.76.48-1.56c.15-.52.29-1.07.41-1.64s.24-1.07.33-1.51.17-.81.23-1.12a8.85,8.85,0,0,0,.16-.89c.07-.27.12-.52.16-.76s.07-.45.1-.64c.08-.51.18-1,.28-1.42a9.61,9.61,0,0,1,.35-1.17,1.38,1.38,0,0,1,1.29-1.06c.9,0,1.35.56,1.35,1.67a8.75,8.75,0,0,1-.4,2.37,43.74,43.74,0,0,0-1.73,7.49c0,.5.23.75.67.75,1.11,0,2.22,0,3.35-.09s2.23-.15,3.3-.25l1.48-.18,1.19-.18,1-.17,1.06-.16a1.14,1.14,0,0,1,.28,0,.78.78,0,0,1,.34,0,.66.66,0,0,1,.29.21A.72.72,0,0,1,690.41,879.19Z"/><path class="cls-3" d="M703.56,880.46a2,2,0,0,1-.43.63,1.51,1.51,0,0,1-.56.35,1.69,1.69,0,0,1-.6.12,2.26,2.26,0,0,1-.61-.11,4.21,4.21,0,0,0-.71-.12,4.36,4.36,0,0,0-1.7.44,13.34,13.34,0,0,0-2,1.12,20.63,20.63,0,0,0-2,1.54,14.35,14.35,0,0,0-1.65,1.68c-.24.31-.5.66-.77,1a12.92,12.92,0,0,0-.79,1.19,10.54,10.54,0,0,0-.68,1.28,5.63,5.63,0,0,0-.43,1.25,3.22,3.22,0,0,0-.06.8c0,.32,0,.66.08,1s.07.75.11,1.15a9.21,9.21,0,0,1,.07,1.15c0,.21,0,.42,0,.61a4.8,4.8,0,0,1-.06.56,1.35,1.35,0,0,1-.2.4,2.48,2.48,0,0,1-.92.7,1.27,1.27,0,0,1-.54.14.91.91,0,0,1-.7-.49,4,4,0,0,1-.48-1.28,12.92,12.92,0,0,1-.25-1.91c0-.74-.07-1.54-.07-2.4,0-.26,0-.63,0-1.13s0-1,0-1.53,0-1,0-1.41,0-.68,0-.77,0-.54,0-.93,0-.82.07-1.29.07-.94.11-1.43.09-.93.14-1.33c0-.17,0-.4.07-.71s.05-.64.08-1,.06-.64.1-1a6.44,6.44,0,0,1,.11-.68,2,2,0,0,1,.24-.56,4,4,0,0,1,.47-.63,3,3,0,0,1,.6-.52,1.32,1.32,0,0,1,.7-.21,1.27,1.27,0,0,1,.63.17,1.26,1.26,0,0,1,.39.37,1.34,1.34,0,0,1,.2.44,1.7,1.7,0,0,1,.05.42,2.46,2.46,0,0,1-.06.39c0,.2-.1.43-.17.69l-.23.85c-.08.3-.15.59-.22.86s-.12.52-.17.73a2.34,2.34,0,0,0-.07.45c0,.11,0,.31,0,.61s-.06.66-.09,1.05-.06.8-.09,1.22,0,.8,0,1.13v.3a2.09,2.09,0,0,0,0,.26c.45-.62,1-1.26,1.48-1.94s1.11-1.34,1.72-2,1.23-1.27,1.89-1.87a17.44,17.44,0,0,1,2-1.57,10.69,10.69,0,0,1,2-1.07,5.25,5.25,0,0,1,2-.4,2,2,0,0,1,.95.27,2.55,2.55,0,0,1,.68.57,2.42,2.42,0,0,1,.4.68,1.66,1.66,0,0,1,.13.59v0A2.54,2.54,0,0,1,703.56,880.46Z"/><path class="cls-3" d="M738.29,880.32a5.33,5.33,0,0,1-.34,1.75,7.44,7.44,0,0,1-.94,1.84,23.56,23.56,0,0,1-1.72,2.16c-.63.72-1.3,1.4-2,2.06s-1.39,1.26-2.1,1.82a22.87,22.87,0,0,1-2.08,1.46,12.23,12.23,0,0,1-1.9,1,4.23,4.23,0,0,1-1.56.36,3.21,3.21,0,0,1-1.49-.33,3.45,3.45,0,0,1-1.1-.88,5.51,5.51,0,0,1-.77-1.3,14.63,14.63,0,0,1-.53-1.58c-.15-.56-.28-1.13-.38-1.72s-.18-1.15-.27-1.71c-.3.52-.64,1.09-1,1.73s-.78,1.3-1.2,2-.84,1.3-1.27,1.91-.83,1.15-1.21,1.61a15.66,15.66,0,0,1-1.39,1.44,10.35,10.35,0,0,1-1.6,1.21,8.92,8.92,0,0,1-1.77.83,5.82,5.82,0,0,1-1.9.31,2.52,2.52,0,0,1-2.25-1.32,5.65,5.65,0,0,1-.8-3,12.7,12.7,0,0,1,.12-1.7c.08-.58.17-1.17.27-1.75s.2-1.15.3-1.71.16-1.09.2-1.59c0-.2,0-.45,0-.76v-2.07c0-.3,0-.59,0-.87s0-.55.06-.82.06-.55.11-.85a2.53,2.53,0,0,1,.49-1.19,1.38,1.38,0,0,1,1.19-.51c1.12,0,1.67.86,1.67,2.57a6,6,0,0,1-.08,1c-.05.35-.12.73-.19,1.11s-.15.78-.22,1.18-.15.78-.21,1.16c-.12.53-.25,1.05-.37,1.58s-.23,1-.33,1.54-.19,1-.25,1.45a10,10,0,0,0-.09,1.28,4.36,4.36,0,0,0,.07.68,3.26,3.26,0,0,0,.22.71,1.76,1.76,0,0,0,.39.56.83.83,0,0,0,.57.22,3.72,3.72,0,0,0,2-.6,10.17,10.17,0,0,0,1.88-1.48,18.91,18.91,0,0,0,1.68-1.88c.53-.67,1-1.28,1.39-1.83a17.13,17.13,0,0,0,1.16-2c.38-.75.74-1.54,1.08-2.36s.68-1.63,1-2.44.6-1.54.86-2.19c.57-1.48,1.07-2.22,1.52-2.22a1,1,0,0,1,.66.17,1.11,1.11,0,0,1,.16.7,10.89,10.89,0,0,1-.08,1.09c-.06.46-.12.94-.19,1.44s-.14,1-.19,1.44a8.91,8.91,0,0,0-.09,1.07c0,.23,0,.51,0,.84l0,1c0,.36,0,.7.06,1a7.84,7.84,0,0,0,.12.88,8.24,8.24,0,0,0,.26,1,7.71,7.71,0,0,0,.46,1.21,3.83,3.83,0,0,0,.68,1,1.24,1.24,0,0,0,.93.42,5,5,0,0,0,2.22-.65,16.55,16.55,0,0,0,2.55-1.67,33.59,33.59,0,0,0,2.6-2.29c.85-.85,1.65-1.68,2.39-2.5l.88-1c.3-.32.57-.59.82-.81a3,3,0,0,1,.6-.42C738.22,880.09,738.29,880.14,738.29,880.32Z"/><path class="cls-3" d="M757.32,882.77a2.07,2.07,0,0,1-.47,1.32,7.33,7.33,0,0,1-.51.53c-.23.23-.44.44-.62.64l-1.67,1.87c-.31.35-.61.66-.88.94l-.72.72L751.19,890l-1.69,1.57a34.38,34.38,0,0,1-3.49,2.86,15.13,15.13,0,0,1-3.42,1.75,11.26,11.26,0,0,1-3.86.66,4.37,4.37,0,0,1-2.24-.49,5,5,0,0,1-1.67-1.43,6.61,6.61,0,0,1-1-2.11,9,9,0,0,1-.33-2.58,15.08,15.08,0,0,1,1-5.38,27.91,27.91,0,0,1,2.74-5.31,15.49,15.49,0,0,1,2.23-2.63,3.6,3.6,0,0,1,2.34-1.26c.38,0,.8.35,1.29,1,.24.35.47.73.69,1.13a12.19,12.19,0,0,1,.6,1.26,5.92,5.92,0,0,1,.54,1.91,5,5,0,0,1-.32,1.52q-.33.93-.78.93c-.44,0-.8-.33-1.09-1a7.58,7.58,0,0,1-.32-.86c-.07-.24-.14-.49-.23-.76a12.13,12.13,0,0,0-.71-1.75,3.31,3.31,0,0,0-2,1.32,10.51,10.51,0,0,0-.79,1.27c-.27.49-.56,1-.86,1.67a12.11,12.11,0,0,0-.68,1.64,19.08,19.08,0,0,0-.52,1.87c-.15.64-.26,1.28-.35,1.93a14.64,14.64,0,0,0-.13,1.79,3.63,3.63,0,0,0,.91,2.29,2.67,2.67,0,0,0,2,1.07,10.85,10.85,0,0,0,4.41-.91,18.43,18.43,0,0,0,4-2.43,40.94,40.94,0,0,0,3.87-3.46c.65-.67,1.27-1.29,1.86-1.88l1.68-1.69a3.64,3.64,0,0,1,2.2-1.3C757.23,882.22,757.32,882.41,757.32,882.77Z"/><path class="cls-3" d="M773.86,879.19a1.89,1.89,0,0,1-.09.62,1.24,1.24,0,0,1-.26.45,2,2,0,0,1-.38.33c-.14.11-.3.2-.45.3a6.62,6.62,0,0,1-1.43.5c-.55.14-1.12.26-1.7.36s-1.17.19-1.75.26l-1.57.23q-1.32.22-2.34.36l-1.76.25a9,9,0,0,0-1.23.27,1.91,1.91,0,0,0-.78.4c-.26,1.23-.52,2.48-.79,3.74s-.51,2.45-.7,3.55q-.06.29-.12.6c0,.21-.09.43-.14.66-.08.47-.15.89-.2,1.24a7.43,7.43,0,0,0-.07,1,3.75,3.75,0,0,0,.13,1.11c0,.15.1.34.16.58s.14.51.24.82a5.58,5.58,0,0,1,.29,1.36,2.68,2.68,0,0,1-.47,1.39q-.47.75-1,.75c-.4,0-.81-.33-1.24-1-.2-.34-.38-.67-.54-1a9.79,9.79,0,0,1-.42-1,6.7,6.7,0,0,1-.29-1.9c0-.13,0-.27,0-.41s0-.3,0-.46.13-.67.22-1.11c0-.22.09-.41.12-.56s.06-.28.08-.38c.29-1.49.54-2.75.74-3.76s.34-1.81.44-2.37a21.44,21.44,0,0,0,.38-2.15.61.61,0,0,0-.21-.5.75.75,0,0,0-.49-.17l-.79,0c-.29,0-.61.06-1,.11s-.64.09-.87.11l-.51,0a3.07,3.07,0,0,1-1.19-.22,2.68,2.68,0,0,1-.92-.64,2.76,2.76,0,0,1-.61-1,3.56,3.56,0,0,1-.22-1.31,8.87,8.87,0,0,0,1,.12c.35,0,.73,0,1.11,0l.77,0c.35,0,.78-.06,1.3-.12l1.37-.12c.38,0,.69,0,.94,0s.61-.5,1-1.5q.25-.76.48-1.56c.15-.52.29-1.07.41-1.64s.24-1.07.33-1.51.17-.81.23-1.12a8.85,8.85,0,0,0,.16-.89c.07-.27.12-.52.16-.76s.07-.45.1-.64c.08-.51.18-1,.28-1.42a9.61,9.61,0,0,1,.35-1.17,1.38,1.38,0,0,1,1.29-1.06c.9,0,1.35.56,1.35,1.67a8.75,8.75,0,0,1-.4,2.37,43.74,43.74,0,0,0-1.73,7.49c0,.5.23.75.67.75,1.11,0,2.22,0,3.35-.09s2.23-.15,3.3-.25l1.48-.18,1.19-.18,1-.17,1.06-.16a1.14,1.14,0,0,1,.28,0,.78.78,0,0,1,.34,0,.66.66,0,0,1,.29.21A.72.72,0,0,1,773.86,879.19Z"/><path class="cls-3" d="M789.85,883.52a2.58,2.58,0,0,1-.34,1.15,13.44,13.44,0,0,1-1,1.66c-.4.61-.88,1.27-1.41,2s-1.11,1.41-1.7,2.11-1.4,1.59-2.15,2.34-1.57,1.47-2.43,2.17a7.47,7.47,0,0,1-4.53,2.11,4,4,0,0,1-3.42-1.64,9.66,9.66,0,0,1-1.65-4,26.05,26.05,0,0,1-.43-4.8c0-.69.07-1.76.21-3.22.08-.73.15-1.36.22-1.89a9.69,9.69,0,0,1,.24-1.27,3.24,3.24,0,0,1,1.07-1.66,2.58,2.58,0,0,1,1.74-.75c.33,0,.49.34.49,1a11.54,11.54,0,0,1-.12,1.56c-.08.58-.16,1.16-.24,1.72-.16,1.07-.27,2-.35,2.87s-.11,1.58-.11,2.2a17.35,17.35,0,0,0,.51,4.13c.34,1.42,1,2.13,1.84,2.13a6.22,6.22,0,0,0,3.12-1.1c.59-.38,1.18-.79,1.78-1.25s1.18-1,1.78-1.54,1.18-1.14,1.74-1.71,1.1-1.17,1.63-1.78,1-1.17,1.44-1.7.79-1,1.1-1.46a.69.69,0,0,0,.07-.13,1.62,1.62,0,0,1,.1-.18.58.58,0,0,1,.11-.15.09.09,0,0,1,.11,0c.17,0,.29.15.38.44A2.06,2.06,0,0,1,789.85,883.52ZM778,867.05a4,4,0,0,1-.62,2.25,2,2,0,0,1-1.76.93A6.22,6.22,0,0,1,774,870c-.58-.16-.88-.43-.88-.79a3.55,3.55,0,0,1,.56-1.89,5.11,5.11,0,0,1,1.33-1.47,2.21,2.21,0,0,1,.82-.41,3.33,3.33,0,0,1,1.6.32A1.36,1.36,0,0,1,778,867.05Z"/><path class="cls-3" d="M812.38,878.84a1.55,1.55,0,0,1-.22.75,4.79,4.79,0,0,1-.56.82,7.39,7.39,0,0,1-.78.81c-.29.26-.58.51-.87.73s-.57.42-.83.59a6.43,6.43,0,0,1-.64.37,6.36,6.36,0,0,1-1.25.4c-.51.11-1.05.21-1.6.29s-1.11.15-1.64.19-1,.08-1.34.08a2.72,2.72,0,0,1-.6-.09,7.44,7.44,0,0,1-.78-.2,6.54,6.54,0,0,1-.75-.27A1.61,1.61,0,0,1,800,883c.11.52.2,1,.29,1.55a10.6,10.6,0,0,1,.13,1.61,5.34,5.34,0,0,1-.09.89,10.1,10.1,0,0,1-.21,1.07c-.09.36-.19.7-.3,1a4.68,4.68,0,0,1-.35.82,15.08,15.08,0,0,1-1,1.62,9.13,9.13,0,0,1-1.12,1.35,10.89,10.89,0,0,1-1.41,1.16,13.58,13.58,0,0,1-1.8,1.06,8.85,8.85,0,0,1-2.19.74,12.05,12.05,0,0,1-2.27.21,2,2,0,0,1-1.33-.49,3.9,3.9,0,0,1-1-1.3,7.57,7.57,0,0,1-.61-1.9,11.62,11.62,0,0,1-.21-2.25c0-.2,0-.45,0-.74s.07-.61.12-.92.12-.6.18-.89.12-.52.18-.73a17.7,17.7,0,0,1,.73-1.94,24.28,24.28,0,0,1,1.1-2.24c.43-.76.9-1.51,1.42-2.25a16.26,16.26,0,0,1,1.63-2,8.11,8.11,0,0,1,1.78-1.4,3.76,3.76,0,0,1,1.85-.53,1.13,1.13,0,0,1,.5.1,1.09,1.09,0,0,1,.33.27,2.62,2.62,0,0,1,.24.34c.08.12.16.24.26.37a.18.18,0,0,0,.16.1,1.13,1.13,0,0,0,.36-.08,1.29,1.29,0,0,1,.49-.08,1.4,1.4,0,0,1,.86.49c.34.33.69.7,1.06,1.1s.74.76,1.11,1.09a1.6,1.6,0,0,0,1,.5l1,0c.37,0,.76,0,1.14-.08s.77-.07,1.15-.13.72-.11,1-.18l.6-.18,1.1-.34c.42-.12.86-.26,1.32-.41l1.3-.42,1-.31.43-.12a.36.36,0,0,1,.2.06A.24.24,0,0,1,812.38,878.84Zm-14.16,3.24a2.13,2.13,0,0,0-.43-.79,4.72,4.72,0,0,0-.72-.69,4.4,4.4,0,0,0-.87-.49,2.12,2.12,0,0,0-.85-.19,1.68,1.68,0,0,0-.63.12,3.19,3.19,0,0,0-.61.31,4.73,4.73,0,0,0-.57.43c-.19.15-.36.3-.51.43a7.47,7.47,0,0,0-1.36,1.87,19.19,19.19,0,0,0-1.12,2.6,21.88,21.88,0,0,0-.77,2.76,11.42,11.42,0,0,0-.29,2.39,2.71,2.71,0,0,0,.13.86,2.22,2.22,0,0,0,.39.73,2.09,2.09,0,0,0,.6.51,1.54,1.54,0,0,0,.77.19,4.68,4.68,0,0,0,2-.43,5.76,5.76,0,0,0,1.68-1.2,8.07,8.07,0,0,0,1.33-1.81,12.33,12.33,0,0,0,1-2.28,16.19,16.19,0,0,0,.61-2.58A19.35,19.35,0,0,0,798.22,882.08Z"/><path class="cls-3" d="M840.55,882.22a2.64,2.64,0,0,1-.12.78,4.69,4.69,0,0,1-.29.79,5.56,5.56,0,0,1-.39.77l-.41.72a20.71,20.71,0,0,1-1.24,1.86c-.47.62-1,1.24-1.51,1.83s-1.1,1.15-1.67,1.68a18.51,18.51,0,0,1-1.67,1.4L832,893a8.86,8.86,0,0,1-1.19.73,6.73,6.73,0,0,1-1.25.48,5,5,0,0,1-1.43.19,3.57,3.57,0,0,1-2.46-.85,3.86,3.86,0,0,1-.82-1.11,9.14,9.14,0,0,1-.62-1.51c-.17-.55-.32-1.14-.45-1.76s-.24-1.23-.32-1.84-.21-1.44-.31-2a13.88,13.88,0,0,0-.33-1.52,2.89,2.89,0,0,0-.47-1,.86.86,0,0,0-.71-.33,2.32,2.32,0,0,0-.65.08,1.92,1.92,0,0,0-.64.32,4.52,4.52,0,0,0-.74.69c-.26.3-.58.69-.93,1.18s-.77,1.08-1.23,1.78-1,1.54-1.61,2.51c-.31.47-.66,1-1.08,1.56s-.83,1.11-1.26,1.62a17.11,17.11,0,0,1-1.26,1.36,3.23,3.23,0,0,1-1.09.75c-1.06-.26-1.6-1.74-1.6-4.44,0-.72.08-1.8.22-3.26.08-.66.16-1.35.26-2.08s.21-1.44.36-2.16.31-1.43.5-2.11a14.91,14.91,0,0,1,.66-1.89,2.45,2.45,0,0,1,.38-.64,1.6,1.6,0,0,1,.41-.35,1.41,1.41,0,0,1,.44-.14,3.44,3.44,0,0,1,.46,0c.19,0,.37.15.52.45a2.76,2.76,0,0,1,.22,1.23,5.17,5.17,0,0,1-.07.91,6.82,6.82,0,0,1-.2.87c-.08.3-.17.62-.27,1s-.19.74-.29,1.18-.16.77-.25,1.22-.17.89-.25,1.35-.15.91-.2,1.35a10.78,10.78,0,0,0-.08,1.19,2.9,2.9,0,0,0,.11.75c.34,0,.89-.61,1.67-1.71l1.31-1.82q.72-1,1.56-2.19c.41-.59.82-1.14,1.22-1.66a10.89,10.89,0,0,1,1.26-1.34,5.78,5.78,0,0,1,1.39-.92,3.92,3.92,0,0,1,1.63-.33,2.56,2.56,0,0,1,1.57.46,3.23,3.23,0,0,1,1,1.25,7.63,7.63,0,0,1,.59,1.92c.14.74.25,1.55.34,2.45l.21,2.24a8.76,8.76,0,0,0,.39,2,3.58,3.58,0,0,0,.83,1.43A2.15,2.15,0,0,0,829,891a3.85,3.85,0,0,0,1.64-.41,10.21,10.21,0,0,0,1.8-1.12,23.39,23.39,0,0,0,1.95-1.7c.67-.64,1.36-1.35,2.08-2.12a13,13,0,0,0,.91-1.13l1-1.3q.48-.63.9-1.08c.28-.29.5-.44.67-.44a1,1,0,0,1,.36.12A.42.42,0,0,1,840.55,882.22Z"/><path class="cls-3" d="M847.89,892.31a6.33,6.33,0,0,1-.33,2,8.48,8.48,0,0,1-.88,1.85,9.89,9.89,0,0,1-1.27,1.61,10.9,10.9,0,0,1-1.49,1.28,7.54,7.54,0,0,1-1.55.83,4.24,4.24,0,0,1-1.44.29,1.34,1.34,0,0,1-1.19-.44,2.26,2.26,0,0,1-.3-1.26,1.82,1.82,0,0,1,1-1.82.8.8,0,0,1,.19,0,1.65,1.65,0,0,1,.32,0l.35,0h.28a1.64,1.64,0,0,0,.36-.06,3,3,0,0,0,.51-.17A4.18,4.18,0,0,0,843,896a3.78,3.78,0,0,0,1.57-1.84,4.16,4.16,0,0,0,.3-1.43,2.65,2.65,0,0,0-.45-1.48,7.72,7.72,0,0,0-1.14-1.35c-.46-.44-1-.88-1.49-1.31a15.29,15.29,0,0,1-1.49-1.4,8.41,8.41,0,0,1-1.15-1.57,3.84,3.84,0,0,1-.45-1.85,5.23,5.23,0,0,1,.12-1.07,8.28,8.28,0,0,1,.31-1.11,10,10,0,0,1,.43-1.07,10.17,10.17,0,0,1,.52-.94c.29-.46.61-.91.95-1.36a12.51,12.51,0,0,1,1.05-1.18,5.68,5.68,0,0,1,1-.83,1.85,1.85,0,0,1,.95-.32q1.23,0,1.23,1.62a2.88,2.88,0,0,1-.41,1.32,7,7,0,0,1-1,1.38c-.58.62-1.09,1.15-1.52,1.59a16.9,16.9,0,0,0-1.22,1.35,9.12,9.12,0,0,0,.91,1.25c.32.38.67.74,1,1.1l1.09,1c.37.34.74.69,1.1,1.05s.66.71,1,1.07a8.66,8.66,0,0,1,.83,1.11,6.11,6.11,0,0,1,.58,1.21A4,4,0,0,1,847.89,892.31Z"/></g></svg>