<svg xmlns="http://www.w3.org/2000/svg" xmlns:xlink="http://www.w3.org/1999/xlink" width="508.58" height="166.54" viewBox="0 0 508.58 166.54"><defs><style>.cls-1{fill:#2e3192;}.cls-2{fill:aqua;}.cls-3{fill:url(#New_Gradient_Swatch_2);}.cls-4{fill:#0071bc;}.cls-5{fill:#fff;}</style><linearGradient id="New_Gradient_Swatch_2" x1="261.56" y1="-0.02" x2="262.24" y2="152.89" gradientUnits="userSpaceOnUse"><stop offset="0" stop-color="#ff4e1f"/><stop offset="1" stop-color="#db3721"/></linearGradient></defs><g id="Layer_2" data-name="Layer 2"><g id="Layer_9" data-name="Layer 9"><rect class="cls-1" y="14.33" width="493.36" height="152.22" rx="30.82"/><rect class="cls-2" x="9.85" y="6.27" width="493.36" height="152.22" rx="30.82"/><rect class="cls-3" x="15.22" width="493.36" height="152.22" rx="30.82"/><path class="cls-4" d="M125,28.38q6.64,0,17.4,3.61a7.18,7.18,0,0,0,2.06.43,18.28,18.28,0,0,0,3.87-1.28,5.78,5.78,0,0,1,2.19-.43q4.32,0,9.12,7.52t4.8,14.32a10.46,10.46,0,0,1-2.16,6.7A6.49,6.49,0,0,1,157,62a7.09,7.09,0,0,1-4.19-1.14,75.3,75.3,0,0,1-7.09-6.73q-7.72-7.94-15.2-7.94a8.4,8.4,0,0,0-5.77,1.91,6.42,6.42,0,0,0-2.16,5q0,6.16,9.86,9.28,13.33,4.34,17.07,6.31Q166,77.5,166,94.59q0,15.09-11.21,24.67-11.46,9.78-30,9.78a75.79,75.79,0,0,1-17.4-2.16q-9.15-2.16-13.21-5.07-3.09-2.27-5.57-9.89a48,48,0,0,1-2.48-14.85,8.88,8.88,0,0,1,1.29-5.25,4.82,4.82,0,0,1,4.06-2.27c1.63,0,3.2.93,4.7,2.77a104.53,104.53,0,0,1,6.38,10,17.92,17.92,0,0,0,7.57,6.6,23.5,23.5,0,0,0,10.73,2.62,13.82,13.82,0,0,0,7.73-2,5.8,5.8,0,0,0,3-5,6.35,6.35,0,0,0-2.32-4.89,22.57,22.57,0,0,0-7.54-3.83,93.34,93.34,0,0,1-14-5.85,42.42,42.42,0,0,1-9-6.69Q88.48,73.39,88.48,60.77a29.58,29.58,0,0,1,2.64-12.16A29.92,29.92,0,0,1,98.6,38.37Q109.42,28.38,125,28.38Z" transform="translate(0 -2.79)"/><path class="cls-4" d="M209.29,75.09v24a11.82,11.82,0,0,0,1.9,7,5.73,5.73,0,0,0,4.87,2.69c1.67,0,3.89-.85,6.63-2.55a3.55,3.55,0,0,1,1.94-.64c1,0,2,.69,2.83,2.06a8.25,8.25,0,0,1,1.29,4.47q0,4.39-4.38,8.43A31.23,31.23,0,0,1,202.21,129q-10.32,0-16.56-6.42t-6.25-16.9V73a3.46,3.46,0,0,0-.36-2,2.72,2.72,0,0,0-1.83-.4h-6.64c-1.25,0-2-.22-2.39-.67a6.1,6.1,0,0,1-.51-3.15V63.61a3.69,3.69,0,0,1,1.48-3.12l29.51-20.42a5.35,5.35,0,0,1,2.71-.64h5.22a2.46,2.46,0,0,1,2.16.82,6.47,6.47,0,0,1,.54,3.22V53a4.33,4.33,0,0,0,.61,2.77,3.73,3.73,0,0,0,2.61.64h11.92c1.59,0,2.62.32,3.1,1s.71,2,.71,4.07v4.18c0,2.27-.3,3.84-.91,4.72a3.71,3.71,0,0,1-3.28,1.31H212.39a3.27,3.27,0,0,0-2.45.71A4.1,4.1,0,0,0,209.29,75.09Z" transform="translate(0 -2.79)"/><path class="cls-4" d="M269.6,56.45q11.22,0,19,6.24a18.19,18.19,0,0,1,5.77,7.62Q296,74.6,296,82.11l-.13,10.56q0,11,1.42,14.25a4.85,4.85,0,0,0,1.35,2,8.36,8.36,0,0,0,2.71.78c1.37.23,2.06,1.23,2.06,3a12.77,12.77,0,0,1-2.48,7.09,21.24,21.24,0,0,1-6.41,6.17A18.39,18.39,0,0,1,284.42,129a12.77,12.77,0,0,1-10.69-5.1c-.91-1.23-1.74-1.85-2.52-1.85s-2,.59-3.41,1.78A22.79,22.79,0,0,1,253.17,129q-8.44,0-13.66-4a18.33,18.33,0,0,1-5.41-6.84,20.39,20.39,0,0,1-2-8.83,18.38,18.38,0,0,1,5.41-13q8.44-8.94,25.26-9c2.49,0,4.06-.28,4.71-.82s1-1.81,1-3.79q0-7.52-1.41-10.88t-4.64-3.37a5.16,5.16,0,0,0-3.45,1.28,23.17,23.17,0,0,0-3.77,4.67q-5.73,9-12,9A6.87,6.87,0,0,1,238,81.4,7.4,7.4,0,0,1,236,76a11.54,11.54,0,0,1,2.48-6.8,22.65,22.65,0,0,1,6.74-6A47.68,47.68,0,0,1,269.6,56.45Zm-4.31,41a6.19,6.19,0,0,0-4.93,2.56,9.28,9.28,0,0,0-2.1,6.09,9.39,9.39,0,0,0,1.48,5.5,4.61,4.61,0,0,0,3.93,2.09q5.16,0,5.16-9.57c0-2.6-.25-4.35-.74-5.25A3,3,0,0,0,265.29,97.49Z" transform="translate(0 -2.79)"/><path class="cls-4" d="M337.71,56.94c2.28,0,3.66.36,4.15,1.07s.94,3,1.33,6.8c.21,2.08.88,3.12,2,3.12.86,0,1.68-.68,2.45-2.05Q352.79,57,361.1,57a12.29,12.29,0,0,1,9.6,4.19,16.23,16.23,0,0,1,3,5.28,17.17,17.17,0,0,1-.26,13,17,17,0,0,1-3.67,5.78,13.44,13.44,0,0,1-10.11,4.32,10.9,10.9,0,0,1-5.51-1.27,28,28,0,0,1-5.83-5.18,3.7,3.7,0,0,0-2.52-1.49c-1.2,0-2,.75-2.35,2.24a50,50,0,0,0-.55,9.39q0,10.71.71,14.6a6,6,0,0,0,1.26,3,9.05,9.05,0,0,0,3.45,1.66q5.79,1.92,5.79,6.67a7.52,7.52,0,0,1-1.86,5.06,9,9,0,0,1-5,2.88q-6.18,1.41-18.17,1.41-11.4,0-17.33-2.19-5.28-2-5.28-6.88c0-2.46,1.29-4.65,3.86-6.59a10.07,10.07,0,0,0,2.58-2.45,7.4,7.4,0,0,0,1-3q1-6.45,1-23.89a11.63,11.63,0,0,0-.65-4.57,4.75,4.75,0,0,0-2.57-2.24q-4.57-2-4.58-5.74a7.21,7.21,0,0,1,3.16-5.85q3.15-2.44,10.57-4.85Q330.75,57,337.71,56.94Z" transform="translate(0 -2.79)"/><path class="cls-4" d="M418.38,75.09v24a11.75,11.75,0,0,0,1.9,7,5.73,5.73,0,0,0,4.86,2.69q2.52,0,6.64-2.55a3.55,3.55,0,0,1,1.93-.64c1,0,2,.69,2.84,2.06a8.25,8.25,0,0,1,1.29,4.47q0,4.39-4.38,8.43A31.24,31.24,0,0,1,411.29,129q-10.31,0-16.56-6.42t-6.25-16.9V73a3.58,3.58,0,0,0-.35-2,2.74,2.74,0,0,0-1.84-.4h-6.64c-1.24,0-2-.22-2.38-.67a6.1,6.1,0,0,1-.51-3.15V63.61a3.67,3.67,0,0,1,1.48-3.12l29.51-20.42a5.34,5.34,0,0,1,2.7-.64h5.22a2.43,2.43,0,0,1,2.16.82,6.33,6.33,0,0,1,.55,3.22V53a4.26,4.26,0,0,0,.61,2.77,3.73,3.73,0,0,0,2.61.64h11.92q2.39,0,3.09,1c.48.63.71,2,.71,4.07v4.18c0,2.27-.3,3.84-.9,4.72a3.73,3.73,0,0,1-3.29,1.31H421.47a3.29,3.29,0,0,0-2.45.71A4.11,4.11,0,0,0,418.38,75.09Z" transform="translate(0 -2.79)"/><path class="cls-5" d="M127.7,23q6.63,0,17.4,3.62a7,7,0,0,0,2.06.42A17.77,17.77,0,0,0,151,25.77a5.78,5.78,0,0,1,2.19-.43q4.32,0,9.12,7.52t4.8,14.32a10.46,10.46,0,0,1-2.16,6.7,6.49,6.49,0,0,1-5.25,2.73,7.11,7.11,0,0,1-4.19-1.14,75.72,75.72,0,0,1-7.08-6.73q-7.74-7.93-15.21-7.94a8.4,8.4,0,0,0-5.77,1.91,6.41,6.41,0,0,0-2.15,5q0,6.16,9.85,9.28,13.35,4.34,17.08,6.31,16.42,8.79,16.43,25.88,0,15.09-11.21,24.67-11.47,9.78-30,9.78a75.79,75.79,0,0,1-17.4-2.16q-9.15-2.16-13.21-5.07-3.09-2.26-5.57-9.89A47.65,47.65,0,0,1,88.85,91.7a9,9,0,0,1,1.28-5.25,4.84,4.84,0,0,1,4.06-2.27c1.64,0,3.2.92,4.71,2.77a104.53,104.53,0,0,1,6.38,10,17.92,17.92,0,0,0,7.57,6.6,23.44,23.44,0,0,0,10.73,2.62,13.86,13.86,0,0,0,7.73-2,5.82,5.82,0,0,0,3-5A6.32,6.32,0,0,0,132,94.32a22.47,22.47,0,0,0-7.54-3.83,93.6,93.6,0,0,1-14-5.85,42.14,42.14,0,0,1-9-6.7Q91.17,68,91.17,55.4a29.58,29.58,0,0,1,2.64-12.16A30,30,0,0,1,101.28,33Q112.11,23,127.7,23Z" transform="translate(0 -2.79)"/><path class="cls-5" d="M212,69.72v24a11.77,11.77,0,0,0,1.9,6.95,5.73,5.73,0,0,0,4.86,2.69q2.52,0,6.64-2.55a3.55,3.55,0,0,1,1.93-.64c1,0,2,.69,2.84,2.06a8.25,8.25,0,0,1,1.29,4.47q0,4.4-4.38,8.43a31.24,31.24,0,0,1-22.17,8.58q-10.3,0-16.56-6.42t-6.25-16.9V67.59a3.6,3.6,0,0,0-.35-2c-.24-.26-.85-.39-1.84-.39h-6.64c-1.24,0-2-.22-2.38-.67a6.06,6.06,0,0,1-.52-3.15V58.24a3.7,3.7,0,0,1,1.49-3.12L201.35,34.7a5.34,5.34,0,0,1,2.7-.64h5.22a2.41,2.41,0,0,1,2.16.82A6.33,6.33,0,0,1,212,38.1v9.57a4.26,4.26,0,0,0,.61,2.77,3.78,3.78,0,0,0,2.61.64h11.92c1.59,0,2.62.32,3.09,1s.71,2,.71,4.08v4.18c0,2.27-.3,3.84-.9,4.72a3.73,3.73,0,0,1-3.29,1.31H215.07a3.29,3.29,0,0,0-2.45.71A4.11,4.11,0,0,0,212,69.72Z" transform="translate(0 -2.79)"/><path class="cls-5" d="M272.29,51.08q11.2,0,19,6.24a18.16,18.16,0,0,1,5.76,7.62q1.65,4.29,1.65,11.8l-.13,10.56q0,11,1.41,14.25a4.94,4.94,0,0,0,1.36,2,8.36,8.36,0,0,0,2.7.78q2.07.34,2.07,3a12.71,12.71,0,0,1-2.49,7.09,21.24,21.24,0,0,1-6.41,6.17,18.35,18.35,0,0,1-10.11,3.12,12.77,12.77,0,0,1-10.7-5.11c-.9-1.22-1.74-1.84-2.51-1.84s-2,.59-3.42,1.77a22.72,22.72,0,0,1-14.62,5.18q-8.45,0-13.66-4a18.33,18.33,0,0,1-5.41-6.84,20.28,20.28,0,0,1-2-8.83,18.34,18.34,0,0,1,5.41-13q8.45-8.94,25.26-9c2.49,0,4.06-.28,4.7-.82s1-1.81,1-3.79q0-7.51-1.42-10.88t-4.64-3.37a5.2,5.2,0,0,0-3.45,1.27,23.35,23.35,0,0,0-3.77,4.68q-5.73,9-12,9A6.87,6.87,0,0,1,240.72,76a7.38,7.38,0,0,1-2-5.39,11.45,11.45,0,0,1,2.48-6.8,22.47,22.47,0,0,1,6.73-6A47.62,47.62,0,0,1,272.29,51.08Zm-4.32,41A6.23,6.23,0,0,0,263,94.67a10.39,10.39,0,0,0-.61,11.6,4.61,4.61,0,0,0,3.93,2.09q5.16,0,5.15-9.57c0-2.6-.24-4.35-.74-5.25A3,3,0,0,0,268,92.12Z" transform="translate(0 -2.79)"/><path class="cls-5" d="M340.39,51.57c2.28,0,3.67.36,4.16,1.07s.93,3,1.32,6.8c.22,2.08.88,3.12,2,3.12.86,0,1.67-.68,2.45-2.06q5.15-8.85,13.46-8.86a12.29,12.29,0,0,1,9.6,4.19,16.24,16.24,0,0,1,3,5.28,17.17,17.17,0,0,1-.26,13,17.32,17.32,0,0,1-3.67,5.78,13.44,13.44,0,0,1-10.12,4.32A10.93,10.93,0,0,1,356.79,83,28.56,28.56,0,0,1,351,77.8a3.68,3.68,0,0,0-2.51-1.49c-1.2,0-2,.75-2.35,2.24a49.14,49.14,0,0,0-.55,9.39q0,10.71.71,14.6a6.14,6.14,0,0,0,1.25,2.95,9.38,9.38,0,0,0,3.45,1.66q5.81,1.92,5.8,6.67a7.48,7.48,0,0,1-1.87,5.06,8.92,8.92,0,0,1-5,2.87q-6.18,1.43-18.17,1.42-11.4,0-17.33-2.2-5.3-2-5.29-6.87,0-3.69,3.87-6.59a10.24,10.24,0,0,0,2.58-2.45,7.41,7.41,0,0,0,1-3q1-6.45,1-23.89a11.76,11.76,0,0,0-.64-4.58,4.8,4.8,0,0,0-2.58-2.23q-4.58-2-4.57-5.74A7.21,7.21,0,0,1,313,59.76q3.15-2.44,10.56-4.85Q333.44,51.64,340.39,51.57Z" transform="translate(0 -2.79)"/><path class="cls-5" d="M421.06,69.72v24a11.77,11.77,0,0,0,1.91,6.95,5.7,5.7,0,0,0,4.86,2.69q2.52,0,6.64-2.55a3.52,3.52,0,0,1,1.93-.64c1,0,2,.69,2.84,2.06a8.32,8.32,0,0,1,1.28,4.47q0,4.4-4.38,8.43A31.23,31.23,0,0,1,414,123.67q-10.32,0-16.56-6.42t-6.25-16.9V67.59a3.49,3.49,0,0,0-.36-2c-.23-.26-.85-.39-1.83-.39h-6.64c-1.25,0-2-.22-2.38-.67a6,6,0,0,1-.52-3.15V58.24a3.69,3.69,0,0,1,1.48-3.12L410.43,34.7a5.38,5.38,0,0,1,2.71-.64h5.22a2.43,2.43,0,0,1,2.16.82,6.47,6.47,0,0,1,.54,3.22v9.57a4.25,4.25,0,0,0,.62,2.77,3.74,3.74,0,0,0,2.61.64h11.92c1.59,0,2.62.32,3.09,1s.71,2,.71,4.08v4.18c0,2.27-.3,3.84-.9,4.72a3.74,3.74,0,0,1-3.29,1.31H424.16a3.27,3.27,0,0,0-2.45.71A4.1,4.1,0,0,0,421.06,69.72Z" transform="translate(0 -2.79)"/></g></g></svg>